<svg xmlns="http://www.w3.org/2000/svg" xmlns:xlink="http://www.w3.org/1999/xlink" width="130" height="130" viewBox="0 0 130 130">
  <defs>
    <clipPath id="clip-path">
      <rect id="Rectángulo_465558" data-name="Rectángulo 465558" width="67.856" height="69.011" fill="#12263f"/>
    </clipPath>
  </defs>
  <g id="Grupo_1188415" data-name="Grupo 1188415" transform="translate(-186 -9253.862)">
    <g id="Grupo_1188415-2" data-name="Grupo 1188415" transform="translate(186 9253.862)">
      <circle id="Elipse_13890" data-name="Elipse 13890" cx="65" cy="65" r="65" transform="translate(130 130) rotate(180)" fill="#7dbfff"/>
      <path id="Intersección_3" data-name="Intersección 3" d="M0,61.621,107.4,0A65.086,65.086,0,0,1,43.784,78.57,64.8,64.8,0,0,1,0,61.621Z" transform="translate(21.185 51.43)" fill="#19538d"/>
      <path id="Trazado_1032950" data-name="Trazado 1032950" d="M54.541,0A54.541,54.541,0,1,1,0,54.541,54.541,54.541,0,0,1,54.541,0Z" transform="translate(119.541 119.518) rotate(180)" fill="#d5f4f8"/>
      <path id="Intersección_2" data-name="Intersección 2" d="M0,54.575A54.544,54.544,0,0,1,108.536,46.8L20.977,97.592A54.5,54.5,0,0,1,0,54.575Z" transform="translate(10.46 10.435)" fill="#fff"/>
      <g id="Grupo_1212788" data-name="Grupo 1212788" transform="translate(31.072 32.421)">
        <g id="Grupo_1212657" data-name="Grupo 1212657" clip-path="url(#clip-path)">
          <path id="Trazado_1285685" data-name="Trazado 1285685" d="M86.555,50.517,86.548,4.59a2.366,2.366,0,0,0-2.6-2.28H31.622a2.357,2.357,0,0,0-2.578,2.463l0,27.329a5.784,5.784,0,0,1-2.3.011V4.758A4.568,4.568,0,0,1,31.177.039L83.948,0a4.626,4.626,0,0,1,4.884,4.616l0,45.98a4.589,4.589,0,0,1-4.646,4.6l-24.073.011a7.673,7.673,0,0,1,.032-2.3l23.82.006a2.4,2.4,0,0,0,2.588-2.4" transform="translate(-20.978 0)" fill="#12263f"/>
          <path id="Trazado_1285686" data-name="Trazado 1285686" d="M21.9,186.109l-6.771.025a1.234,1.234,0,0,1-1.3-1.295l-.007-2.817-2.177-.931-1.988,1.933a1.347,1.347,0,0,1-2.006.009l-4.616-4.639a1.211,1.211,0,0,1-.106-1.677l2.141-2.223-.863-2.114-3.1-.065A1.23,1.23,0,0,1,0,171.04l0-6.7a1.093,1.093,0,0,1,1.022-1.168l3.145-.044.9-2.234L3,158.789a1.119,1.119,0,0,1-.1-1.509l4.947-4.963a1.106,1.106,0,0,1,1.646,0l2.155,2.107a16.777,16.777,0,0,1,2.169-.892l.024-3a1.142,1.142,0,0,1,1.129-1.2l6.816-.011a1.3,1.3,0,0,1,1.253,1.455l-.009,2.64,2.191.983,2.183-2.154a1.142,1.142,0,0,1,1.572.011l4.657,4.6a1.373,1.373,0,0,1,.167,2.019l-2.028,2.079.886,2.116,2.932.069a1.254,1.254,0,0,1,1.248,1.258l-.017,6.773c0,.791-.674,1.174-1.4,1.176l-2.776.006-.9,2.176,2.2,2.283c.513.532.159,1.28-.3,1.735l-4.655,4.623a1.207,1.207,0,0,1-1.729-.093l-2-2-2.224.917-.022,2.992a1.109,1.109,0,0,1-1.1,1.135m-1.162-2.325-.011-2.635a1.144,1.144,0,0,1,.792-1.154c2.478-.792,3.855-2.037,4.652-1.25l2.018,1.992,3.2-3.231-1.862-1.9a1.278,1.278,0,0,1-.186-1.568c1.285-2.248,1.108-3.975,2.428-4l2.724-.058V165.44H31.943c-1.527,0-1.292-1.641-2.615-4.071a1.285,1.285,0,0,1,.238-1.566l1.818-1.906-3.232-3.19L26.2,156.662a1.136,1.136,0,0,1-1.378.165c-2.385-1.345-4.1-1.08-4.1-2.6l.01-2.593-4.593-.006-.01,2.541a1.292,1.292,0,0,1-.964,1.365c-2.613.709-3.595,2.113-4.717,1l-1.791-1.777-3.23,3.213,1.895,1.9c.924.926-.416,2.174-1.1,4.61a1.217,1.217,0,0,1-1.21.956l-2.647.007L2.351,170l2.608.029a1.294,1.294,0,0,1,1.3,1.035c.6,2.219,1.907,3.578,1.17,4.332l-2.043,2.09,3.254,3.224,1.841-1.806a1.305,1.305,0,0,1,1.716-.2c2.072,1.243,3.887,1.017,3.906,2.332l.04,2.781Z" transform="translate(0 -117.123)" fill="#12263f"/>
          <path id="Trazado_1285687" data-name="Trazado 1285687" d="M100.864,45.117l-52.739,0a8.519,8.519,0,0,1-.006-2.268l52.749,0a7.368,7.368,0,0,1,0,2.274" transform="translate(-37.686 -33.605)" fill="#12263f"/>
          <path id="Trazado_1285688" data-name="Trazado 1285688" d="M149.483,81.629a1.308,1.308,0,0,1-1.307,1.465H134.6a1.225,1.225,0,0,1-1.26-1.165l0-11.4a1.231,1.231,0,0,1,1.274-1.256l5.908.107c1.025.019,1.548,1.668,2.475,2.011,2.727.78,6.468-.807,6.472,1.489Zm-2.36-7.716-4.877-.037a14.133,14.133,0,0,1-2.357-2.223l-4.213-.05,0,9.227,11.463-.011Z" transform="translate(-104.589 -54.341)" fill="#12263f"/>
          <path id="Trazado_1285689" data-name="Trazado 1285689" d="M64.249,81.811a1.222,1.222,0,0,1-1.224,1.282l-13.777-.006a1.142,1.142,0,0,1-1.1-1.147l.013-11.633c0-.662.709-1.03,1.3-1.026l5.933.036,2.344,2.245,5.485.069a1.1,1.1,0,0,1,1.019,1.124Zm-2.329-7.893-5.011-.055a24.7,24.7,0,0,1-2.337-2.24l-4.142-.015.024,9.226,11.479-.03Z" transform="translate(-37.764 -54.343)" fill="#12263f"/>
          <path id="Trazado_1285690" data-name="Trazado 1285690" d="M234.839,167.329a1.158,1.158,0,0,1-1.151,1.113l-13.706,0a1.232,1.232,0,0,1-1.214-1.232l.007-11.43a1.082,1.082,0,0,1,.945-1.108c2.168-.068,4.262-.1,6.418.031l2.4,2.219,5.154.017a1.144,1.144,0,0,1,1.153,1.2Zm-2.262-8.1-5.025-.047-2.33-2.225-4.135-.009-.013,9.18,11.51-.008Z" transform="translate(-171.599 -121.279)" fill="#12263f"/>
          <path id="Trazado_1285691" data-name="Trazado 1285691" d="M234.857,81.83a1.114,1.114,0,0,1-1.12,1.256H219.949a1.145,1.145,0,0,1-1.166-1.152l-.006-11.427a1.287,1.287,0,0,1,1.391-1.238l5.908.054,2.35,2.245,5.309.039a1.08,1.08,0,0,1,1.1,1.062Zm-2.268-7.89-5.1-.115-2.226-2.206-4.186-.017.055,9.221,11.451-.037Z" transform="translate(-171.606 -54.334)" fill="#12263f"/>
          <path id="Trazado_1285692" data-name="Trazado 1285692" d="M156.447,168.378l-.009-2.353,3.436-.012-.007-6.858-4.938-.143c-.983-.028-1.508-1.61-2.4-2.021-.837-.385-1.893-.055-2.921-.141l-.046-2.291c1.2.068,2.537-.239,3.79.13.95.336,1.495,1.573,2.4,2.113l5.3.065a1.149,1.149,0,0,1,1.144,1.212v9.031a1.237,1.237,0,0,1-1.289,1.253Z" transform="translate(-117.313 -121.19)" fill="#12263f"/>
          <path id="Trazado_1285693" data-name="Trazado 1285693" d="M71.754,23.564l-2.279.008V21.248l2.26,0Z" transform="translate(-54.496 -16.664)" fill="#12263f"/>
          <path id="Trazado_1285694" data-name="Trazado 1285694" d="M50.455,23.6l-2.276,0V21.279l2.269.032Z" transform="translate(-37.791 -16.691)" fill="#12263f"/>
          <path id="Trazado_1285695" data-name="Trazado 1285695" d="M93.125,23.571l-2.2,0L90.88,21.32l2.231-.055Z" transform="translate(-71.285 -16.681)" fill="#12263f"/>
          <path id="Trazado_1285696" data-name="Trazado 1285696" d="M55.232,197.509a8.037,8.037,0,1,1-7.033,9.139,7.991,7.991,0,0,1,7.033-9.139m.005,2.33a5.724,5.724,0,1,0,6.565,4.673,5.688,5.688,0,0,0-6.565-4.673" transform="translate(-37.741 -154.88)" fill="#12263f"/>
        </g>
      </g>
    </g>
  </g>
</svg>
