<svg xmlns="http://www.w3.org/2000/svg" xmlns:xlink="http://www.w3.org/1999/xlink" width="130" height="130" viewBox="0 0 130 130">
  <defs>
    <clipPath id="clip-path">
      <rect id="Rectángulo_465557" data-name="Rectángulo 465557" width="59.365" height="59.34" fill="#12263f"/>
    </clipPath>
  </defs>
  <g id="Grupo_1212789" data-name="Grupo 1212789" transform="translate(-186 -9253.862)">
    <g id="Grupo_1188415" data-name="Grupo 1188415" transform="translate(186 9253.862)">
      <circle id="Elipse_13890" data-name="Elipse 13890" cx="65" cy="65" r="65" transform="translate(130 130) rotate(180)" fill="#7dbfff"/>
      <path id="Intersección_3" data-name="Intersección 3" d="M0,61.621,107.4,0A65.086,65.086,0,0,1,43.784,78.57,64.8,64.8,0,0,1,0,61.621Z" transform="translate(21.185 51.43)" fill="#19538d"/>
      <path id="Trazado_1032950" data-name="Trazado 1032950" d="M54.541,0A54.541,54.541,0,1,1,0,54.541,54.541,54.541,0,0,1,54.541,0Z" transform="translate(119.541 119.518) rotate(180)" fill="#d5f4f8"/>
      <path id="Intersección_2" data-name="Intersección 2" d="M0,54.575A54.544,54.544,0,0,1,108.536,46.8L20.977,97.592A54.5,54.5,0,0,1,0,54.575Z" transform="translate(10.46 10.435)" fill="#fff"/>
      <g id="Grupo_1212790" data-name="Grupo 1212790" transform="translate(35.318 35.33)">
        <g id="Grupo_1212655" data-name="Grupo 1212655" clip-path="url(#clip-path)">
          <path id="Trazado_1285679" data-name="Trazado 1285679" d="M57.041,59.326,46,59.329A2.21,2.21,0,0,1,43.725,57.1l0-5.206a.825.825,0,0,1,.887-.868.844.844,0,0,1,.831.883l0,5a.693.693,0,0,0,.76.715l10.725-.006a.648.648,0,0,0,.708-.722L57.626,46a.585.585,0,0,0-.524-.582l-11.552.024c-.35,1.669.346,3.1-.7,3.554-.289.126-.976.052-1.048-.458a11.867,11.867,0,0,1-.008-3.132,1.972,1.972,0,0,1,1.654-1.644l5.2-.063V31.374H40.065v5.892a2.679,2.679,0,0,1-2.589,2.755l-3.333,0,.009,3.876a2.6,2.6,0,1,1-1.742,0l0-3.866-4.758,0,.008,11.141a.824.824,0,0,1-.794.909l-11.215.018L15.638,57.1a2.2,2.2,0,0,1-2.278,2.224L2.422,59.34A2.342,2.342,0,0,1,0,56.911L.011,45.984a2.3,2.3,0,0,1,2.6-2.3l10.567.006a2.2,2.2,0,0,1,2.452,2.1l.032,4.576,10.245,0,.008-10.333H22.069A2.744,2.744,0,0,1,19.3,37.265l-.018-2.957c-.284-.131-1-.181-1.178.058a2.714,2.714,0,0,1-2.938,1.558,2.61,2.61,0,0,1-.15-5.091,2.722,2.722,0,0,1,3.1,1.527c.143.263.9.191,1.173.05L19.3,28.79,7.8,28.777a.9.9,0,0,1-.839-.866l0-12.27L2.23,15.61A2.2,2.2,0,0,1,.01,13.333L.016,2.2A2.2,2.2,0,0,1,2.062.013L13.547,0a2.15,2.15,0,0,1,2.089,2.193l-.017,5.392a.77.77,0,0,1-.844.679.909.909,0,0,1-.849-.867l0-5.01a.629.629,0,0,0-.595-.683l-11.555.04L1.733,13.3a.653.653,0,0,0,.7.607l11.4-.049.1-2.747a.894.894,0,0,1,.728-.844c.266-.067.864.047.919.5a12,12,0,0,1,0,3.108,2.164,2.164,0,0,1-2.189,1.747l-4.66-.006,0,11.438H19.3v-5.01a2.8,2.8,0,0,1,2.956-2.778l3.638.023,0-3.411a2.607,2.607,0,0,1,.812-5.053A2.61,2.61,0,0,1,29.3,12.737a2.715,2.715,0,0,1-1.639,3.189l0,3.348,4.745.01,0-11.331a.93.93,0,0,1,.875-1.012l10.418-.006.032-4.741A2.147,2.147,0,0,1,45.82,0L57.3.014a2.25,2.25,0,0,1,2.066,2.366l-.032,11.133a2.147,2.147,0,0,1-2.2,2.1L46,15.624a2.181,2.181,0,0,1-2.264-2.1L43.7,8.686l-9.558,0V19.264h2.973a2.748,2.748,0,0,1,2.937,2.6l.022,3.1,4.141-.025a2.61,2.61,0,0,1,5.056.775A2.618,2.618,0,0,1,44.2,26.738l-4.135-.048.005,2.963H51.557a.9.9,0,0,1,.852.963L52.4,43.666l4.545.029a2.256,2.256,0,0,1,2.406,2.281l.01,10.941a2.3,2.3,0,0,1-2.322,2.41m-.033-45.415a.654.654,0,0,0,.624-.614L57.591,1.744,45.888,1.7a.8.8,0,0,0-.451.874l.043,11.281Zm-30.6-1.258a.856.856,0,0,0-.354,1.232.869.869,0,0,0,1.2.274.892.892,0,0,0,.274-1.188.847.847,0,0,0-1.124-.318M37.121,38.316a1.082,1.082,0,0,0,1.186-.989V21.98a.98.98,0,0,0-1.025-.947h-15.2a.978.978,0,0,0-1.023.947l-.012,15.2a1.14,1.14,0,0,0,1.27,1.143ZM46.19,25.11a.906.906,0,0,0-.188,1.3.868.868,0,0,0,1.39-1.03.85.85,0,0,0-1.2-.272M15.457,32.522a.854.854,0,0,0-.578,1.239.806.806,0,0,0,1.029.408.859.859,0,0,0,.578-1.038.93.93,0,0,0-1.03-.609m-2.219,25.1a.684.684,0,0,0,.691-.72l-.042-11.455L2.607,45.415a1.011,1.011,0,0,0-.673.157.755.755,0,0,0-.2.6l0,10.733a.653.653,0,0,0,.707.727ZM33.074,45.5a.854.854,0,0,0-.578,1.239.806.806,0,0,0,1.029.408.859.859,0,0,0,.578-1.038.93.93,0,0,0-1.03-.609" transform="translate(0 0)" fill="#12263f"/>
          <path id="Trazado_1285680" data-name="Trazado 1285680" d="M26.206,27.53l-5.994.006a1.339,1.339,0,0,1-1.35-1.408l.009-5.958a1.216,1.216,0,0,1,1.143-1.291l6.487.015c.618,0,1.052.732,1.052,1.287l0,5.927a1.376,1.376,0,0,1-1.351,1.421m-.414-1.783-.014-5.181-5.2,0,0,5.206Z" transform="translate(-15.364 -15.379)" fill="#12263f"/>
          <path id="Trazado_1285681" data-name="Trazado 1285681" d="M261.817,262.879l-6.4-.022c-.615,0-1.05-.747-1.05-1.3l0-5.925A1.41,1.41,0,0,1,255.8,254.2l5.908.006a1.336,1.336,0,0,1,1.35,1.408l-.009,5.956a1.239,1.239,0,0,1-1.232,1.31m-.465-1.713-.006-5.178-5.209-.01.006,5.217Z" transform="translate(-207.192 -207.058)" fill="#12263f"/>
          <path id="Trazado_1285682" data-name="Trazado 1285682" d="M133.446,122.787l1.869,0a1.315,1.315,0,0,1,1.324,1.321V135.23a1.357,1.357,0,0,1-1.342,1.346l-11.125,0a1.35,1.35,0,0,1-1.338-1.352v-11.12a1.311,1.311,0,0,1,1.33-1.32l5.574,0a.844.844,0,0,1,.863.854.905.905,0,0,1-.867.886l-5.135.018-.01,10.3,10.276,0,.014-10.268-1.43-.04a.906.906,0,0,1-.868-.888.846.846,0,0,1,.865-.852" transform="translate(-100.055 -100.015)" fill="#12263f"/>
          <path id="Trazado_1285683" data-name="Trazado 1285683" d="M261.79,27.434l-5.99.019a1.412,1.412,0,0,1-1.437-1.434l0-5.924c0-.568.434-1.28,1.051-1.284l6.312-.04a1.262,1.262,0,0,1,1.321,1.316l.008,5.954a1.3,1.3,0,0,1-1.267,1.393m-.437-1.777-.008-5.182-5.2,0,0,5.21Z" transform="translate(-207.192 -15.29)" fill="#12263f"/>
          <path id="Trazado_1285684" data-name="Trazado 1285684" d="M26.241,262.894l-6.048,0a1.272,1.272,0,0,1-1.323-1.325l-.008-5.951a1.336,1.336,0,0,1,1.35-1.41l5.908,0a1.408,1.408,0,0,1,1.437,1.435l-.005,5.914a1.309,1.309,0,0,1-1.311,1.339m-.454-1.713,0-5.2-5.213.012.007,5.205Z" transform="translate(-15.364 -207.064)" fill="#12263f"/>
        </g>
      </g>
    </g>
  </g>
</svg>
