<svg xmlns="http://www.w3.org/2000/svg" xmlns:xlink="http://www.w3.org/1999/xlink" width="84" height="84" viewBox="0 0 84 84">
  <defs>
    <clipPath id="clip-path">
      <rect id="Rectángulo_464964" data-name="Rectángulo 464964" width="58.377" height="58.379" fill="#12263f"/>
    </clipPath>
  </defs>
  <g id="Grupo_1212662" data-name="Grupo 1212662" transform="translate(-705.63 -479)">
    <g id="Grupo_1188445" data-name="Grupo 1188445" transform="translate(0.001 -1209)">
      <g id="Grupo_1185067" data-name="Grupo 1185067" transform="translate(18054.111 2549.378)">
        <path id="Trazado_997620" data-name="Trazado 997620" d="M133.124,646.71a15.477,15.477,0,1,0-14.332-.01" transform="translate(-17432.65 -1458.182)" fill="#fff" stroke="#000" stroke-miterlimit="10" stroke-width="2"/>
        <rect id="Rectángulo_454823" data-name="Rectángulo 454823" width="14.333" height="4.288" transform="translate(-17313.857 -811.485)" fill="#fff" stroke="#000" stroke-miterlimit="10" stroke-width="2"/>
        <rect id="Rectángulo_454824" data-name="Rectángulo 454824" width="14.333" height="4.288" transform="translate(-17313.857 -807.197)" fill="#fff" stroke="#000" stroke-miterlimit="10" stroke-width="2"/>
        <path id="Trazado_997621" data-name="Trazado 997621" d="M135.492,688.628h-6.283a4.025,4.025,0,0,1-4.025-4.025v-.263h14.333v.263A4.025,4.025,0,0,1,135.492,688.628Z" transform="translate(-17439.041 -1487.249)" fill="#fff" stroke="#000" stroke-miterlimit="10" stroke-width="2"/>
        <line id="Línea_3231" data-name="Línea 3231" y1="7.578" transform="translate(-17306.686 -853.378)" fill="none" stroke="#000" stroke-miterlimit="10" stroke-width="2"/>
        <line id="Línea_3232" data-name="Línea 3232" x1="4.454" y1="6.13" transform="translate(-17323.246 -847.991)" fill="none" stroke="#000" stroke-miterlimit="10" stroke-width="2"/>
        <line id="Línea_3233" data-name="Línea 3233" x1="7.2" y1="2.336" transform="translate(-17333.482 -833.901)" fill="none" stroke="#000" stroke-miterlimit="10" stroke-width="2"/>
        <line id="Línea_3234" data-name="Línea 3234" x1="7.2" y2="2.341" transform="translate(-17333.482 -818.828)" fill="none" stroke="#000" stroke-miterlimit="10" stroke-width="2"/>
        <line id="Línea_3235" data-name="Línea 3235" x1="7.2" y1="2.341" transform="translate(-17287.084 -818.828)" fill="none" stroke="#000" stroke-miterlimit="10" stroke-width="2"/>
        <line id="Línea_3236" data-name="Línea 3236" x1="7.2" y2="2.336" transform="translate(-17287.084 -833.901)" fill="none" stroke="#000" stroke-miterlimit="10" stroke-width="2"/>
        <line id="Línea_3237" data-name="Línea 3237" x1="4.454" y2="6.125" transform="translate(-17294.572 -847.991)" fill="none" stroke="#000" stroke-miterlimit="10" stroke-width="2"/>
        <path id="Trazado_997622" data-name="Trazado 997622" d="M119,638.208a10.647,10.647,0,0,1,4.484-8.693" transform="translate(-17436.35 -1463.403)" fill="#fff" stroke="#000" stroke-miterlimit="10" stroke-width="2"/>
        <line id="Línea_3238" data-name="Línea 3238" y2="8.634" transform="translate(-17306.686 -820.12)" fill="none" stroke="#000" stroke-miterlimit="10" stroke-width="2"/>
        <path id="Trazado_997623" data-name="Trazado 997623" d="M133.157,647.74l2.669,3.47,3-3.47" transform="translate(-17442.51 -1471.329)" fill="#fff" stroke="#000" stroke-miterlimit="10" stroke-width="2"/>
        <path id="Trazado_997624" data-name="Trazado 997624" d="M132.431,691.931a3.07,3.07,0,1,0,6.14,0" transform="translate(-17442.193 -1490.551)" fill="#fff" stroke="#000" stroke-miterlimit="10" stroke-width="2"/>
      </g>
      <rect id="Rectángulo_459857" data-name="Rectángulo 459857" width="84" height="84" transform="translate(705.629 1688)" fill="#fff"/>
    </g>
    <g id="Grupo_1212661" data-name="Grupo 1212661" transform="translate(718.441 491.811)">
      <g id="Grupo_1212057" data-name="Grupo 1212057" clip-path="url(#clip-path)">
        <path id="Trazado_1284024" data-name="Trazado 1284024" d="M194.742,188.958l-4.166-3.1a1.57,1.57,0,0,1-.421-2.09,1.482,1.482,0,0,1,2.037-.494l3.224,2.323,5.294-5.241a1.523,1.523,0,0,1,2.106.12,1.549,1.549,0,0,1-.049,2.131l-6.026,6.04a1.539,1.539,0,0,1-2,.31" transform="translate(-151.005 -143.102)" fill="#12263f"/>
        <path id="Trazado_1284025" data-name="Trazado 1284025" d="M32.722,39.422a74.36,74.36,0,0,1-22.657-.706,29.61,29.61,0,0,1-7.011-2.311l.069,8.358c.351.84,1.536,1.19,2.284,1.632,7.008,2.845,16.475,3.016,23.9,2.6.9-.05,1.427.932,1.382,1.6a1.592,1.592,0,0,1-1.616,1.466c-7.32.479-20.264.165-26.591-3.806C1.416,47.592,0,46.395,0,44.967V7.2C0,5.852,1.383,4.715,2.354,4.062c8.065-5.426,34.712-5.461,42.6.16.922.657,2.091,1.726,2.1,2.974l.081,19.782,10,2.747a1.608,1.608,0,0,1,1.252,1.438v15.8a7.758,7.758,0,0,1-4.141,6.921l-7.907,4.3a1.786,1.786,0,0,1-1.8-.136l-7.491-4.106a7.712,7.712,0,0,1-4.284-6.972Zm3.613-28.313c1.767-.333,7.392-1.852,7.635-3.345.22-1.354-4.518-2.745-5.715-3.061a57.1,57.1,0,0,0-14.822-1.6A56.407,56.407,0,0,0,8.65,4.749c-1.168.313-5.775,1.7-5.549,3.017.251,1.468,5.774,2.978,7.38,3.29a68.5,68.5,0,0,0,25.853.053M42.44,21.465c.442-.425,1.428-.678,1.5-1.318l.05-8.343a28.03,28.03,0,0,1-7.145,2.356,73.3,73.3,0,0,1-26.607,0,30.191,30.191,0,0,1-7.19-2.346l.081,8.331c.061.64,1.054.874,1.421,1.262a26.891,26.891,0,0,0,6.264,2.015,69.525,69.525,0,0,0,25.093.069,28.492,28.492,0,0,0,6.53-2.032m-8.287,8.493L44,27.022a19.66,19.66,0,0,0-.031-2.9,29.152,29.152,0,0,1-7.283,2.365,73.439,73.439,0,0,1-26.442-.03,30.153,30.153,0,0,1-7.189-2.345l.072,8.345c.258.772,1.359,1.083,1.977,1.511,7.8,3.25,19.155,3.36,27.592,2.345.142-1.635.01-3.184.065-4.788a1.659,1.659,0,0,1,1.395-1.57M52.967,51.073A4.657,4.657,0,0,0,55.3,47.011l-.009-14.585L45.58,29.774l-9.736,2.9.03,14.75a4.655,4.655,0,0,0,2.969,4.015l6.736,3.649Z" transform="translate(0 0)" fill="#12263f"/>
        <path id="Trazado_1284026" data-name="Trazado 1284026" d="M95.878,212.43a65.535,65.535,0,0,1-9.621.03,1.548,1.548,0,0,1-1.353-1.687,1.527,1.527,0,0,1,1.722-1.35c2.963.143,5.851.139,8.811,0a1.518,1.518,0,0,1,.441,3" transform="translate(-67.498 -166.505)" fill="#12263f"/>
        <path id="Trazado_1284027" data-name="Trazado 1284027" d="M95.879,92.431a65.538,65.538,0,0,1-9.622.03A1.549,1.549,0,0,1,84.9,90.774a1.528,1.528,0,0,1,1.722-1.35c2.966.142,5.855.139,8.816,0a1.519,1.519,0,0,1,.437,3.005" transform="translate(-67.498 -71.097)" fill="#12263f"/>
        <path id="Trazado_1284028" data-name="Trazado 1284028" d="M95.879,152.434a65.565,65.565,0,0,1-9.621.03,1.549,1.549,0,0,1-1.354-1.687,1.53,1.53,0,0,1,1.722-1.349c2.964.141,5.852.14,8.813,0a1.519,1.519,0,0,1,.44,3.006" transform="translate(-67.498 -118.804)" fill="#12263f"/>
      </g>
    </g>
  </g>
</svg>
