<svg xmlns="http://www.w3.org/2000/svg" xmlns:xlink="http://www.w3.org/1999/xlink" width="84" height="84" viewBox="0 0 84 84">
  <defs>
    <clipPath id="clip-path">
      <rect id="Rectángulo_464984" data-name="Rectángulo 464984" width="56.689" height="63.31" fill="#12263f"/>
    </clipPath>
  </defs>
  <g id="Grupo_1212688" data-name="Grupo 1212688" transform="translate(-705.711 -558)">
    <g id="Grupo_1212674" data-name="Grupo 1212674" transform="translate(0.082 -1130)">
      <g id="Grupo_1185067" data-name="Grupo 1185067" transform="translate(18054.111 2549.378)">
        <path id="Trazado_997620" data-name="Trazado 997620" d="M133.124,646.71a15.477,15.477,0,1,0-14.332-.01" transform="translate(-17432.65 -1458.182)" fill="#ffde92" stroke="#000" stroke-miterlimit="10" stroke-width="2"/>
        <rect id="Rectángulo_454823" data-name="Rectángulo 454823" width="14.333" height="4.288" transform="translate(-17313.857 -811.485)" fill="#ffde92" stroke="#000" stroke-miterlimit="10" stroke-width="2"/>
        <rect id="Rectángulo_454824" data-name="Rectángulo 454824" width="14.333" height="4.288" transform="translate(-17313.857 -807.197)" fill="#ffde92" stroke="#000" stroke-miterlimit="10" stroke-width="2"/>
        <path id="Trazado_997621" data-name="Trazado 997621" d="M135.492,688.628h-6.283a4.025,4.025,0,0,1-4.025-4.025v-.263h14.333v.263A4.025,4.025,0,0,1,135.492,688.628Z" transform="translate(-17439.041 -1487.249)" fill="#ffde92" stroke="#000" stroke-miterlimit="10" stroke-width="2"/>
        <line id="Línea_3231" data-name="Línea 3231" y1="7.578" transform="translate(-17306.686 -853.378)" fill="none" stroke="#000" stroke-miterlimit="10" stroke-width="2"/>
        <line id="Línea_3232" data-name="Línea 3232" x1="4.454" y1="6.13" transform="translate(-17323.246 -847.991)" fill="none" stroke="#000" stroke-miterlimit="10" stroke-width="2"/>
        <line id="Línea_3233" data-name="Línea 3233" x1="7.2" y1="2.336" transform="translate(-17333.482 -833.901)" fill="none" stroke="#000" stroke-miterlimit="10" stroke-width="2"/>
        <line id="Línea_3234" data-name="Línea 3234" x1="7.2" y2="2.341" transform="translate(-17333.482 -818.828)" fill="none" stroke="#000" stroke-miterlimit="10" stroke-width="2"/>
        <line id="Línea_3235" data-name="Línea 3235" x1="7.2" y1="2.341" transform="translate(-17287.084 -818.828)" fill="none" stroke="#000" stroke-miterlimit="10" stroke-width="2"/>
        <line id="Línea_3236" data-name="Línea 3236" x1="7.2" y2="2.336" transform="translate(-17287.084 -833.901)" fill="none" stroke="#000" stroke-miterlimit="10" stroke-width="2"/>
        <line id="Línea_3237" data-name="Línea 3237" x1="4.454" y2="6.125" transform="translate(-17294.572 -847.991)" fill="none" stroke="#000" stroke-miterlimit="10" stroke-width="2"/>
        <path id="Trazado_997622" data-name="Trazado 997622" d="M119,638.208a10.647,10.647,0,0,1,4.484-8.693" transform="translate(-17436.35 -1463.403)" fill="#ffde92" stroke="#000" stroke-miterlimit="10" stroke-width="2"/>
        <line id="Línea_3238" data-name="Línea 3238" y2="8.634" transform="translate(-17306.686 -820.12)" fill="none" stroke="#000" stroke-miterlimit="10" stroke-width="2"/>
        <path id="Trazado_997623" data-name="Trazado 997623" d="M133.157,647.74l2.669,3.47,3-3.47" transform="translate(-17442.51 -1471.329)" fill="#ffde92" stroke="#000" stroke-miterlimit="10" stroke-width="2"/>
        <path id="Trazado_997624" data-name="Trazado 997624" d="M132.431,691.931a3.07,3.07,0,1,0,6.14,0" transform="translate(-17442.193 -1490.551)" fill="#ffde92" stroke="#000" stroke-miterlimit="10" stroke-width="2"/>
      </g>
      <rect id="Rectángulo_459857" data-name="Rectángulo 459857" width="84" height="84" transform="translate(705.629 1688)" fill="#d5f4f8"/>
    </g>
    <g id="Grupo_1212689" data-name="Grupo 1212689" transform="translate(719.711 568)">
      <g id="Grupo_1212078" data-name="Grupo 1212078" clip-path="url(#clip-path)">
        <path id="Trazado_1284107" data-name="Trazado 1284107" d="M172.9,175.368c-.015,6.857-7.031,13.439-13.422,15.146a20.122,20.122,0,0,1-11.316-8.491,11.532,11.532,0,0,1-2.059-6.047l-.059-11.839a.885.885,0,0,1,.771-.864,17.141,17.141,0,0,0,8.622-3.446l8.045,0a17.267,17.267,0,0,0,8.661,3.451.93.93,0,0,1,.781.864Zm-3.579,5.666a11.147,11.147,0,0,0,1.777-5.67l.014-10.408a18.912,18.912,0,0,1-8.189-3.329h-6.9a19.355,19.355,0,0,1-8.19,3.344l.052,11a10.96,10.96,0,0,0,2.089,5.617,18.929,18.929,0,0,0,9.5,7.06,18.81,18.81,0,0,0,9.843-7.61" transform="translate(-116.24 -127.204)" fill="#12263f"/>
        <path id="Trazado_1284108" data-name="Trazado 1284108" d="M181.087,187.1c-.018,5.259-5.648,10.64-10.556,12.03-4.768-1.257-10.554-6.828-10.573-11.825l-.034-8.987a.886.886,0,0,1,.643-.789,18.568,18.568,0,0,0,6.89-2.966l6.139,0a18.439,18.439,0,0,0,6.727,2.919.973.973,0,0,1,.793,1.038Zm-3.259,4.363a8.441,8.441,0,0,0,1.438-3.963l.04-8.382a20.281,20.281,0,0,1-6.228-2.754l-5.1,0a20.11,20.11,0,0,1-6.244,2.753l-.012,7.57a8.764,8.764,0,0,0,1.38,4.575,14.868,14.868,0,0,0,7.422,5.991,15.058,15.058,0,0,0,7.3-5.786" transform="translate(-127.285 -138.936)" fill="#12263f"/>
        <path id="Trazado_1284109" data-name="Trazado 1284109" d="M183.381,213.5a.928.928,0,0,1-.064-1.406c1.107-.986,2.962,2.066,4.4,2.976l5.507-5.244a.87.87,0,0,1,1.2-.122.89.89,0,0,1,.05,1.377l-6.015,5.8a1.01,1.01,0,0,1-1.418.077Z" transform="translate(-145.671 -166.752)" fill="#12263f"/>
        <path id="Trazado_1284110" data-name="Trazado 1284110" d="M33.5,1.823l-31.684,0,0,51.616,26.921,0c.6,0,.949.257,1.011.754a.911.911,0,0,1-.882,1L1.049,55.2C.348,55.2,0,54.756,0,54.039L.009.865A.916.916,0,0,1,1.025,0L34.788.011l9.174,9.178.024,20.962a.9.9,0,1,1-1.8.018l-.02-19.7-7.705-.031a.868.868,0,0,1-.941-.886Zm7.291,6.736L35.341,3.148l-.01,5.516a27.93,27.93,0,0,0,5.456-.105" transform="translate(0 0)" fill="#12263f"/>
        <path id="Trazado_1284111" data-name="Trazado 1284111" d="M33.165,39.611a6.4,6.4,0,1,1-6.4-6.4,6.4,6.4,0,0,1,6.4,6.4m-1.793,0a4.606,4.606,0,1,0-4.606,4.606,4.606,4.606,0,0,0,4.606-4.606" transform="translate(-16.209 -26.433)" fill="#12263f"/>
        <path id="Trazado_1284112" data-name="Trazado 1284112" d="M33.161,187.495a6.4,6.4,0,1,1-6.4-6.4,6.4,6.4,0,0,1,6.4,6.4m-1.793,0a4.606,4.606,0,1,0-4.606,4.606,4.606,4.606,0,0,0,4.606-4.606" transform="translate(-16.204 -144.133)" fill="#12263f"/>
        <path id="Trazado_1284113" data-name="Trazado 1284113" d="M33.173,113.56a6.4,6.4,0,1,1-6.4-6.4,6.4,6.4,0,0,1,6.4,6.4m-1.792,0a4.606,4.606,0,1,0-4.606,4.606,4.606,4.606,0,0,0,4.606-4.606" transform="translate(-16.217 -85.29)" fill="#12263f"/>
        <path id="Trazado_1284114" data-name="Trazado 1284114" d="M114.879,145.8l-18.148,0c-.594,0-.986-.247-1.065-.722a.893.893,0,0,1,.864-1.085l18.346-.012c.671,0,1.066.37,1.067.9,0,.581-.389.925-1.065.925" transform="translate(-76.131 -114.588)" fill="#12263f"/>
        <path id="Trazado_1284115" data-name="Trazado 1284115" d="M115.142,71.93l-18.631.012a.875.875,0,0,1-.875-.91c0-.576.418-.883,1.079-.883l18.319.009a.843.843,0,0,1,.876.677c.065.37-.076,1.095-.769,1.1" transform="translate(-76.117 -55.832)" fill="#12263f"/>
        <path id="Trazado_1284116" data-name="Trazado 1284116" d="M107.412,125.847l-10.707.013c-.575,0-.984-.25-1.062-.731a.907.907,0,0,1,.863-1.079l10.974.012a.892.892,0,0,1,.847.88.865.865,0,0,1-.915.9" transform="translate(-76.114 -98.732)" fill="#12263f"/>
        <path id="Trazado_1284117" data-name="Trazado 1284117" d="M107.341,51.986,96.52,51.971a.887.887,0,1,1,.017-1.774l10.778-.009a.9.9,0,1,1,.026,1.8" transform="translate(-76.118 -39.945)" fill="#12263f"/>
        <path id="Trazado_1284118" data-name="Trazado 1284118" d="M104.063,199.783l-7.567.031a.91.91,0,0,1-.893-.907.95.95,0,0,1,1.074-.914l7.142.007a.963.963,0,0,1,1.007.729c.073.355-.142,1.051-.763,1.054" transform="translate(-76.091 -157.583)" fill="#12263f"/>
        <path id="Trazado_1284119" data-name="Trazado 1284119" d="M103.913,219.821l-7.428.005a.907.907,0,0,1-.879-.9.892.892,0,0,1,.878-.9l7.512.009a.892.892,0,0,1,.847.893.914.914,0,0,1-.93.9" transform="translate(-76.093 -173.521)" fill="#12263f"/>
        <path id="Trazado_1284120" data-name="Trazado 1284120" d="M40.059,57.857c-1.006.991-1.944-.206-3.141-1.451a.9.9,0,0,1-.016-1.175c.779-.947,1.747.476,2.35.846L41.387,54.1a.919.919,0,0,1,1.155.026.907.907,0,0,1,.076,1.207Z" transform="translate(-29.201 -42.907)" fill="#12263f"/>
        <path id="Trazado_1284121" data-name="Trazado 1284121" d="M38.5,205.769l-1.462-1.377a.945.945,0,0,1-.206-1.163.889.889,0,0,1,1.268-.273l1.148.967,2.264-2.009a.876.876,0,0,1,1.15.186.938.938,0,0,1-.03,1.111l-2.557,2.525a1.072,1.072,0,0,1-1.574.035" transform="translate(-29.217 -160.587)" fill="#12263f"/>
        <path id="Trazado_1284122" data-name="Trazado 1284122" d="M40.066,131.81c-.947,1.037-2.131-.378-3.13-1.445a.894.894,0,0,1,.079-1.282c.853-.738,1.586.6,2.256.946l2.105-1.978a.97.97,0,0,1,1.169.021c1.093.935-1.285,2.429-2.48,3.737" transform="translate(-29.211 -101.767)" fill="#12263f"/>
      </g>
    </g>
  </g>
</svg>
