<svg xmlns="http://www.w3.org/2000/svg" xmlns:xlink="http://www.w3.org/1999/xlink" width="150" height="150" viewBox="0 0 150 150">
  <defs>
    <clipPath id="clip-path">
      <rect id="Rectángulo_465548" data-name="Rectángulo 465548" width="77.462" height="77.475" fill="#12263f"/>
    </clipPath>
  </defs>
  <g id="Grupo_1188433" data-name="Grupo 1188433" transform="translate(-185.738 -9253.601)">
    <g id="Grupo_1188415" data-name="Grupo 1188415" transform="translate(185.738 9253.602)">
      <circle id="Elipse_13890" data-name="Elipse 13890" cx="75" cy="75" r="75" transform="translate(150 150) rotate(180)" fill="#fbb03f"/>
      <path id="Intersección_3" data-name="Intersección 3" d="M0,70.769,123.344,0a74.749,74.749,0,0,1-73.06,90.233A74.419,74.419,0,0,1,0,70.769Z" transform="translate(24.681 59.414)" fill="#7a4f1e"/>
      <circle id="Elipse_13891" data-name="Elipse 13891" cx="62.637" cy="62.637" r="62.637" transform="translate(137.638 137.608) rotate(180)" fill="#ffebbe"/>
      <path id="Intersección_2" data-name="Intersección 2" d="M0,62.677a62.641,62.641,0,0,1,124.648-8.925L24.091,112.08A62.59,62.59,0,0,1,0,62.677Z" transform="translate(12.364 12.333)" fill="#fff"/>
      <g id="Grupo_1212777" data-name="Grupo 1212777" transform="translate(36.269 36.263)">
        <g id="Grupo_1212637" data-name="Grupo 1212637" clip-path="url(#clip-path)">
          <path id="Trazado_1285619" data-name="Trazado 1285619" d="M68.428,91.5l.009,40.042h2.585l-.008-41.254a2.524,2.524,0,0,0-2.569-2.6l-9.034-.017a1.273,1.273,0,0,1-1.283-1.181A1.254,1.254,0,0,1,59.4,85.11h9.048a5.089,5.089,0,0,1,5.143,5.174l.008,41.27,2.594.035a1.2,1.2,0,0,1,1.247,1.11,7.63,7.63,0,0,1-7.5,7.9l-62.416,0a7.665,7.665,0,0,1-7.522-7.676,1.245,1.245,0,0,1,1.283-1.33l2.582-.042.008-41.268a5.085,5.085,0,0,1,5.145-5.172l9.046-.009a1.25,1.25,0,0,1,1.275,1.173,1.273,1.273,0,0,1-1.28,1.4l-9.035.019a2.519,2.519,0,0,0-2.57,2.6l-.008,41.254H9.04l0-39.954a1.261,1.261,0,0,1,1.294-1.316l7.737-.008a1.247,1.247,0,0,1,1.274,1.169,1.3,1.3,0,0,1-1.277,1.409l-6.45.015,0,38.736h54.23l0-38.736-6.448-.014a1.305,1.305,0,0,1-1.28-1.192,1.252,1.252,0,0,1,1.274-1.38l7.746,0a1.229,1.229,0,0,1,1.28,1.233m1.39,46.529a5.017,5.017,0,0,0,4.875-3.855l-71.911,0a5.01,5.01,0,0,0,4.761,3.848Z" transform="translate(-0.006 -63.125)" fill="#12263f"/>
          <path id="Trazado_1285620" data-name="Trazado 1285620" d="M85.687,121.574l-4.777.016a2.837,2.837,0,0,1-2.855-3.1,6.922,6.922,0,0,0-.108-2.191,37.724,37.724,0,0,1-3.792-1.439c-.409-.123-1.064.668-1.3.989-1.015,1.354-2.979,1.993-4.249.722L65,112.965c-1.235-1.236-.578-3.231.724-4.244,2.015-1.567.253-1.927-.447-5.136l-2.688-.087a2.725,2.725,0,0,1-2.593-2.828l0-4.653a2.826,2.826,0,0,1,3.079-2.832,15.721,15.721,0,0,0,2.126-.039,40.5,40.5,0,0,1,1.516-3.888c.121-.391-.677-1.059-1-1.3-1.286-.963-2.031-2.888-.835-4.108l3.437-3.508a2.961,2.961,0,0,1,4.532.49c1.523,2.009,1.964.253,5.1-.437a7.315,7.315,0,0,0,.1-2.2A2.826,2.826,0,0,1,80.9,75.114H85.56a2.8,2.8,0,0,1,2.835,2.818l.024,2.367c1.355.385,2.534,1,3.887,1.536.422.068,1.047-.652,1.313-1.007.945-1.262,2.887-2.028,4.1-.829l3.622,3.578a2.9,2.9,0,0,1-.6,4.388c-.319.239-1.109.887-.983,1.3a36.948,36.948,0,0,1,1.438,3.792,5.973,5.973,0,0,0,2.183.122,2.818,2.818,0,0,1,3.093,2.84l0,4.65a2.89,2.89,0,0,1-3.08,2.857h-2.118c-.849,3.18-2.493,3.739-.529,5.2,1.363,1.013,1.988,2.984.726,4.251L98,116.452a2.884,2.884,0,0,1-4.391-.606c-1.473-1.967-1.991-.31-5.192.534l-.023,2.377a2.729,2.729,0,0,1-2.707,2.817m.109-2.566.013-2.337c.016-2.921,2.715-2.747,4.995-4.041a2.854,2.854,0,0,1,3.314.131l2.045,1.907,3.394-3.388-1.8-1.911a2.8,2.8,0,0,1-.391-3.1c1.508-3,1.347-5.245,4.193-5.334l2.315-.073.012-5.054-2.325-.03c-2.919-.037-2.764-2.761-4.04-5a2.852,2.852,0,0,1,.131-3.315l1.907-2.044-3.4-3.4L94.11,83.942c-1.586,1.5-3.785-.355-6.238-1.094a2.782,2.782,0,0,1-2.047-2.574L85.754,77.7l-5.075.009-.025,2.306c-.032,2.882-2.6,2.736-4.993,4.047a2.877,2.877,0,0,1-3.316-.135L70.3,82.019l-3.394,3.388,1.8,1.907a2.929,2.929,0,0,1,.24,3.458c-1.28,2.252-1.112,4.96-4.04,5l-2.311.035-.007,5.1,2.573.027c2.6.027,2.594,2.908,3.7,4.8a2.942,2.942,0,0,1-.051,3.488l-1.9,2.034,3.389,3.407,2.176-2.012c.975-.9,2.364-.316,3.518.139l2.588,1.02a3.005,3.005,0,0,1,2.067,2.854l.03,2.334Z" transform="translate(-44.5 -55.716)" fill="#12263f"/>
          <path id="Trazado_1285621" data-name="Trazado 1285621" d="M225,18.158l0-12.889a1.218,1.218,0,0,1,1.066-1.254l8.145-.067a5.156,5.156,0,1,1,5.816,6.387,5.093,5.093,0,0,1-5.792-3.772l-6.656,0-.009,11.6a1.283,1.283,0,1,1-2.566,0M238.409,2.813a2.57,2.57,0,1,0,3.234,1.663,2.551,2.551,0,0,0-3.234-1.663" transform="translate(-166.887 -0.077)" fill="#12263f"/>
          <path id="Trazado_1285622" data-name="Trazado 1285622" d="M19.365,18.093A1.3,1.3,0,0,1,18.18,19.5a1.262,1.262,0,0,1-1.39-1.279l-.01-11.6L10.12,6.63a5.079,5.079,0,0,1-5.57,3.816A5.126,5.126,0,0,1,0,5.446,5.109,5.109,0,0,1,4.329.248a5.1,5.1,0,0,1,5.793,3.764l7.945.03a1.281,1.281,0,0,1,1.294,1.3ZM4.378,2.874A2.571,2.571,0,1,0,7.61,4.539,2.535,2.535,0,0,0,4.378,2.874" transform="translate(-0.001 -0.141)" fill="#12263f"/>
          <path id="Trazado_1285623" data-name="Trazado 1285623" d="M136.465,15.387a1.293,1.293,0,0,1-1.4,1.394,1.357,1.357,0,0,1-1.193-1.521l-.011-5.12a5.081,5.081,0,0,1-3.809-5.569,5.155,5.155,0,0,1,10.214-.22,5.14,5.14,0,0,1-3.778,5.816ZM134.394,2.733a2.571,2.571,0,1,0,3.23,1.665,2.554,2.554,0,0,0-3.23-1.665" transform="translate(-96.442 0)" fill="#12263f"/>
          <path id="Trazado_1285624" data-name="Trazado 1285624" d="M111.094,115.236a12.9,12.9,0,1,1-10.934,14.79,12.873,12.873,0,0,1,10.934-14.79m.258,2.58a10.316,10.316,0,1,0,11.761,8.633,10.276,10.276,0,0,0-11.761-8.633" transform="translate(-74.178 -85.378)" fill="#12263f"/>
        </g>
      </g>
    </g>
  </g>
</svg>
