<svg xmlns="http://www.w3.org/2000/svg" xmlns:xlink="http://www.w3.org/1999/xlink" width="160" height="160" viewBox="0 0 160 160">
  <defs>
    <clipPath id="clip-path">
      <rect id="Rectángulo_465550" data-name="Rectángulo 465550" width="80.416" height="80.476" fill="#12263f"/>
    </clipPath>
  </defs>
  <g id="Grupo_1212779" data-name="Grupo 1212779" transform="translate(-186 -9253.863)">
    <g id="Grupo_1188415" data-name="Grupo 1188415" transform="translate(186 9253.862)">
      <circle id="Elipse_13890" data-name="Elipse 13890" cx="80" cy="80" r="80" transform="translate(160 160.001) rotate(180)" fill="#7dbfff"/>
      <path id="Intersección_3" data-name="Intersección 3" d="M0,75.841,132.185,0a80.107,80.107,0,0,1-78.3,96.7A79.753,79.753,0,0,1,0,75.841Z" transform="translate(26.074 63.298)" fill="#19538d"/>
      <ellipse id="Elipse_13891" data-name="Elipse 13891" cx="67.127" cy="67.127" rx="67.127" ry="67.127" transform="translate(147.128 147.099) rotate(180)" fill="#dfefff"/>
      <path id="Intersección_2" data-name="Intersección 2" d="M0,67.169A67.131,67.131,0,0,1,133.583,57.6L25.818,120.113A67.077,67.077,0,0,1,0,67.169Z" transform="translate(12.874 12.842)" fill="#fff"/>
      <g id="Grupo_1212780" data-name="Grupo 1212780" transform="translate(39.793 39.734)">
        <g id="Grupo_1212641" data-name="Grupo 1212641" clip-path="url(#clip-path)">
          <path id="Trazado_1285629" data-name="Trazado 1285629" d="M58.407,75.3l-.053-2.621A2.5,2.5,0,0,0,56.9,70.352a2.536,2.536,0,0,0-2.916.547l-1.81,1.783-1.739-1.5c.742,2.506-1.831,2.972-2.541,4.09-1.807,2.942-4.073,5.2-7.606,5.2a8.146,8.146,0,0,1-7.593-5.287,4.74,4.74,0,0,1-2.658-2.417,4.759,4.759,0,0,1,.648-4c-.4-.819-1.1-2.047-.861-3.125L21.43,73.619l-16.7,6.63A3.513,3.513,0,0,1,.142,75.921l6.551-17L18.188,47.43a20.322,20.322,0,0,1-1.007-11.015l-9.152-.03a7.82,7.82,0,0,1-7.92-6.518,7.735,7.735,0,0,1,5.414-8.735,12.942,12.942,0,0,1,24.028-9.024,10.421,10.421,0,0,1,11.89,4.868,26.714,26.714,0,0,1,6.065,1.082L62.9,2.807a10.3,10.3,0,0,1,14.489.364,10.412,10.412,0,0,1,.021,14.661L62.354,32.948a24.031,24.031,0,0,1,1.1,5.977l2.665.029,0,2.341a2.666,2.666,0,0,0,1.293,2.49,2.505,2.505,0,0,0,2.95-.338l2-1.925,5.468,5.467-2.05,2.144A2.517,2.517,0,0,0,77.56,53.2l2.84.023v7.749L78.316,61a2.967,2.967,0,0,0-2.654,1.112,2.448,2.448,0,0,0,.129,2.976l2.044,2.144-5.474,5.472-2.141-2.048a2.333,2.333,0,0,0-2.624-.3,2.482,2.482,0,0,0-1.466,2.323l-.015,2.594Zm15.5-57.679,2.168-2.2A7.855,7.855,0,0,0,65.034,4.382L62.82,6.55ZM39.945,24.045a7.763,7.763,0,0,0-6.029-9.572A7.665,7.665,0,0,0,24.768,21a5.161,5.161,0,0,1,3.739,4.967H25.935a2.6,2.6,0,0,0-5.2-.022,13.24,13.24,0,0,1-2.574.01,5.244,5.244,0,0,1,3.952-5.047,10.339,10.339,0,0,1,5.072-7.767,10.348,10.348,0,0,0-19.039,7.7,7.708,7.708,0,0,1,7.4,7.72l-2.595,0a5.179,5.179,0,1,0-5.158,5.207l34.711.027A3.918,3.918,0,0,0,46.669,30,3.887,3.887,0,1,0,38.9,29.85l-2.585.007a6.438,6.438,0,0,1,3.632-5.812m30.072-2.533,2.019-2.032L60.968,8.416l-2.032,2.032Zm-14.3,1.364L61.678,16.9l-4.631-4.626-6.853,6.892a26.3,26.3,0,0,1,5.521,3.705M61.3,30.231,68.166,23.4l-4.629-4.63-5.988,6A26.782,26.782,0,0,1,61.3,30.231m-26.166,21.7H37.35a3.917,3.917,0,0,1,4.135,3.877l.007,6.51,5.964-.012a17.085,17.085,0,0,1,3.232-5.094L56.8,50.918a14.607,14.607,0,0,0,4.142-10.429A20.885,20.885,0,0,0,42.531,19.636a14.161,14.161,0,0,1,.183,3.761A6.484,6.484,0,1,1,42.8,36.365l-6.487.005,0,3.875a1.262,1.262,0,0,0,1.3,1.29l10.856.091c2.2.018,3.556,2.24,3.375,4.169a3.924,3.924,0,0,1-4.132,3.56l-12.7-.015a1.27,1.27,0,0,0-1.285,1.393,1.291,1.291,0,0,0,1.405,1.194m-.029,2.607a3.84,3.84,0,0,1-3.985-3.794,3.7,3.7,0,0,1,3.391-3.925l13.445-.092a1.286,1.286,0,1,0,.008-2.572L37.6,44.145a3.828,3.828,0,0,1-3.888-3.883L33.7,36.371H19.81c-1,5.333.045,10.712,3.773,14.541l6,6.159a17.687,17.687,0,0,1,3.348,5.234l5.967.01-.011-6.5a1.27,1.27,0,0,0-1.291-1.3ZM63.554,72.593a5.093,5.093,0,0,1,8.72-3.557l1.89-1.892a4.993,4.993,0,0,1-1.059-5.751A5.06,5.06,0,0,1,77.78,58.41v-2.6a5.064,5.064,0,0,1-4.753-3.166,4.992,4.992,0,0,1,1.137-5.569l-1.89-1.9a4.974,4.974,0,0,1-5.356,1.232,5.784,5.784,0,0,1-3.463-3.965,19.227,19.227,0,0,1-1.549,5.587A9.075,9.075,0,1,1,53.215,58.27c-1.4,1.743-3.094,3.416-3.3,5.559.082.966,1.251,2.215.38,3.376l1.914,1.834a4.963,4.963,0,0,1,5.75-1.062,5.062,5.062,0,0,1,2.984,4.685,9.023,9.023,0,0,0,2.612-.069M14.259,64.329l9.505-9.518a25.818,25.818,0,0,1-4.23-4.972L9.629,59.7Zm41.82-8.887a6.323,6.323,0,0,0,6.013,8.144,6.45,6.45,0,0,0,6.532-7.559c-.584-3.743-4.7-6.6-8.537-4.879ZM20.742,70.813,29.8,61.75a23.572,23.572,0,0,0-4.18-5.056l-9.5,9.492ZM9.855,75.49l8.509-3.315L8.262,62.086l-3.307,8.5Zm36.806-8a1.292,1.292,0,1,0,0-2.584l-12.947,0a1.269,1.269,0,0,0-1.287,1.4,1.284,1.284,0,0,0,1.293,1.187Zm0,5.188a1.292,1.292,0,1,0,0-2.584l-12.947,0a1.269,1.269,0,0,0-1.287,1.4,1.284,1.284,0,0,0,1.293,1.187ZM3.781,77.788l3.3-1.3L3.954,73.363l-1.242,3.1a1,1,0,0,0,.1,1.038.874.874,0,0,0,.972.286m40.864-2.477-8.988-.056a5.1,5.1,0,0,0,4.659,2.586,4.9,4.9,0,0,0,4.328-2.53" transform="translate(0 0)" fill="#12263f"/>
          <path id="Trazado_1285630" data-name="Trazado 1285630" d="M227.812,205.348a3.886,3.886,0,1,1-2.644,4.976,3.844,3.844,0,0,1,2.644-4.976m.617,2.53a1.283,1.283,0,1,0,1.6.682,1.276,1.276,0,0,0-1.6-.682" transform="translate(-166.618 -151.974)" fill="#12263f"/>
        </g>
      </g>
    </g>
  </g>
</svg>
