<svg xmlns="http://www.w3.org/2000/svg" xmlns:xlink="http://www.w3.org/1999/xlink" width="160" height="160" viewBox="0 0 160 160">
  <defs>
    <clipPath id="clip-path">
      <rect id="Rectángulo_465551" data-name="Rectángulo 465551" width="86.169" height="78.53" fill="#12263f"/>
    </clipPath>
  </defs>
  <g id="Grupo_1212781" data-name="Grupo 1212781" transform="translate(-186 -9253.863)">
    <g id="Grupo_1188415" data-name="Grupo 1188415" transform="translate(186 9253.862)">
      <circle id="Elipse_13890" data-name="Elipse 13890" cx="80" cy="80" r="80" transform="translate(160 160.001) rotate(180)" fill="#4dd0e1"/>
      <path id="Intersección_3" data-name="Intersección 3" d="M0,75.841,132.185,0a80.107,80.107,0,0,1-78.3,96.7A79.753,79.753,0,0,1,0,75.841Z" transform="translate(26.074 63.298)" fill="#1e535a"/>
      <ellipse id="Elipse_13891" data-name="Elipse 13891" cx="67.127" cy="67.127" rx="67.127" ry="67.127" transform="translate(147.128 147.099) rotate(180)" fill="#d5f4f8"/>
      <path id="Intersección_2" data-name="Intersección 2" d="M0,67.169A67.131,67.131,0,0,1,133.583,57.6L25.818,120.113A67.077,67.077,0,0,1,0,67.169Z" transform="translate(12.874 12.842)" fill="#fff"/>
      <g id="Grupo_1212782" data-name="Grupo 1212782" transform="translate(36.915 42.735)">
        <g id="Grupo_1212643" data-name="Grupo 1212643" clip-path="url(#clip-path)">
          <path id="Trazado_1285631" data-name="Trazado 1285631" d="M72.8,77.153a1.3,1.3,0,0,1-1.4,1.376H14.771a1.273,1.273,0,0,1-1.388-1.257l.062-5.2a6.017,6.017,0,0,1,5.8-4.934l9.323-.105-.03-7.388H7.791A7.836,7.836,0,0,1,0,51.733V7.821C0,3.869,3.053,0,7.253,0H78.916c4.2,0,7.252,3.867,7.252,7.821V51.732a7.84,7.84,0,0,1-8.07,7.911H57.631L57.6,67.031l9.318.107a6.03,6.03,0,0,1,5.807,4.932Zm10.566-25.28.029-44.04c0-2.413-1.825-5.064-4.476-5.064H7.254c-2.653,0-4.48,2.648-4.478,5.063L2.811,52a4.935,4.935,0,0,0,5.005,4.854H78.351a4.93,4.93,0,0,0,5.013-4.977M54.811,67.038l-.014-7.4-23.453.011.03,7.41ZM69.99,75.744a10.263,10.263,0,0,0-.112-3.62,3.722,3.722,0,0,0-3.5-2.274l-46.573,0a3.722,3.722,0,0,0-3.509,2.27,10.265,10.265,0,0,0-.11,3.62Z" transform="translate(0 0)" fill="#12263f"/>
          <path id="Trazado_1285632" data-name="Trazado 1285632" d="M93.152,64.993,20.368,65a1.461,1.461,0,0,1-1.123-1.446l-.013-41.872c0-1.085.619-2.53,1.94-2.53h71.6c1.273,0,1.968,1.451,1.968,2.532l0,41.863c-.181.789-.458,1.45-1.591,1.45m-1.23-2.788V21.9H22.02V62.213Z" transform="translate(-13.886 -13.825)" fill="#12263f"/>
          <path id="Trazado_1285633" data-name="Trazado 1285633" d="M102.759,33.3A19.033,19.033,0,1,1,86.7,54.912,18.984,18.984,0,0,1,102.759,33.3m.544,2.729a16.252,16.252,0,1,0,18.369,14.133A16.209,16.209,0,0,0,103.3,36.029" transform="translate(-62.452 -23.894)" fill="#12263f"/>
          <path id="Trazado_1285634" data-name="Trazado 1285634" d="M148.724,66.36a3.2,3.2,0,1,1-6.391.108l-.452-15.36c-.061-2.075,1.843-3.142,3.612-3.142a3.428,3.428,0,0,1,3.734,3.143Zm-2.774-.079.429-15.21c0-.418-1.712-.417-1.711,0l.439,15.322c.012.405.317.57.536.507a.665.665,0,0,0,.307-.62" transform="translate(-102.438 -34.631)" fill="#12263f"/>
          <path id="Trazado_1285635" data-name="Trazado 1285635" d="M143.885,127.371a3.855,3.855,0,1,1-2.551,4.974,3.837,3.837,0,0,1,2.551-4.974m.635,2.707a1.086,1.086,0,0,0-.491,1.53,1.126,1.126,0,0,0,1.444.4,1.052,1.052,0,0,0,.445-1.472,1.065,1.065,0,0,0-1.4-.456" transform="translate(-101.886 -91.842)" fill="#12263f"/>
        </g>
      </g>
    </g>
  </g>
</svg>
