<svg xmlns="http://www.w3.org/2000/svg" xmlns:xlink="http://www.w3.org/1999/xlink" width="96" height="96" viewBox="0 0 96 96">
  <defs>
    <clipPath id="clip-path">
      <rect id="Rectángulo_465528" data-name="Rectángulo 465528" width="47.293" height="47.279" fill="#19538d"/>
    </clipPath>
  </defs>
  <g id="Grupo_1212710" data-name="Grupo 1212710" transform="translate(-383.67 -8399.924)">
    <circle id="Elipse_13890" data-name="Elipse 13890" cx="48" cy="48" r="48" transform="translate(383.67 8399.924)" fill="#5a9ad7"/>
    <path id="Intersección_1" data-name="Intersección 1" d="M0,47.89A47.893,47.893,0,0,1,79.511,11.92L1.1,58.131A48,48,0,0,1,0,47.89Z" transform="translate(383.779 8400.031)" fill="#19538d"/>
    <path id="Trazado_1032916" data-name="Trazado 1032916" d="M40,0A40,40,0,1,1,0,40,40,40,0,0,1,40,0Z" transform="translate(391.67 8407.924)" fill="#e6f3ff"/>
    <g id="Grupo_1212711" data-name="Grupo 1212711" transform="translate(408.023 8424.284)">
      <g id="Grupo_1212598" data-name="Grupo 1212598" clip-path="url(#clip-path)">
        <path id="Trazado_1285446" data-name="Trazado 1285446" d="M45,47.266l-6.146,0a2.228,2.228,0,0,1-2.253-2.2L36.6,43.419a23.662,23.662,0,0,1-25.882.012l-.03,1.631a2.236,2.236,0,0,1-2.255,2.206l-6.063.01A2.33,2.33,0,0,1,0,44.908L0,34.42a2.469,2.469,0,0,1,1.566-2.327,23.748,23.748,0,0,1-.006-16.91A2.43,2.43,0,0,1,.025,13.145L.016,2.212A2.213,2.213,0,0,1,2.076.035l6.5-.006A2.187,2.187,0,0,1,10.682,2.2l.008,1.666A23.673,23.673,0,0,1,36.6,3.856l.018-1.793A2.174,2.174,0,0,1,38.853.012L45.059.02a2.326,2.326,0,0,1,2.234,2.49L47.272,13a2.448,2.448,0,0,1-1.552,2.181,23.693,23.693,0,0,1,0,16.909,2.478,2.478,0,0,1,1.567,2.328l0,10.49A2.3,2.3,0,0,1,45,47.266M9.16,4.575l0-2.341A.791.791,0,0,0,8.4,1.526l-6.123.005a.713.713,0,0,0-.732.737L1.533,4.573ZM36.581,9.636l0-3.935a22.129,22.129,0,0,0-25.873,0l0,3.934a19.075,19.075,0,0,1,25.879,0M45.75,4.565l-.008-2.3a.741.741,0,0,0-.735-.733l-6.12-.008a.8.8,0,0,0-.766.842l.005,2.213ZM9.166,9.159l0-3.082-7.619.016L1.532,9.161ZM33.5,14.195a15.533,15.533,0,0,1,.073,2.372l3.184-2.718a5.339,5.339,0,0,1-.138-1.973,17.493,17.493,0,0,0-25.956,0,5.287,5.287,0,0,1-.138,1.972l3.185,2.718c.049-1.782-.377-2.865,1.24-3.394a19.857,19.857,0,0,1,5.062-.84c3.1-.186,13.018-.349,13.487,1.864M45.753,9.154l-.012-3.061-7.62-.013V9.167ZM8.283,13.735a.836.836,0,0,0,.887-.877l-.01-2.177-7.614.007L1.557,13.1c0,.4.433.631.82.629Zm36.687-.012a.756.756,0,0,0,.777-.747l-.009-2.288-7.613-.007-.01,2.178a.836.836,0,0,0,.887.877Zm-21.991,1.5a30.153,30.153,0,0,0,8.372-.74,28.676,28.676,0,0,0-7.414-.744,30.87,30.87,0,0,0-8,.738,25.456,25.456,0,0,0,7.037.746M14.3,26.7a4.978,4.978,0,0,1-.591-3.064,6.551,6.551,0,0,1,.5-3.112,4.469,4.469,0,0,1-.495-1.895L9.551,14.968a8.241,8.241,0,0,1-1.334.333,17.469,17.469,0,0,0,.039,16.726,3.963,3.963,0,0,1,1.489.36l3.947-3.051A4.459,4.459,0,0,1,14.3,26.7M33.576,29.4l3.976,2.98a4.229,4.229,0,0,1,1.478-.352,17.447,17.447,0,0,0,0-16.78,2.64,2.64,0,0,1-1.267-.29l-4.185,3.675a3.708,3.708,0,0,1-.556,1.923,5.486,5.486,0,0,1,.558,3.084,5.448,5.448,0,0,1-.561,3.085,4.375,4.375,0,0,1,.56,2.675M6.515,32.009a19.044,19.044,0,0,1,.012-16.772l-3.361.023a22.294,22.294,0,0,0,.025,16.8ZM44.126,32A22.323,22.323,0,0,0,44.1,15.231l-3.344.008a19.035,19.035,0,0,1,0,16.794Zm-12.1-13.317,0-2.758a27.331,27.331,0,0,1-5.728.787,38.973,38.973,0,0,1-11.047-.79l0,2.69a2,2,0,0,0,.378,1.234,44.856,44.856,0,0,0,16.023,0,1.9,1.9,0,0,0,.377-1.167m-.309,7.237a4.006,4.006,0,0,0,.311-2.142,5.078,5.078,0,0,0-.282-2.4,45.838,45.838,0,0,1-16.217,0,5.676,5.676,0,0,0-.279,2.55,3.285,3.285,0,0,0,.346,2,43.545,43.545,0,0,0,16.121-.01m-1.95,6.858A2.388,2.388,0,0,0,32.046,30a6.813,6.813,0,0,0-.268-2.513,45.462,45.462,0,0,1-16.232-.012,6.06,6.06,0,0,0-.3,2.667,2.37,2.37,0,0,0,2.35,2.658Zm6.878.772-3.162-2.308a3.712,3.712,0,0,1-3.5,3.04H17.3a3.734,3.734,0,0,1-3.5-3.038l-3.161,2.306.031,1.847a17.483,17.483,0,0,0,25.947,0ZM9.175,36.59l0-2.18a.788.788,0,0,0-.746-.844l-6.179,0a.711.711,0,0,0-.706.725l.045,2.318Zm36.569,0,0-2.3a.713.713,0,0,0-.708-.723l-6.179,0a.733.733,0,0,0-.73.708l-.007,2.345Zm-9.152,4.968-.009-3.926a19.069,19.069,0,0,1-25.881,0l0,3.933a22.108,22.108,0,0,0,25.885-.006M9.164,41.2V38.113H1.532l.011,3.068Zm36.583-.022,0-3.066-7.631.006V41.2ZM8.461,45.748a.807.807,0,0,0,.7-.841l0-2.211H1.533L1.545,45a.717.717,0,0,0,.73.735Zm36.607-.007a.722.722,0,0,0,.671-.736l.012-2.308-7.624,0-.005,2.211a.794.794,0,0,0,.763.84Z" transform="translate(0 0.001)" fill="#19538d"/>
      </g>
    </g>
  </g>
</svg>
