<svg xmlns="http://www.w3.org/2000/svg" xmlns:xlink="http://www.w3.org/1999/xlink" width="150" height="150" viewBox="0 0 150 150">
  <defs>
    <clipPath id="clip-path">
      <rect id="Rectángulo_465533" data-name="Rectángulo 465533" width="76.15" height="76.146" fill="#12263f"/>
    </clipPath>
  </defs>
  <g id="Grupo_1188433" data-name="Grupo 1188433" transform="translate(-185.738 -9253.601)">
    <g id="Grupo_1188415" data-name="Grupo 1188415" transform="translate(185.738 9253.602)">
      <circle id="Elipse_13890" data-name="Elipse 13890" cx="75" cy="75" r="75" transform="translate(150 150) rotate(180)" fill="#fbb03f"/>
      <path id="Intersección_3" data-name="Intersección 3" d="M0,70.769,123.344,0a74.749,74.749,0,0,1-73.06,90.233A74.419,74.419,0,0,1,0,70.769Z" transform="translate(24.681 59.414)" fill="#7a4f1e"/>
      <circle id="Elipse_13891" data-name="Elipse 13891" cx="62.637" cy="62.637" r="62.637" transform="translate(137.638 137.608) rotate(180)" fill="#ffebbe"/>
      <path id="Intersección_2" data-name="Intersección 2" d="M0,62.677a62.641,62.641,0,0,1,124.648-8.925L24.091,112.08A62.59,62.59,0,0,1,0,62.677Z" transform="translate(12.364 12.333)" fill="#fff"/>
      <g id="Grupo_1212721" data-name="Grupo 1212721" transform="translate(36.614 35.927)">
        <g id="Grupo_1212608" data-name="Grupo 1212608" clip-path="url(#clip-path)">
          <path id="Trazado_1285486" data-name="Trazado 1285486" d="M46.741,71.8c-1.107,0-1.928,1.222-3.013,1.461L37.266,66.82l1.52-2.971-1.071-3.057-3.322-.9-.01-9.191c1.1-.643,2.568-.211,3.686-1.494l-9.825-.081a3.626,3.626,0,0,1-3.676-3.69V35.61a3.716,3.716,0,0,1,3.912-3.687L33.17,31.9a5.385,5.385,0,0,1-1.091-2.43l-13.9.042a3.475,3.475,0,0,0-3.407,3.4l-.032,11.43A6.122,6.122,0,0,1,18.428,54l4.92.044a3.634,3.634,0,0,1,3.666,3.67l0,9.84a3.629,3.629,0,0,1-3.688,3.681H3.69A3.628,3.628,0,0,1,0,67.555l0-9.844a3.556,3.556,0,0,1,3.429-3.643L8.587,54a6.114,6.114,0,0,1-.777-5.947,6.036,6.036,0,0,1,4.459-3.707l.016-11.207a5.991,5.991,0,0,1,5.883-6.087l13.9-.046a6.018,6.018,0,0,1,4.77-4.769l.016-11.2a6.068,6.068,0,0,1,6.127-6.119l13.629,0A6.142,6.142,0,1,1,67.56,9.781l4.92.044a3.635,3.635,0,0,1,3.666,3.67l0,9.84a3.629,3.629,0,0,1-3.688,3.681H52.823a3.629,3.629,0,0,1-3.688-3.682l0-9.84A3.634,3.634,0,0,1,52.8,9.827l4.939-.043a5.306,5.306,0,0,1-1.091-2.427l-13.9.046a3.545,3.545,0,0,0-3.435,3.652l.077,11.1a6.862,6.862,0,0,1,4.331,3.613,6.239,6.239,0,0,1-.728,6.133h4.4A4.618,4.618,0,0,1,51.4,34.269l8.492.156.836,3.153,3.134,1.33,2.96-1.668,6.452,6.474L71.752,46.68l1.072,3.051,3.326.91,0,9.247-3.2.835-1.315,3.13,1.666,2.963-6.476,6.443-2.956-1.5-3.058,1.053L59.9,76.147H50.641L49.8,72.918c-.9-.26-1.9-1.068-3.062-1.117M61.648,2.6a3.678,3.678,0,1,0,4.54,2.542A3.643,3.643,0,0,0,61.648,2.6M72.54,24.569a1.258,1.258,0,0,0,1.147-1.253v-9.8a1.249,1.249,0,0,0-1.025-1.23l-20.045,0a1.243,1.243,0,0,0-1.026,1.228v9.8a1.255,1.255,0,0,0,1.246,1.251Zm-35.458.137a3.678,3.678,0,1,0,4.54,2.541,3.643,3.643,0,0,0-4.54-2.541M47.974,46.679a1.259,1.259,0,0,0,1.147-1.253v-9.8a1.249,1.249,0,0,0-1.025-1.23l-20.045,0a1.243,1.243,0,0,0-1.026,1.228v9.8a1.255,1.255,0,0,0,1.246,1.251ZM58.817,70.765a15.429,15.429,0,0,0,5.023-2.01l2.527,1.475,3.881-3.851-1.491-2.551a16.246,16.246,0,0,0,2.053-5.06l2.876-.81V52.571l-2.879-.823A16.452,16.452,0,0,0,68.761,46.7l1.461-2.615-3.75-3.757-2.61,1.448a16.441,16.441,0,0,0-5.092-2.044l-.805-2.881-6.378-.006v5.432a13.492,13.492,0,1,1-8.374,6.889l-2.631,0a11.46,11.46,0,0,0-.866,2.593l-2.861.818,0,5.38,2.879.817a16.13,16.13,0,0,0,2.051,5.06l-1.491,2.548,3.878,3.853L46.7,68.752a16.447,16.447,0,0,0,5.062,2.058l.814,2.879,5.377-.012ZM47.543,49.139a3.429,3.429,0,0,0-1.509.089,11.057,11.057,0,1,0,5.522-4.345,3.721,3.721,0,0,1-4.012,4.256M12.516,46.816a3.678,3.678,0,1,0,4.539,2.542,3.645,3.645,0,0,0-4.539-2.542M23.407,68.789a1.258,1.258,0,0,0,1.147-1.253v-9.8a1.248,1.248,0,0,0-1.026-1.23l-20.045,0a1.243,1.243,0,0,0-1.026,1.228v9.8a1.255,1.255,0,0,0,1.246,1.251Z" transform="translate(0 -0.001)" fill="#12263f"/>
          <path id="Trazado_1285487" data-name="Trazado 1285487" d="M204.908,200.139a6.132,6.132,0,1,1-4.73,7.428,6.085,6.085,0,0,1,4.73-7.428m.247,2.465a3.678,3.678,0,1,0,4.54,2.541,3.643,3.643,0,0,0-4.54-2.541" transform="translate(-150.878 -150.874)" fill="#12263f"/>
          <path id="Trazado_1285488" data-name="Trazado 1285488" d="M237.223,62.451l-17.134.008,0-2.466h17.143Z" transform="translate(-166.018 -45.255)" fill="#12263f"/>
          <path id="Trazado_1285489" data-name="Trazado 1285489" d="M237.223,82.451l-17.134.008,0-2.466h17.143Z" transform="translate(-166.018 -60.342)" fill="#12263f"/>
          <path id="Trazado_1285490" data-name="Trazado 1285490" d="M137.224,152.451l-17.134.008,0-2.466h17.142Z" transform="translate(-90.586 -113.146)" fill="#12263f"/>
          <path id="Trazado_1285491" data-name="Trazado 1285491" d="M137.224,172.451l-17.134.008,0-2.466h17.142Z" transform="translate(-90.586 -128.232)" fill="#12263f"/>
          <path id="Trazado_1285492" data-name="Trazado 1285492" d="M37.223,242.451l-17.134.008,0-2.466H37.228Z" transform="translate(-15.151 -181.036)" fill="#12263f"/>
          <path id="Trazado_1285493" data-name="Trazado 1285493" d="M37.223,262.451l-17.134.008,0-2.466H37.228Z" transform="translate(-15.151 -196.123)" fill="#12263f"/>
        </g>
      </g>
    </g>
  </g>
</svg>
