<svg xmlns="http://www.w3.org/2000/svg" xmlns:xlink="http://www.w3.org/1999/xlink" width="96" height="96" viewBox="0 0 96 96">
  <defs>
    <clipPath id="clip-path">
      <rect id="Rectángulo_465529" data-name="Rectángulo 465529" width="50.768" height="50.777" fill="#19538d"/>
    </clipPath>
  </defs>
  <g id="Grupo_1212714" data-name="Grupo 1212714" transform="translate(-383.67 -8399.924)">
    <circle id="Elipse_13890" data-name="Elipse 13890" cx="48" cy="48" r="48" transform="translate(383.67 8399.924)" fill="#5a9ad7"/>
    <path id="Intersección_1" data-name="Intersección 1" d="M0,47.89A47.893,47.893,0,0,1,79.511,11.92L1.1,58.131A48,48,0,0,1,0,47.89Z" transform="translate(383.779 8400.031)" fill="#19538d"/>
    <path id="Trazado_1032916" data-name="Trazado 1032916" d="M40,0A40,40,0,1,1,0,40,40,40,0,0,1,40,0Z" transform="translate(391.67 8407.924)" fill="#e6f3ff"/>
    <g id="Grupo_1212715" data-name="Grupo 1212715" transform="translate(406.286 8419.535)">
      <g id="Grupo_1212600" data-name="Grupo 1212600" clip-path="url(#clip-path)">
        <path id="Trazado_1285447" data-name="Trazado 1285447" d="M110.972,150.536a.862.862,0,0,1-.948-.86l-.008-3.38a.834.834,0,0,1,.848-.838l3.383,0v-5.923h-4.22l.013-1.692h25.331a.866.866,0,0,0,.872-.876l0-16.882h1.7l-.007,16.894a2.493,2.493,0,0,1-2.537,2.548l-11,.01v5.92l3.384,0a.844.844,0,0,1,.846.847l-.006,3.379a.848.848,0,0,1-.86.853Zm9.2-11-.007,2.528a.839.839,0,0,1-1.678,0l-.011-2.53-2.537,0,0,5.929h6.771l0-5.928Zm6.744,9.312,0-1.7h-15.19l0,1.7Z" transform="translate(-91.397 -99.759)" fill="#19538d"/>
        <path id="Trazado_1285448" data-name="Trazado 1285448" d="M110.791,141.761l3.5-.025c-.12-.549-.1-1.573.515-1.592l3.713-.113c-.112-.527-.1-1.557.518-1.581l3.736-.148c-.174-.612-.066-1.53.5-1.547l3.711-.112c-.118-.5-.1-1.566.516-1.577l4.521-.08a.837.837,0,0,1,.846.852l0,10.985,1.686.012-.02,1.694-24.51,0,0-5.93a.837.837,0,0,1,.764-.843m20.392,5.038,0-10.116h-2.541v10.144Zm-4.23,0-.005-8.428h-2.542v8.454Zm-4.23,0-.006-6.74h-2.542v6.765Zm-4.23.006-.008-5.055h-2.542v5.076Zm-4.23.01-.009-3.375-2.541,0v3.388Z" transform="translate(-91.404 -112.141)" fill="#19538d"/>
        <path id="Trazado_1285449" data-name="Trazado 1285449" d="M16.126,216.932H.868A.885.885,0,0,1,0,216.056l0-15.2a.826.826,0,0,1,.859-.852l15.2,0a.826.826,0,0,1,.857.857l.006,15.194a.892.892,0,0,1-.8.877m-.9-11.851V201.7H1.7v3.391Zm0,5.077v-3.385H1.7v3.391Zm0,5.077v-3.385H1.7v3.391Z" transform="translate(0 -166.154)" fill="#19538d"/>
        <path id="Trazado_1285450" data-name="Trazado 1285450" d="M191.959,20.287l-3.447.013a.832.832,0,0,1-.847-.845l-.013-1.52a.642.642,0,0,0-.342-.587.717.717,0,0,0-.8.106l-1.117,1.1a.773.773,0,0,1-.986.1l-2.637-2.617a.785.785,0,0,1,.03-1.083l1.092-1.117a.722.722,0,0,0,.105-.8.776.776,0,0,0-.745-.351l-1.359,0a.826.826,0,0,1-.841-.851V8.459a.818.818,0,0,1,.84-.839l1.36,0a.781.781,0,0,0,.744-.356.715.715,0,0,0-.106-.8L181.8,5.344a.79.79,0,0,1-.029-1.087L184.4,1.646a.776.776,0,0,1,.987.1l1.115,1.1a.7.7,0,0,0,.683.154.637.637,0,0,0,.464-.636l.013-1.517A.819.819,0,0,1,188.51,0l3.377,0a.816.816,0,0,1,.843.842l0,1.358a.778.778,0,0,0,.353.745.723.723,0,0,0,.8-.105l1.122-1.1a.775.775,0,0,1,.984-.1L198.7,4.351a.779.779,0,0,1-.1.987l-1.1,1.118a.722.722,0,0,0-.1.8.779.779,0,0,0,.744.356l1.361,0a.818.818,0,0,1,.839.845v3.374a.827.827,0,0,1-.84.85h-1.359a.777.777,0,0,0-.745.347.717.717,0,0,0,.106.8l1.1,1.117a.783.783,0,0,1,.1.989l-2.707,2.713a.775.775,0,0,1-.984-.1l-1.121-1.1a.719.719,0,0,0-.681-.151.624.624,0,0,0-.464.631l-.013,1.524a.8.8,0,0,1-.771.828m-.875-1.727a2.428,2.428,0,0,1,4.447-1.807l1.264-1.295a2.443,2.443,0,0,1-.99-3.008,2.508,2.508,0,0,1,2.837-1.414,6,6,0,0,0-.056-1.762,2.5,2.5,0,0,1-2.825-1.54A2.494,2.494,0,0,1,196.8,4.813L195.53,3.54a2.481,2.481,0,0,1-3.035,1A2.552,2.552,0,0,1,191.072,1.7h-1.75a2.547,2.547,0,0,1-1.428,2.843,2.439,2.439,0,0,1-3.008-.99L183.6,4.835a2.446,2.446,0,0,1,.991,3.011,2.573,2.573,0,0,1-2.841,1.435v1.752a2.519,2.519,0,0,1,2.84,1.416,2.446,2.446,0,0,1-.99,3.009l1.265,1.3a2.486,2.486,0,0,1,3.036-1,2.548,2.548,0,0,1,1.422,2.843,6.912,6.912,0,0,0,1.76-.042" transform="translate(-149.578 0)" fill="#19538d"/>
        <path id="Trazado_1285451" data-name="Trazado 1285451" d="M77.776,80.053a5.44,5.44,0,0,1,.037,1.7l-21.127,0,0,12.663-1.7.008L55,77.511A2.442,2.442,0,0,1,57.377,75l17.907-.025,0,1.7-17.728,0a.82.82,0,0,0-.855.841l.006,2.55Z" transform="translate(-45.686 -62.283)" fill="#19538d"/>
        <path id="Trazado_1285452" data-name="Trazado 1285452" d="M70.563,90.071a.811.811,0,0,1,1.106.416.839.839,0,1,1-1.106-.416" transform="translate(-58.21 -74.76)" fill="#19538d"/>
        <path id="Trazado_1285453" data-name="Trazado 1285453" d="M85.563,90.071a.811.811,0,0,1,1.106.416.839.839,0,1,1-1.106-.416" transform="translate(-70.671 -74.76)" fill="#19538d"/>
        <path id="Trazado_1285454" data-name="Trazado 1285454" d="M100.563,90.071a.811.811,0,0,1,1.106.416.839.839,0,1,1-1.106-.416" transform="translate(-83.132 -74.76)" fill="#19538d"/>
        <path id="Trazado_1285455" data-name="Trazado 1285455" d="M61.733,216.645l-1.69.013v-1.689l1.681,0Z" transform="translate(-49.879 -178.585)" fill="#19538d"/>
        <path id="Trazado_1285456" data-name="Trazado 1285456" d="M76.733,216.645l-1.69.013v-1.689l1.681,0Z" transform="translate(-62.341 -178.585)" fill="#19538d"/>
        <path id="Trazado_1285457" data-name="Trazado 1285457" d="M15.563,215.071a.811.811,0,0,1,1.106.416.839.839,0,1,1-1.106-.416" transform="translate(-12.518 -178.604)" fill="#19538d"/>
        <path id="Trazado_1285458" data-name="Trazado 1285458" d="M61.733,246.645l-1.69.013v-1.689l1.681,0Z" transform="translate(-49.879 -203.508)" fill="#19538d"/>
        <path id="Trazado_1285459" data-name="Trazado 1285459" d="M76.733,246.645l-1.69.013v-1.689l1.681,0Z" transform="translate(-62.341 -203.508)" fill="#19538d"/>
        <path id="Trazado_1285460" data-name="Trazado 1285460" d="M15.563,245.071a.811.811,0,0,1,1.106.416.839.839,0,1,1-1.106-.416" transform="translate(-12.518 -203.527)" fill="#19538d"/>
        <path id="Trazado_1285461" data-name="Trazado 1285461" d="M61.733,276.645l-1.69.013v-1.689l1.681,0Z" transform="translate(-49.879 -228.431)" fill="#19538d"/>
        <path id="Trazado_1285462" data-name="Trazado 1285462" d="M76.733,276.645l-1.69.013v-1.689l1.681,0Z" transform="translate(-62.341 -228.431)" fill="#19538d"/>
        <path id="Trazado_1285463" data-name="Trazado 1285463" d="M15.563,275.071a.811.811,0,0,1,1.106.416.839.839,0,1,1-1.106-.416" transform="translate(-12.518 -228.45)" fill="#19538d"/>
        <path id="Trazado_1285464" data-name="Trazado 1285464" d="M222.737,40.075a3.379,3.379,0,1,1-2.592,4.124,3.352,3.352,0,0,1,2.592-4.124m.175,1.7a1.681,1.681,0,1,0,1.018,3.2,1.707,1.707,0,0,0,1.105-2.114,1.667,1.667,0,0,0-2.123-1.09" transform="translate(-182.804 -33.231)" fill="#19538d"/>
      </g>
    </g>
  </g>
</svg>
