<svg xmlns="http://www.w3.org/2000/svg" xmlns:xlink="http://www.w3.org/1999/xlink" width="96" height="96" viewBox="0 0 96 96">
  <defs>
    <clipPath id="clip-path">
      <rect id="Rectángulo_465530" data-name="Rectángulo 465530" width="47.203" height="55.322" fill="#19538d"/>
    </clipPath>
  </defs>
  <g id="Grupo_1212716" data-name="Grupo 1212716" transform="translate(-383.67 -8399.924)">
    <circle id="Elipse_13890" data-name="Elipse 13890" cx="48" cy="48" r="48" transform="translate(383.67 8399.924)" fill="#5a9ad7"/>
    <path id="Intersección_1" data-name="Intersección 1" d="M0,47.89A47.893,47.893,0,0,1,79.511,11.92L1.1,58.131A48,48,0,0,1,0,47.89Z" transform="translate(383.779 8400.031)" fill="#19538d"/>
    <path id="Trazado_1032916" data-name="Trazado 1032916" d="M40,0A40,40,0,1,1,0,40,40,40,0,0,1,40,0Z" transform="translate(391.67 8407.924)" fill="#e6f3ff"/>
    <g id="Grupo_1212717" data-name="Grupo 1212717" transform="translate(408.068 8420.263)">
      <g id="Grupo_1212602" data-name="Grupo 1212602" clip-path="url(#clip-path)">
        <path id="Trazado_1285465" data-name="Trazado 1285465" d="M11.095,49.42,7.926,54.845a1.067,1.067,0,0,1-1.051.465,1.14,1.14,0,0,1-.956-.745L4.741,51.324l-3.362.607A1.149,1.149,0,0,1,.3,51.58a1.112,1.112,0,0,1-.179-1.249L3.739,44a3.79,3.79,0,0,1-2.182-5.416,1.178,1.178,0,0,0,0-1.377A3.746,3.746,0,0,1,3.294,32a.991.991,0,0,0,.74-1.044,3.776,3.776,0,0,1,4.729-3.2c.116.093.734,0,.734-.191L9.56,6.485A3.576,3.576,0,0,1,11.1,4.021a13.943,13.943,0,0,1,5.181-2.479,48.286,48.286,0,0,1,24.105-.027,14.619,14.619,0,0,1,4.911,2.238c.8.6,1.91,1.584,1.909,2.75L47.2,36.835c0,1.354-1.3,2.4-2.3,3.052C39.613,43.335,29.228,43.76,22.8,43.081a6.572,6.572,0,0,1-1.523.952l3.552,6.186a1.147,1.147,0,0,1-.057,1.236,1.215,1.215,0,0,1-1.283.461l-3.229-.561L19.2,54.3a1.447,1.447,0,0,1-.76.942,1.083,1.083,0,0,1-1.278-.288l-3.227-5.5a4,4,0,0,1-2.837-.029M42.281,9.861a7.775,7.775,0,0,0,2.727-1.775,1.6,1.6,0,0,0-.036-2.321,9.16,9.16,0,0,0-3.48-2.06c-7.053-2.623-19-2.632-26.07-.059-2.243.816-5.148,2.475-3.885,4.155a6.187,6.187,0,0,0,2.488,1.864c7.336,3.319,20.834,3.325,28.257.2M43.7,19c.663-.556,1.724-1.076,1.733-1.958l.072-6.993a18.513,18.513,0,0,1-6.31,2.648,48.892,48.892,0,0,1-20.893.171,20.021,20.021,0,0,1-7.033-2.791l.055,6.982c.007.868,1.01,1.367,1.621,1.842a19.5,19.5,0,0,0,5.734,2.1A47.535,47.535,0,0,0,38.115,21,21.524,21.524,0,0,0,43.7,19M16.487,27.713a3.8,3.8,0,0,1,4.524,3.564,47.991,47.991,0,0,0,17.046-.448,20.615,20.615,0,0,0,5.423-1.9c.677-.492,1.916-1.048,1.928-2l.095-7.066A18.092,18.092,0,0,1,39.264,22.5a48.6,48.6,0,0,1-22.022-.046,18.366,18.366,0,0,1-5.965-2.574L11.263,26.3a3.7,3.7,0,0,1,4.073,1.122c.3.373.638.389,1.151.292m.076,18.642a2.1,2.1,0,0,0,1.962-.419c1.174-1,.312-2.827,2.234-3.592a2.169,2.169,0,0,0,1.325-1.412c.436-1.5-1.373-2.493-.335-4.207a2.171,2.171,0,0,0,.29-1.988c-.531-1.493-2.634-1.226-2.746-3.27a2.084,2.084,0,0,0-2.415-2.043,2.621,2.621,0,0,1-2.758-.791,2,2,0,0,0-3.056-.158c-1.755,1.971-3.038.3-4.5,1.292-1.267.865-.376,2.961-2.313,3.689a2.113,2.113,0,0,0-1.291,1.26c-.573,1.685,1.411,2.575.18,4.58a2.051,2.051,0,0,0,.985,2.99c2.129.859,1.2,2.83,2.339,3.677,1.443,1.069,3.013-.469,4.419,1.2a2.094,2.094,0,0,0,1.7.81c1.5-.039,1.861-2.111,3.971-1.619m7.245-4.924a49.4,49.4,0,0,0,14.046-.723,19.716,19.716,0,0,0,5.991-2.2c.632-.444,1.586-.987,1.593-1.848L45.5,29.7a18.345,18.345,0,0,1-6.016,2.562,48.314,48.314,0,0,1-16.147,1.047,4,4,0,0,1,.051,4,.9.9,0,0,0-.066,1.056,4.076,4.076,0,0,1,.486,3.059M7.138,52.781l2.434-4.337c.16-.284-.55-.479-.8-.41A3.806,3.806,0,0,1,4.492,46.28L2.365,49.92,5.048,49.5a.908.908,0,0,1,1.064.541Zm11.789-2.84a.918.918,0,0,1,1.045-.431l2.68.462-2.13-3.71a3.88,3.88,0,0,1-4.392,1.764c-.254-.067-.848.172-.707.422l2.42,4.28Z" transform="translate(0 0)" fill="#19538d"/>
        <path id="Trazado_1285466" data-name="Trazado 1285466" d="M154.106,100.021l-2.706.014a.881.881,0,1,1,0-1.753l2.607.009a.86.86,0,0,1,.925.779.822.822,0,0,1-.827.951" transform="translate(-124.313 -81.219)" fill="#19538d"/>
        <path id="Trazado_1285467" data-name="Trazado 1285467" d="M154.05,156.825l-2.826,0a.871.871,0,0,1-.834-.769.808.808,0,0,1,.8-.943l2.966,0a.8.8,0,0,1,.744.807.887.887,0,0,1-.845.9" transform="translate(-124.274 -128.186)" fill="#19538d"/>
        <path id="Trazado_1285468" data-name="Trazado 1285468" d="M153.979,213.455l-2.781-.017a.892.892,0,0,1-.815-.812c-.023-.35.236-.877.7-.876l3.181.008c.48,0,.662.53.635.867a.871.871,0,0,1-.915.831" transform="translate(-124.273 -174.987)" fill="#19538d"/>
        <path id="Trazado_1285469" data-name="Trazado 1285469" d="M36.578,175.881a7.37,7.37,0,1,1-7.031,7.71,7.375,7.375,0,0,1,7.031-7.71M35.524,177.8a5.622,5.622,0,1,0,6.847,4.069,5.591,5.591,0,0,0-6.847-4.069" transform="translate(-24.411 -145.339)" fill="#19538d"/>
        <path id="Trazado_1285470" data-name="Trazado 1285470" d="M52.636,207.73l-2.271-2.156a.838.838,0,0,1-.088-1.068.815.815,0,0,1,1.095-.291,12.511,12.511,0,0,1,1.7,1.558l3.183-3.183a.844.844,0,0,1,1.169-.006.813.813,0,0,1,.122,1.12L53.7,207.652a.807.807,0,0,1-1.06.078" transform="translate(-41.424 -167.219)" fill="#19538d"/>
      </g>
    </g>
  </g>
</svg>
