<svg xmlns="http://www.w3.org/2000/svg" xmlns:xlink="http://www.w3.org/1999/xlink" width="150" height="150" viewBox="0 0 150 150">
  <defs>
    <clipPath id="clip-path">
      <rect id="Rectángulo_465534" data-name="Rectángulo 465534" width="74.245" height="74.272" fill="#12263f"/>
    </clipPath>
  </defs>
  <g id="Grupo_1188432" data-name="Grupo 1188432" transform="translate(-185.738 -9253.601)">
    <g id="Grupo_1188415" data-name="Grupo 1188415" transform="translate(185.738 9253.602)">
      <circle id="Elipse_13890" data-name="Elipse 13890" cx="75" cy="75" r="75" transform="translate(150 150) rotate(180)" fill="#4dd0e1"/>
      <path id="Intersección_3" data-name="Intersección 3" d="M0,70.769,123.344,0a74.749,74.749,0,0,1-73.06,90.233A74.419,74.419,0,0,1,0,70.769Z" transform="translate(24.681 59.414)" fill="#1e535a"/>
      <circle id="Elipse_13891" data-name="Elipse 13891" cx="62.637" cy="62.637" r="62.637" transform="translate(137.638 137.608) rotate(180)" fill="#d5f4f8"/>
      <path id="Intersección_2" data-name="Intersección 2" d="M0,62.677a62.641,62.641,0,0,1,124.648-8.925L24.091,112.08A62.59,62.59,0,0,1,0,62.677Z" transform="translate(12.364 12.333)" fill="#fff"/>
      <g id="Grupo_1212722" data-name="Grupo 1212722" transform="translate(37.566 37.572)">
        <g id="Grupo_1212610" data-name="Grupo 1212610" clip-path="url(#clip-path)">
          <path id="Trazado_1285494" data-name="Trazado 1285494" d="M74.245,64.571a3.553,3.553,0,0,1-3.6,3.7l-9.581,0a3.536,3.536,0,0,1-3.587-3.584l-.006-5.99-4.78,0-.045,9.8c-.013,2.733-4.383,4.445-7.433,5.016a43.543,43.543,0,0,1-16.169,0c-3.068-.583-7.447-2.265-7.46-5.017l-.044-9.8-4.781,0-.006,5.99a3.536,3.536,0,0,1-3.587,3.584H3.585A3.536,3.536,0,0,1,0,64.674V50.3a3.53,3.53,0,0,1,3.579-3.58l9.6,0a3.531,3.531,0,0,1,3.58,3.571l.006,6.011,4.787,0,.013-9.595c0-2.916,4.016-4.523,7.134-5.134l.026-3.233-13.155,0-.008-7.189H3.587A3.566,3.566,0,0,1,0,27.538V3.606A3.455,3.455,0,0,1,3.365.047L29.682,0A3.585,3.585,0,0,1,33.52,3.618l0,23.92a3.532,3.532,0,0,1-3.587,3.606l-11.972.014,0,4.8,13.159-.012.022,5.153a50.564,50.564,0,0,1,11.946,0l.021-5.15,13.159.012,0-4.8L44.3,31.144a3.533,3.533,0,0,1-3.587-3.6V3.606A3.456,3.456,0,0,1,44.082.047L70.4,0a3.585,3.585,0,0,1,3.838,3.618l0,23.917a3.567,3.567,0,0,1-3.587,3.619H58.679l-.008,7.181-13.155,0-.018,3.2c3.2.724,7.2,2.11,7.2,5.406L52.684,56.3l4.792,0,0-6.011a3.53,3.53,0,0,1,3.581-3.57h9.6A3.529,3.529,0,0,1,74.238,50.3ZM31.122,9.6l.01-6a1.241,1.241,0,0,0-1.016-1.19l-26.712,0a1.193,1.193,0,0,0-1,1.191l0,6ZM70.709,28.762a1.225,1.225,0,0,0,1.135-1.242V3.629a1.212,1.212,0,0,0-1.01-1.216l-26.714,0a1.207,1.207,0,0,0-1.01,1.214V27.521a1.226,1.226,0,0,0,1.227,1.239Zm-40.717,0a1.222,1.222,0,0,0,1.132-1.231L31.134,12H2.388V27.531a1.248,1.248,0,0,0,1.233,1.23ZM49.746,47.627c1.8-1.226-1.26-2.982-4.222-3.622l-.03,2.694-2.388.01-.069-3.227a47.862,47.862,0,0,0-11.891.029l-.02,3.186-2.38.016-.03-2.707c-2.028.487-4.868,1.6-4.715,2.79.43,3.347,18.852,5.537,25.746.83M13.261,65.88a1.235,1.235,0,0,0,1.1-1.223V50.319a1.192,1.192,0,0,0-1.2-1.206l-9.568,0a1.188,1.188,0,0,0-1.2,1.2L2.388,64.657A1.243,1.243,0,0,0,3.6,65.879Zm57.482,0a1.235,1.235,0,0,0,1.1-1.223V50.319a1.192,1.192,0,0,0-1.2-1.206l-9.568,0a1.188,1.188,0,0,0-1.2,1.2l-.008,14.338a1.243,1.243,0,0,0,1.213,1.222ZM48.829,55.451c.65-.427,1.427-.838,1.428-1.57l.006-3.688c-5.73,2.979-14.681,2.954-21.049,1.816A18.333,18.333,0,0,1,23.986,50.2l-.05,3.232a1.746,1.746,0,0,0,.822,1.587c4.321,2.58,11.029,2.7,16.191,2.314a22.11,22.11,0,0,0,7.88-1.877m0,7.185c.65-.427,1.427-.838,1.428-1.57l.006-3.688c-5.73,2.979-14.681,2.954-21.049,1.816a18.333,18.333,0,0,1-5.227-1.813l-.05,3.232a1.746,1.746,0,0,0,.822,1.587c4.321,2.58,11.029,2.7,16.191,2.314a22.111,22.111,0,0,0,7.88-1.877m.725,6.718A1.8,1.8,0,0,0,50.3,67.8l-.048-3.235a18.123,18.123,0,0,1-5.232,1.814c-6.352,1.142-15.333,1.163-21.035-1.812L23.935,67.8a1.814,1.814,0,0,0,.972,1.689c5.154,2.892,13.993,2.767,19.86,1.682a14.5,14.5,0,0,0,4.786-1.814" transform="translate(0 0)" fill="#12263f"/>
          <path id="Trazado_1285495" data-name="Trazado 1285495" d="M216.532,32.022l-21.488.007-.021-2.4,2.386-.006V22.436l4.779.009.023-2.408h7.169l.008,4.8,4.784-.009,0,4.793h2.382ZM207,29.575l-.013-7.133-2.4,0v7.164Zm-4.787.017-.017-4.755-2.4,0v4.772Zm9.568.024-.016-2.389-2.379,0,0,2.391Z" transform="translate(-148.313 -15.238)" fill="#12263f"/>
          <path id="Trazado_1285496" data-name="Trazado 1285496" d="M216.59,102.469l-21.486.007,0-2.4h21.5Z" transform="translate(-148.372 -76.105)" fill="#12263f"/>
          <path id="Trazado_1285497" data-name="Trazado 1285497" d="M239.395,82.458l-14.315.009,0-2.4H239.4Z" transform="translate(-171.169 -60.886)" fill="#12263f"/>
          <path id="Trazado_1285498" data-name="Trazado 1285498" d="M199.8,82.416l-4.768.014V80.021H199.8Z" transform="translate(-148.323 -60.855)" fill="#12263f"/>
          <path id="Trazado_1285499" data-name="Trazado 1285499" d="M59.192,102.466l-19.1.007,0-2.4H59.2Z" transform="translate(-30.491 -76.103)" fill="#12263f"/>
          <path id="Trazado_1285500" data-name="Trazado 1285500" d="M27.169,67.2l-7.194.034v-7.2h7.187Zm-2.4-2.377-.016-2.389-2.379,0,0,2.391Z" transform="translate(-15.191 -45.66)" fill="#12263f"/>
          <path id="Trazado_1285501" data-name="Trazado 1285501" d="M74.395,82.458l-14.315.009,0-2.4H74.4Z" transform="translate(-45.688 -60.886)" fill="#12263f"/>
          <path id="Trazado_1285502" data-name="Trazado 1285502" d="M74.395,62.458l-14.315.009,0-2.4H74.4Z" transform="translate(-45.688 -45.676)" fill="#12263f"/>
          <path id="Trazado_1285503" data-name="Trazado 1285503" d="M22.407,102.416l-2.392.019,0-2.391,2.378,0Z" transform="translate(-15.22 -76.081)" fill="#12263f"/>
          <path id="Trazado_1285504" data-name="Trazado 1285504" d="M22.407,22.416l-2.392.019,0-2.391,2.378,0Z" transform="translate(-15.22 -15.242)" fill="#12263f"/>
          <path id="Trazado_1285505" data-name="Trazado 1285505" d="M42.407,22.416l-2.392.019,0-2.391,2.378,0Z" transform="translate(-30.429 -15.242)" fill="#12263f"/>
          <path id="Trazado_1285506" data-name="Trazado 1285506" d="M62.407,22.416l-2.392.019,0-2.391,2.378,0Z" transform="translate(-45.639 -15.242)" fill="#12263f"/>
          <path id="Trazado_1285507" data-name="Trazado 1285507" d="M267.2,217.432l-7.151.013v-2.409H267.2Z" transform="translate(-197.765 -163.533)" fill="#12263f"/>
          <path id="Trazado_1285508" data-name="Trazado 1285508" d="M267.2,237.432l-7.151.013v-2.409H267.2Z" transform="translate(-197.765 -178.743)" fill="#12263f"/>
          <path id="Trazado_1285509" data-name="Trazado 1285509" d="M267.2,257.432l-7.151.013v-2.409H267.2Z" transform="translate(-197.765 -193.952)" fill="#12263f"/>
          <path id="Trazado_1285510" data-name="Trazado 1285510" d="M27.2,217.432l-7.151.013v-2.409H27.2Z" transform="translate(-15.248 -163.533)" fill="#12263f"/>
          <path id="Trazado_1285511" data-name="Trazado 1285511" d="M27.2,237.432l-7.151.013v-2.409H27.2Z" transform="translate(-15.248 -178.743)" fill="#12263f"/>
          <path id="Trazado_1285512" data-name="Trazado 1285512" d="M27.2,257.432l-7.151.013v-2.409H27.2Z" transform="translate(-15.248 -193.952)" fill="#12263f"/>
        </g>
      </g>
    </g>
  </g>
</svg>
