<svg xmlns="http://www.w3.org/2000/svg" xmlns:xlink="http://www.w3.org/1999/xlink" width="84" height="84" viewBox="0 0 84 84">
  <defs>
    <clipPath id="clip-path">
      <rect id="Rectángulo_464968" data-name="Rectángulo 464968" width="63.072" height="62.922" fill="#12263f"/>
    </clipPath>
  </defs>
  <g id="Grupo_1212664" data-name="Grupo 1212664" transform="translate(-705.711 -10034)">
    <g id="Grupo_1188445" data-name="Grupo 1188445" transform="translate(0.082 8346)">
      <g id="Grupo_1185067" data-name="Grupo 1185067" transform="translate(18054.111 2549.378)">
        <path id="Trazado_997620" data-name="Trazado 997620" d="M133.124,646.71a15.477,15.477,0,1,0-14.332-.01" transform="translate(-17432.65 -1458.182)" fill="#fff" stroke="#000" stroke-miterlimit="10" stroke-width="2"/>
        <rect id="Rectángulo_454823" data-name="Rectángulo 454823" width="14.333" height="4.288" transform="translate(-17313.857 -811.485)" fill="#fff" stroke="#000" stroke-miterlimit="10" stroke-width="2"/>
        <rect id="Rectángulo_454824" data-name="Rectángulo 454824" width="14.333" height="4.288" transform="translate(-17313.857 -807.197)" fill="#fff" stroke="#000" stroke-miterlimit="10" stroke-width="2"/>
        <path id="Trazado_997621" data-name="Trazado 997621" d="M135.492,688.628h-6.283a4.025,4.025,0,0,1-4.025-4.025v-.263h14.333v.263A4.025,4.025,0,0,1,135.492,688.628Z" transform="translate(-17439.041 -1487.249)" fill="#fff" stroke="#000" stroke-miterlimit="10" stroke-width="2"/>
        <line id="Línea_3231" data-name="Línea 3231" y1="7.578" transform="translate(-17306.686 -853.378)" fill="none" stroke="#000" stroke-miterlimit="10" stroke-width="2"/>
        <line id="Línea_3232" data-name="Línea 3232" x1="4.454" y1="6.13" transform="translate(-17323.246 -847.991)" fill="none" stroke="#000" stroke-miterlimit="10" stroke-width="2"/>
        <line id="Línea_3233" data-name="Línea 3233" x1="7.2" y1="2.336" transform="translate(-17333.482 -833.901)" fill="none" stroke="#000" stroke-miterlimit="10" stroke-width="2"/>
        <line id="Línea_3234" data-name="Línea 3234" x1="7.2" y2="2.341" transform="translate(-17333.482 -818.828)" fill="none" stroke="#000" stroke-miterlimit="10" stroke-width="2"/>
        <line id="Línea_3235" data-name="Línea 3235" x1="7.2" y1="2.341" transform="translate(-17287.084 -818.828)" fill="none" stroke="#000" stroke-miterlimit="10" stroke-width="2"/>
        <line id="Línea_3236" data-name="Línea 3236" x1="7.2" y2="2.336" transform="translate(-17287.084 -833.901)" fill="none" stroke="#000" stroke-miterlimit="10" stroke-width="2"/>
        <line id="Línea_3237" data-name="Línea 3237" x1="4.454" y2="6.125" transform="translate(-17294.572 -847.991)" fill="none" stroke="#000" stroke-miterlimit="10" stroke-width="2"/>
        <path id="Trazado_997622" data-name="Trazado 997622" d="M119,638.208a10.647,10.647,0,0,1,4.484-8.693" transform="translate(-17436.35 -1463.403)" fill="#fff" stroke="#000" stroke-miterlimit="10" stroke-width="2"/>
        <line id="Línea_3238" data-name="Línea 3238" y2="8.634" transform="translate(-17306.686 -820.12)" fill="none" stroke="#000" stroke-miterlimit="10" stroke-width="2"/>
        <path id="Trazado_997623" data-name="Trazado 997623" d="M133.157,647.74l2.669,3.47,3-3.47" transform="translate(-17442.51 -1471.329)" fill="#fff" stroke="#000" stroke-miterlimit="10" stroke-width="2"/>
        <path id="Trazado_997624" data-name="Trazado 997624" d="M132.431,691.931a3.07,3.07,0,1,0,6.14,0" transform="translate(-17442.193 -1490.551)" fill="#fff" stroke="#000" stroke-miterlimit="10" stroke-width="2"/>
      </g>
      <rect id="Rectángulo_459857" data-name="Rectángulo 459857" width="84" height="84" transform="translate(705.629 1688)" fill="#fff"/>
    </g>
    <g id="Grupo_1212663" data-name="Grupo 1212663" transform="translate(717.174 10045.539)">
      <rect id="Rectángulo_464967" data-name="Rectángulo 464967" width="31.691" height="1.815" transform="translate(15.735 20.903)" fill="#12263f"/>
      <g id="Grupo_1212062" data-name="Grupo 1212062">
        <g id="Grupo_1212061" data-name="Grupo 1212061" clip-path="url(#clip-path)">
          <path id="Trazado_1284040" data-name="Trazado 1284040" d="M107.845,73.3,78.1,73.3a.884.884,0,1,1,.038-1.763h29.694c.663,0,1.015.335,1.018.857,0,.539-.312.909-1,.909" transform="translate(-61.436 -56.949)" fill="#12263f"/>
          <path id="Trazado_1284041" data-name="Trazado 1284041" d="M107.82,135.245H78.1a.92.92,0,0,1-.945-.789.89.89,0,0,1,.8-.977l29.85-.013c.673,0,1.018.372,1.024.868.006.562-.307.912-1.006.912" transform="translate(-61.416 -106.247)" fill="#12263f"/>
          <path id="Trazado_1284042" data-name="Trazado 1284042" d="M93.02,42.171l-14.953.015a.963.963,0,0,1-.919-.8.907.907,0,0,1,.786-.984l14.995-.022a.936.936,0,0,1,.924.764.869.869,0,0,1-.833,1.032" transform="translate(-61.409 -32.142)" fill="#12263f"/>
          <path id="Trazado_1284043" data-name="Trazado 1284043" d="M187.538,178.823a7.987,7.987,0,1,1-7.987-7.987,7.987,7.987,0,0,1,7.987,7.987m-1.788,0a6.2,6.2,0,1,0-6.2,6.2,6.2,6.2,0,0,0,6.2-6.2" transform="translate(-136.576 -135.997)" fill="#12263f"/>
          <path id="Trazado_1284044" data-name="Trazado 1284044" d="M48.864,51.964A10.886,10.886,0,0,1,34.8,50l-9.572-.014-.069,8.573c-.008,1-.919,1.665-1.659,2.189-4.938,2.926-16.948,2.877-21.747.012-.693-.414-1.715-1.18-1.717-2.118L0,35.566A2.756,2.756,0,0,1,1.184,33.5c2.627-1.914,7.034-2.386,10.452-2.524L11.659.78c0-.532.432-.765.924-.78l30.6.006,8.306,8.277.029,27.829a10.882,10.882,0,0,1,.623,12.541,8.14,8.14,0,0,0,1.456,1.51,2.491,2.491,0,0,1,1.753.486L62.3,57.562a2.2,2.2,0,0,1,.157,3.19l-1.405,1.421a2.278,2.278,0,0,1-3.342-.013L51.09,55.548c-1.594-1.592.413-1.37-2.226-3.584m.828-17.756.016-24.591-6.929-.038a.875.875,0,0,1-.856-.972L41.88,1.735l-28.443,0-.018,29.256a24.7,24.7,0,0,1,9.13,1.66,4.476,4.476,0,0,1,2.635,2.49L25.223,48.2l8.247-.089A10.848,10.848,0,0,1,36.05,34.46a11.049,11.049,0,0,1,13.641-.252M48.3,7.683,43.765,3.046a33.193,33.193,0,0,0-.036,4.75A36.561,36.561,0,0,0,48.3,7.683M22.911,36.29c1.956-1.278-2.581-2.615-3.451-2.8a32.551,32.551,0,0,0-13.606-.032c-.969.2-4.079,1.148-4.031,2.16.055,1.153,3.921,2.126,5.109,2.327,4.423.747,12.163.841,15.979-1.652m29.142,6.535A9.079,9.079,0,1,0,42.975,51.9a9.078,9.078,0,0,0,9.078-9.079M23.391,38.148c-5.466,2.767-16.156,2.765-21.615,0a41.2,41.2,0,0,0,.117,5.25c.363.713,1.484,1.113,2.238,1.379,4.661,1.647,12.736,1.648,17.344-.161,2.987-1.172,1.682-2.1,1.917-6.464M23.206,50.9c.573-1.753.007-3.472.2-5.172-5.4,2.725-16.274,2.742-21.638-.012.138,1.774-.25,3.52.145,5.252C2.5,51.9,4.047,52.4,5.2,52.684a30.621,30.621,0,0,0,14.748.009c1.055-.261,2.92-.746,3.261-1.791m27.8-.746-.709.712L51.337,51.9l.709-.712Zm2.966,1.6-2.059,2.061,7.477,7.469,2.058-2.061ZM23.222,58.452c.531-1.765,0-3.461.192-5.14-5.739,2.764-16.056,2.719-21.638,0,.144,1.873-.288,3.542.156,5.212.506.954,2.149,1.465,3.28,1.742a30.613,30.613,0,0,0,14.915-.047c1.006-.257,2.789-.747,3.1-1.763" transform="translate(0)" fill="#12263f"/>
          <path id="Trazado_1284045" data-name="Trazado 1284045" d="M22.971,277a1.136,1.136,0,1,1-1.136-1.136A1.136,1.136,0,0,1,22.971,277" transform="translate(-16.479 -219.608)" fill="#12263f"/>
          <path id="Trazado_1284046" data-name="Trazado 1284046" d="M22.973,203.064a1.135,1.135,0,1,1-1.135-1.135,1.136,1.136,0,0,1,1.135,1.135" transform="translate(-16.48 -160.748)" fill="#12263f"/>
          <path id="Trazado_1284047" data-name="Trazado 1284047" d="M22.968,240.016a1.137,1.137,0,1,1-1.137-1.137,1.136,1.136,0,0,1,1.137,1.137" transform="translate(-16.475 -190.164)" fill="#12263f"/>
        </g>
      </g>
    </g>
  </g>
</svg>
