<svg xmlns="http://www.w3.org/2000/svg" xmlns:xlink="http://www.w3.org/1999/xlink" width="128" height="128" viewBox="0 0 128 128">
  <defs>
    <clipPath id="clip-path">
      <rect id="Rectángulo_465536" data-name="Rectángulo 465536" width="58.336" height="58.159" fill="#19538d"/>
    </clipPath>
  </defs>
  <g id="Grupo_1212735" data-name="Grupo 1212735" transform="translate(-383.746 -8400)">
    <circle id="Elipse_13890" data-name="Elipse 13890" cx="64" cy="64" r="64" transform="translate(383.746 8400)" fill="#5a9ad7"/>
    <path id="Intersección_1" data-name="Intersección 1" d="M23204.689,11774.869a64,64,0,0,1,106.254-48.067l-104.787,61.753A64.213,64.213,0,0,1,23204.689,11774.869Z" transform="translate(-22820.941 -3310.872)" fill="#19538d"/>
    <circle id="Elipse_13891" data-name="Elipse 13891" cx="54" cy="54" r="54" transform="translate(393.746 8410)" fill="#fff"/>
    <g id="Grupo_1212742" data-name="Grupo 1212742" transform="translate(418.578 8434.921)">
      <g id="Grupo_1212614" data-name="Grupo 1212614" clip-path="url(#clip-path)">
        <path id="Trazado_1285522" data-name="Trazado 1285522" d="M7.762,185.393c0-1.123.755-2.287,1.818-2.285l5,.008c.6,0,1.022.707,1.43,1.085,2.007-.668,3.66-1.612,5.558-2.443A19.039,19.039,0,0,1,32.826,180.4a16.85,16.85,0,0,1,6.316,2.9,5.264,5.264,0,0,1,1.682,2.739,9.863,9.863,0,0,0,4.114-.643,35.961,35.961,0,0,0,11.579-6.127,3.472,3.472,0,0,1,4.578-.291,3.785,3.785,0,0,1,1.328,3.369A4.36,4.36,0,0,1,60.51,185.3a127.316,127.316,0,0,1-15.72,10.814,15.735,15.735,0,0,1-6.861,2.209c-7.445.556-14.278-.433-21.72-.3a2.332,2.332,0,0,1-2.39,2.466h-3.65a2.3,2.3,0,0,1-2.4-2.3Zm25.225-3.133a17.645,17.645,0,0,0-12.009,1.712c-1.61.825-3.12,1.442-4.789,2.117l0,10.124c7.014-.162,13.851.923,20.774.387a14.419,14.419,0,0,0,7.169-2.141A125.725,125.725,0,0,0,59.9,183.481a2.032,2.032,0,0,0,.652-2.354c-.21-.613-1.374-1.573-2.159-.971-4.957,3.8-11.823,7.671-18.159,7.763-3.321,4.262-7.283-1.514-12.558.155a.884.884,0,1,1-.5-1.694c4.97-1.61,8.406,2.075,10.884,1.193a1.447,1.447,0,0,0,.871-1.193c.116-1.8-3.92-3.653-5.944-4.12M14.4,198.665l0-13.8-4.826-.01.03,13.833Z" transform="translate(-6.198 -142.331)" fill="#19538d"/>
        <path id="Trazado_1285523" data-name="Trazado 1285523" d="M21.773,32.27l-2.93,2.993a.973.973,0,0,1-1.424-.082l-2.877-2.956c-.259-.266-.082-.83.1-1.04a.869.869,0,0,1,1.091-.162l1.5,1.343.049-5.485-9.061-.012a.782.782,0,0,1-.743-.848L7.452,20.61l-4.689.013A2.627,2.627,0,0,1,0,17.978L.016,2.506A2.522,2.522,0,0,1,2.557,0l9.121.007,4.982,4.956.018,13.028a2.564,2.564,0,0,1-2.613,2.616l-4.844,0,.007,4.5,8.981.032a.88.88,0,0,1,.84.9l.025,6.318,1.312-1.193a.978.978,0,0,1,1.118-.167.864.864,0,0,1,.268,1.26M14.921,17.878,14.912,6.286l-3.449-.033c-.428,0-.958-.323-.963-.774l-.048-3.739L2.6,1.747a.833.833,0,0,0-.827.764L1.769,17.976a.8.8,0,0,0,.807.839l11.478,0a.849.849,0,0,0,.867-.939M13.535,4.331l-1.256-1.27-.023,1.384a2.569,2.569,0,0,0,1.279-.114" transform="translate(0 -0.001)" fill="#19538d"/>
        <path id="Trazado_1285524" data-name="Trazado 1285524" d="M185.226,35.178a1,1,0,0,1-1.479.132l-2.9-2.928a.908.908,0,0,1,.121-1.242.964.964,0,0,1,1.245.078l1.3,1.2.023-6.314a.924.924,0,0,1,1-.921l8.818-.013.007-4.513h-4.847a2.561,2.561,0,0,1-2.612-2.617l.037-15.7A2.458,2.458,0,0,1,188.305.066l9.327,0,4.943,4.963.013,13.007a2.629,2.629,0,0,1-2.766,2.631l-4.686-.013-.023,5.414a.831.831,0,0,1-.936.867l-8.864,0L185.3,32.42c1.11-.585,1.609-2.007,2.539-1.289.253.2.506.821.2,1.141Zm15.6-17.151L200.793,6.26c-2.257,0-4.41.448-4.414-.914l-.012-3.558-7.8.006a.865.865,0,0,0-.9.936l.011,15.295a.821.821,0,0,0,.858.839l11.479,0a.809.809,0,0,0,.809-.835M199.46,4.385l-1.215-1.254c-.191.379-.224,1.08,0,1.279a1.436,1.436,0,0,0,1.214-.025" transform="translate(-144.252 -0.049)" fill="#19538d"/>
        <path id="Trazado_1285525" data-name="Trazado 1285525" d="M112.376,35.3a.912.912,0,0,1-1.349-.041L108.4,32.647c-.4-.4-.582-.819-.322-1.232a.881.881,0,0,1,1.375-.226l1.4,1.332,0-11.863-4.985-.013a2.549,2.549,0,0,1-2.476-2.395l-.009-15.517A2.535,2.535,0,0,1,105.874.065l9.263,0,4.893,4.9.025,13.283a2.554,2.554,0,0,1-2.486,2.39l-4.98.02V32.519l1.29-1.238a.913.913,0,0,1,1.191-.171.809.809,0,0,1,.247,1.2Zm5.917-17.227,0-11.792a26.706,26.706,0,0,1-3.637-.037.815.815,0,0,1-.79-.887L113.842,1.8l-7.729-.007a.929.929,0,0,0-.974.978l.013,15.389a.734.734,0,0,0,.731.7h11.673a.749.749,0,0,0,.737-.787m-1.33-13.6a11.983,11.983,0,0,0-1.352-1.354l.027,1.326Z" transform="translate(-82.552 -0.052)" fill="#19538d"/>
        <path id="Trazado_1285526" data-name="Trazado 1285526" d="M28.93,48.426l-6.534.04a.845.845,0,0,1-.844-.746.807.807,0,0,1,.712-.986L28.6,46.7a.923.923,0,0,1,.942.714c.077.283-.038,1-.615,1.007" transform="translate(-17.202 -37.295)" fill="#19538d"/>
        <path id="Trazado_1285527" data-name="Trazado 1285527" d="M28.764,71.867l-6.5-.006a.814.814,0,0,1-.711-1,.923.923,0,0,1,1.035-.756l6.251.038a.809.809,0,0,1,.725.878.874.874,0,0,1-.8.842" transform="translate(-17.198 -55.983)" fill="#19538d"/>
        <path id="Trazado_1285528" data-name="Trazado 1285528" d="M235.345,48.474l-6.446-.012a.791.791,0,0,1-.723-.89.906.906,0,0,1,.959-.853l6.17.007a.83.83,0,0,1,.89.822.852.852,0,0,1-.85.927" transform="translate(-182.202 -37.305)" fill="#19538d"/>
        <path id="Trazado_1285529" data-name="Trazado 1285529" d="M235.56,71.9l-6.578.023a.877.877,0,0,1-.8-.842.854.854,0,0,1,.914-.9l6.255.005a.861.861,0,0,1,.84.739c.06.312-.092.976-.634.978" transform="translate(-182.211 -56.041)" fill="#19538d"/>
        <path id="Trazado_1285530" data-name="Trazado 1285530" d="M132.008,71.9h-6.3a.862.862,0,0,1-.863-.833.872.872,0,0,1,.985-.922l6.058,0a.879.879,0,1,1,.124,1.752" transform="translate(-99.688 -56.015)" fill="#19538d"/>
        <path id="Trazado_1285531" data-name="Trazado 1285531" d="M131.859,48.634l-6.054,0a.9.9,0,0,1-.988-.762c-.047-.315.214-.968.721-.968h6.59c.506,0,.764.655.717.98a.914.914,0,0,1-.985.746" transform="translate(-99.665 -37.457)" fill="#19538d"/>
      </g>
    </g>
  </g>
</svg>
