<svg xmlns="http://www.w3.org/2000/svg" xmlns:xlink="http://www.w3.org/1999/xlink" width="128" height="128" viewBox="0 0 128 128">
  <defs>
    <clipPath id="clip-path">
      <rect id="Rectángulo_465535" data-name="Rectángulo 465535" width="63.638" height="63.659" fill="#19538d"/>
    </clipPath>
  </defs>
  <g id="Grupo_1188344" data-name="Grupo 1188344" transform="translate(-383.746 -8400)">
    <circle id="Elipse_13890" data-name="Elipse 13890" cx="64" cy="64" r="64" transform="translate(383.746 8400)" fill="#5a9ad7"/>
    <path id="Intersección_1" data-name="Intersección 1" d="M23204.689,11774.869a64,64,0,0,1,106.254-48.067l-104.787,61.753A64.213,64.213,0,0,1,23204.689,11774.869Z" transform="translate(-22820.941 -3310.872)" fill="#19538d"/>
    <circle id="Elipse_13891" data-name="Elipse 13891" cx="54" cy="54" r="54" transform="translate(393.746 8410)" fill="#fff"/>
    <g id="Grupo_1212730" data-name="Grupo 1212730" transform="translate(416.107 8430.875)">
      <g id="Grupo_1212612" data-name="Grupo 1212612" clip-path="url(#clip-path)">
        <path id="Trazado_1285513" data-name="Trazado 1285513" d="M54.3,61.6a1.01,1.01,0,0,1,1.115.942,1.022,1.022,0,0,1-1.052,1.118H9.28a1.025,1.025,0,0,1-1.054-1.119c.045-.621.535-.944,1.212-.943l10.046.017.023-2.07a.99.99,0,0,1,1.023-1.014l3.357.011,1.363-4.126L4.11,54.407A4.064,4.064,0,0,1,0,50.287L0,19.522a4.046,4.046,0,0,1,4.088-4.109l7.2,0,.009-7.192A1,1,0,0,1,12.316,7.2l4.1-.005a1,1,0,0,1,1.021,1.025l.011,7.16a2.735,2.735,0,0,0,1.023-.009l0-14.329A1.006,1.006,0,0,1,19.5.013l4.1-.005a1.007,1.007,0,0,1,1.022,1.034l.006,14.327a2.6,2.6,0,0,0,1.024,0l.007-10.233a1,1,0,0,1,1.024-1.022l4.1-.011a1.033,1.033,0,0,1,1.03,1.036V15.418l12.606-.03a9.242,9.242,0,1,1,13.777.054c2.739-.45,5.4,1.07,5.406,3.878l.031,30.963A4.058,4.058,0,0,1,59.526,54.4l-21.137.01,1.363,4.125,3.357-.016a.99.99,0,0,1,1.021,1.021l.025,2.067ZM22.583,25.589l0-23.511H20.525V25.64a6.2,6.2,0,0,0,2.058-.051M50.191,8.7l.129-6.553a7.02,7.02,0,0,0-5.5,4.066,7.049,7.049,0,0,0,.78,7.326Zm8.235-.547a7.138,7.138,0,0,0-6.068-6.018L52.35,8.232ZM29.77,25.6l0-19.411H27.711V25.643A6.687,6.687,0,0,0,29.77,25.6M15.4,25.6l0-16.338H13.338V25.645A7.151,7.151,0,0,0,15.4,25.6M58.375,10.286l-6.606-.008L47.033,15a7.164,7.164,0,0,0,7.316.751,6.909,6.909,0,0,0,4.026-5.465m-20.4,8.2A1.006,1.006,0,0,1,39,19.512v7.173a1.034,1.034,0,0,1-1.056,1.041H5.166a1.034,1.034,0,0,1-1.057-1.041l0-7.176A1.006,1.006,0,0,1,5.13,18.491l4.1-.005a1,1,0,0,1,1.02,1.024l.012,6.137a3.178,3.178,0,0,0,1.024,0V17.46l-7.191,0a2.041,2.041,0,0,0-2.051,2.073l0,26.684H61.587l0-26.874A2.063,2.063,0,0,0,59.54,17.45l-4.045.036a9.241,9.241,0,0,1-8.358-.012l-15.32-.016v8.186a3.156,3.156,0,0,0,1.024,0l.01-6.138a1,1,0,0,1,1.022-1.017Zm-19.492,7.1-.013-8.11-1.027,0,0,8.163a1.636,1.636,0,0,0,1.038-.056m7.186,0-.013-8.11-1.027,0,0,8.163a1.636,1.636,0,0,0,1.038-.056m-17.449.051-.013-5.092-2.058,0v5.114Zm28.745,0-.013-5.092-2.058,0v5.114ZM59.393,52.367a2,2,0,0,0,2.163-1.856l0-2.249H2.084l-.008,2.233a1.969,1.969,0,0,0,2.067,1.874ZM37.567,58.509l-1.364-4.1-8.811.027-1.324,4.1Zm4.46,3.1a2.146,2.146,0,0,0,.013-1.03H21.594a2.461,2.461,0,0,0,0,1.03Z" transform="translate(0 0)" fill="#19538d"/>
        <path id="Trazado_1285514" data-name="Trazado 1285514" d="M42.542,157.84a2.911,2.911,0,0,1-2.92,2.49c-1.8.612-2.353-1.411-3.255-2.1l-10.508-4.663a3.138,3.138,0,0,1-3.629,1.6,3.078,3.078,0,0,1,.526-6.03,3.062,3.062,0,0,1,3.3,2.351l10.632,4.432a3.259,3.259,0,0,1,2.329-1.627,3.149,3.149,0,0,1,3.054,1.325l10.794-8.063a3.021,3.021,0,0,1,2.936-2.534,3.114,3.114,0,0,1,3.154,2.466l10.691,6.231a3.122,3.122,0,0,1,3.787-1.309,3.076,3.076,0,0,1-.994,5.943,3.119,3.119,0,0,1-3.169-2.467l-10.691-6.229a3.149,3.149,0,0,1-5.275.16Zm12.952-10.673a1.014,1.014,0,1,0,.825,1.853,1.023,1.023,0,0,0,.514-1.347,1,1,0,0,0-1.339-.507m-32.856,4.1a1.017,1.017,0,1,0,1.342.511,1,1,0,0,0-1.342-.511m49.281,3.081a1.014,1.014,0,1,0,.825,1.853,1.022,1.022,0,0,0,.514-1.347,1,1,0,0,0-1.339-.507m-32.78,2.019a1.018,1.018,0,1,0,1.268.542.99.99,0,0,0-1.268-.542" transform="translate(-15.873 -115.242)" fill="#19538d"/>
        <path id="Trazado_1285515" data-name="Trazado 1285515" d="M210.574,97.069l-3.866,3.808a1.052,1.052,0,0,1-1.407.043,1.017,1.017,0,0,1-.14-1.388l4.439-4.467,9.715-.041a1,1,0,0,1,1.016.936,1.017,1.017,0,0,1-1.018,1.112Z" transform="translate(-162.865 -75.514)" fill="#19538d"/>
        <path id="Trazado_1285516" data-name="Trazado 1285516" d="M32.332,142.11,21.07,142.1a1.02,1.02,0,0,1-1.025-.942,1,1,0,0,1,1.019-1.1l11.455.017c.592,0,.877.673.837,1.078a1.053,1.053,0,0,1-1.025.96" transform="translate(-15.927 -111.299)" fill="#19538d"/>
        <path id="Trazado_1285517" data-name="Trazado 1285517" d="M203.23,212.084l-7.165,0a1.017,1.017,0,0,1-1.021-.94,1,1,0,0,1,1.016-1.1l7.174-.006a.992.992,0,0,1,1.015.933,1.015,1.015,0,0,1-1.019,1.111" transform="translate(-154.995 -166.915)" fill="#19538d"/>
        <path id="Trazado_1285518" data-name="Trazado 1285518" d="M219.126,197.085h-3.064a1.017,1.017,0,1,1,0-2.034l3.07-.006a.986.986,0,0,1,1.014.93,1,1,0,0,1-1.016,1.109" transform="translate(-170.889 -155)" fill="#19538d"/>
        <path id="Trazado_1285519" data-name="Trazado 1285519" d="M92.6,140.051a.989.989,0,0,1,.334,1.4c-.479.722-2.436.733-2.815-.139a.976.976,0,0,1,.461-1.294,2.749,2.749,0,0,1,2.02.032" transform="translate(-71.553 -111.13)" fill="#19538d"/>
        <path id="Trazado_1285520" data-name="Trazado 1285520" d="M27.2,242.084l-6.141,0a1.014,1.014,0,0,1-1.02-.939.994.994,0,0,1,1.015-1.1l6.149-.006a.991.991,0,0,1,1.014.932,1.013,1.013,0,0,1-1.018,1.111" transform="translate(-15.925 -190.756)" fill="#19538d"/>
        <path id="Trazado_1285521" data-name="Trazado 1285521" d="M67.6,240.051a.989.989,0,0,1,.334,1.4c-.479.722-2.436.733-2.815-.139a.976.976,0,0,1,.461-1.294,2.749,2.749,0,0,1,2.02.032" transform="translate(-51.686 -190.598)" fill="#19538d"/>
      </g>
    </g>
  </g>
</svg>
