<svg xmlns="http://www.w3.org/2000/svg" xmlns:xlink="http://www.w3.org/1999/xlink" width="128" height="128" viewBox="0 0 128 128">
  <defs>
    <clipPath id="clip-path">
      <rect id="Rectángulo_465537" data-name="Rectángulo 465537" width="63.294" height="63.538" fill="#19538d"/>
    </clipPath>
  </defs>
  <g id="Grupo_1212740" data-name="Grupo 1212740" transform="translate(-383.746 -8400)">
    <circle id="Elipse_13890" data-name="Elipse 13890" cx="64" cy="64" r="64" transform="translate(383.746 8400)" fill="#5a9ad7"/>
    <path id="Intersección_1" data-name="Intersección 1" d="M23204.689,11774.869a64,64,0,0,1,106.254-48.067l-104.787,61.753A64.213,64.213,0,0,1,23204.689,11774.869Z" transform="translate(-22820.941 -3310.872)" fill="#19538d"/>
    <circle id="Elipse_13891" data-name="Elipse 13891" cx="54" cy="54" r="54" transform="translate(393.746 8410)" fill="#fff"/>
    <g id="Grupo_1212741" data-name="Grupo 1212741" transform="translate(416 8431.878)">
      <g id="Grupo_1212616" data-name="Grupo 1212616" clip-path="url(#clip-path)">
        <path id="Trazado_1285532" data-name="Trazado 1285532" d="M62.092,38.3A18.671,18.671,0,0,0,38.435,27.242l-.083-3.911a3.217,3.217,0,0,0-3.047-3.039l-21.922-.038-.006-6.409a5.578,5.578,0,0,1,1.684-4A5.948,5.948,0,0,1,19.3,8.136a5.826,5.826,0,0,1,5.741,5.908A1.126,1.126,0,0,0,26.185,15.1l5.662.02h.006a1.192,1.192,0,0,0,1.3-1.084A13.979,13.979,0,0,0,19.207,0h-.08A14.029,14.029,0,0,0,5.239,14.046l.006,6.2-2.1.021A3.283,3.283,0,0,0,.019,23.644L0,48.636a3.57,3.57,0,0,0,3.783,3.536h0l23.65-.016A18.666,18.666,0,0,0,62.092,38.3M7.487,20.24l.08-7.4a11.7,11.7,0,0,1,23.288-.017l-3.646-.012a8.079,8.079,0,0,0-16.063.706l-.07,6.735Zm28.668,7.986a18.632,18.632,0,0,0-9.522,21.681L3.791,49.93h0a1.353,1.353,0,0,1-1.534-1.306l.011-24.968A1.151,1.151,0,0,1,3.4,22.492l31.281-.019h0c.876,0,1.444.482,1.449,1.227Zm-4.148,6.121a16.3,16.3,0,0,1,11.237-5.839q.712-.06,1.418-.06A16.413,16.413,0,0,1,60.984,43.519a16.442,16.442,0,0,1-14.99,17.708q-.69.058-1.372.058A16.492,16.492,0,0,1,28.274,46.458a16.317,16.317,0,0,1,3.733-12.111" transform="translate(0 0)" fill="#19538d"/>
        <path id="Trazado_1285533" data-name="Trazado 1285533" d="M71.882,128.55a5.693,5.693,0,0,0-5.5,6.163,5.837,5.837,0,0,0,2.141,4.013l.073,6.814a2.9,2.9,0,0,0,.994,2.12,3.786,3.786,0,0,0,2.479.966q.134,0,.265-.011a3.515,3.515,0,0,0,3.252-3.572l.024-6.35a5.765,5.765,0,0,0,2.124-4.108,5.686,5.686,0,0,0-5.851-6.035M70.8,138.217a1.208,1.208,0,0,0-.545-1.042A3.442,3.442,0,0,1,71.9,130.8c.048,0,.1,0,.144,0A3.462,3.462,0,0,1,75.48,134.6a3.54,3.54,0,0,1-1.578,2.546,1.3,1.3,0,0,0-.558,1.064l-.026,6.977a1.289,1.289,0,0,1-1.174,1.192,1.333,1.333,0,0,1-.971-.339.979.979,0,0,1-.342-.725Z" transform="translate(-52.856 -102.39)" fill="#19538d"/>
        <path id="Trazado_1285534" data-name="Trazado 1285534" d="M163.364,184.908l20.939.007h.007a1.184,1.184,0,0,0,1.126-1.276,11.761,11.761,0,0,0-7.43-9.637,6.705,6.705,0,0,0,2.275-4.629,6.446,6.446,0,0,0-6.436-6.779h-.008a6.442,6.442,0,0,0-6.436,6.812,6.626,6.626,0,0,0,2.3,4.6,11.575,11.575,0,0,0-7.458,9.638,1.142,1.142,0,0,0,.277.891,1.113,1.113,0,0,0,.843.375m10.491-9.407a9.4,9.4,0,0,1,9.14,7.141l-18.295.018a9.431,9.431,0,0,1,9.091-7.158h.063m4.074-7.444a4.213,4.213,0,1,1-5.039-3.092,4.485,4.485,0,0,1,1.015-.119,4.182,4.182,0,0,1,4.024,3.211" transform="translate(-129.223 -129.508)" fill="#19538d"/>
      </g>
    </g>
  </g>
</svg>
