<svg xmlns="http://www.w3.org/2000/svg" xmlns:xlink="http://www.w3.org/1999/xlink" width="160" height="160" viewBox="0 0 160 160">
  <defs>
    <clipPath id="clip-path">
      <rect id="Rectángulo_465541" data-name="Rectángulo 465541" width="71.453" height="95.365" fill="#12263f"/>
    </clipPath>
  </defs>
  <g id="Grupo_1212773" data-name="Grupo 1212773" transform="translate(-186 -9253.863)">
    <g id="Grupo_1188415" data-name="Grupo 1188415" transform="translate(186 9253.862)">
      <circle id="Elipse_13890" data-name="Elipse 13890" cx="80" cy="80" r="80" transform="translate(160 160.001) rotate(180)" fill="#7dbfff"/>
      <path id="Intersección_3" data-name="Intersección 3" d="M0,75.841,132.185,0a80.107,80.107,0,0,1-78.3,96.7A79.753,79.753,0,0,1,0,75.841Z" transform="translate(26.074 63.298)" fill="#19538d"/>
      <ellipse id="Elipse_13891" data-name="Elipse 13891" cx="67.127" cy="67.127" rx="67.127" ry="67.127" transform="translate(147.128 147.099) rotate(180)" fill="#dfefff"/>
      <path id="Intersección_2" data-name="Intersección 2" d="M0,67.169A67.131,67.131,0,0,1,133.583,57.6L25.818,120.113A67.077,67.077,0,0,1,0,67.169Z" transform="translate(12.874 12.842)" fill="#fff"/>
      <g id="Grupo_1212774" data-name="Grupo 1212774" transform="translate(44.274 30.104)">
        <g id="Grupo_1212624" data-name="Grupo 1212624" clip-path="url(#clip-path)">
          <path id="Trazado_1285548" data-name="Trazado 1285548" d="M14.1,244.338c.545,1.736-.131,3.173-1.763,3.6l-3.814,1.006a2.394,2.394,0,0,1-2.937-1.959l-5.516-20.8a2.352,2.352,0,0,1,1.77-2.8l3.794-1.006a2.518,2.518,0,0,1,3.074,1.794l4.732-3.541a8.366,8.366,0,0,1,7.693-.8L35.7,223.8a6.365,6.365,0,0,1,4.6,4.848l13.662-7.879a5.873,5.873,0,0,1,8.16,2.14c1.659,3.073.415,6.438-2.642,8.2L36.934,244.073a9.4,9.4,0,0,1-7.032,1.078l-9.736-2.219a7.329,7.329,0,0,0-6.063,1.406m41.583-21.082-15.763,9.11a6.2,6.2,0,0,1-7.421,3.593L23.8,233.6a1.522,1.522,0,0,1-.866-2.115,1.558,1.558,0,0,1,1.913-.7l8.493,2.3a3.275,3.275,0,0,0,4.021-2.417,3.215,3.215,0,0,0-2.044-3.8l-14.753-4.1c-2.245-.624-4.314-.608-6.227.876l-4.8,3.723,3.754,13.932a9.978,9.978,0,0,1,7.464-1.3l10.475,2.36a6.194,6.194,0,0,0,4.265-.895L58.222,228.34a2.874,2.874,0,0,0,1.372-3.774,2.8,2.8,0,0,0-3.907-1.309M11.2,245.132,5.947,225.483a10.174,10.174,0,0,0-2.811.725l5.283,19.677Z" transform="translate(0 -153.669)" fill="#12263f"/>
          <path id="Trazado_1285549" data-name="Trazado 1285549" d="M128.566,117.139l-8.231.025a1.543,1.543,0,0,1-1.57-1.626l-.007-25.612a3.525,3.525,0,0,1-2.775-.708,2.283,2.283,0,0,1-.493-2.793l7-9.118a2.392,2.392,0,0,1,3.783.009l7,9.117a2.262,2.262,0,0,1-.346,2.635,3.015,3.015,0,0,1-2.929.785l-.022,25.684a1.454,1.454,0,0,1-1.408,1.6m-1.588-3.1.054-25.924c0-1.174,1.6-1.314,2.773-1.251L124.354,79.8l-5.417,7.045c1.322.034,2.25.036,2.8,1.044l.028,26.208a22.208,22.208,0,0,0,5.21-.056" transform="translate(-80.721 -53.53)" fill="#12263f"/>
          <path id="Trazado_1285550" data-name="Trazado 1285550" d="M190.981,136.908l-8.257.008a1.372,1.372,0,0,1-1.411-1.378l-.089-17.487c-1.5.2-2.508-.177-3.083-1.027a2.437,2.437,0,0,1,.181-2.9l6.495-8.446a2.558,2.558,0,0,1,2-1.106,2.415,2.415,0,0,1,2.025,1.011l6.761,8.768a2.436,2.436,0,0,1-.165,2.937c-.578.7-1.664.872-2.944.849l-.025,17.35a1.509,1.509,0,0,1-1.483,1.423m-1.508-3.112.107-17.639c.007-1.118,1.8-1.128,2.765-1.123l-5.462-7.115-5.362,7.092c1.479.029,2.276.177,2.753,1.174l.011,17.684a24.99,24.99,0,0,0,5.189-.073" transform="translate(-124.564 -73.282)" fill="#12263f"/>
          <path id="Trazado_1285551" data-name="Trazado 1285551" d="M66.482,144.852l-8.224.043a1.574,1.574,0,0,1-1.67-1.688l-.019-13.736A3.6,3.6,0,0,1,53.6,128.6a2.545,2.545,0,0,1,.013-3.146l6.647-8.6a2.339,2.339,0,0,1,2.035-.919A2.485,2.485,0,0,1,64.2,117l6.859,8.963a2.3,2.3,0,0,1-.362,2.665,3.6,3.6,0,0,1-2.929.85l-.023,14.037a1.3,1.3,0,0,1-1.267,1.338m-1.731-3.1.133-14.317c.01-1.062,1.773-1.086,2.8-.942L62.245,119.3l-5.55,7.179c.912-.171,2.753-.1,2.765.952l.165,14.439Z" transform="translate(-37.188 -81.248)" fill="#12263f"/>
          <path id="Trazado_1285552" data-name="Trazado 1285552" d="M124.606,21.929l-5.759-3.344-5.523,3.32a1.489,1.489,0,0,1-2.056-1.767l1.407-6.052-4.982-4.42a1.4,1.4,0,0,1-.194-1.5,1.38,1.38,0,0,1,1.139-.853l6.435-.617L117.5.93a1.539,1.539,0,0,1,1.4-.929,1.484,1.484,0,0,1,1.384.968l2.452,5.721,6.168.562a1.524,1.524,0,0,1,1.39.912,1.494,1.494,0,0,1-.326,1.646l-4.851,4.275,1.43,6.08a1.554,1.554,0,0,1-.293,1.339,1.413,1.413,0,0,1-1.656.423M117.67,15.76c2.026-1.185,2.817.71,5.058,1.4-.089-1.46-1.153-3.027-.514-4.356l2.862-2.8L120.8,9.447l-1.9-4c-.8,1.258-.874,3.016-1.976,3.831s-2.833.384-4.19.728c1.374,1.73,3.424,2.092,3.023,4.129l-.611,3.1Z" transform="translate(-75.246 0)" fill="#12263f"/>
        </g>
      </g>
    </g>
  </g>
</svg>
