<svg xmlns="http://www.w3.org/2000/svg" xmlns:xlink="http://www.w3.org/1999/xlink" width="150" height="150" viewBox="0 0 150 150">
  <defs>
    <clipPath id="clip-path">
      <rect id="Rectángulo_465556" data-name="Rectángulo 465556" width="75" height="72.688" fill="#12263f"/>
    </clipPath>
  </defs>
  <g id="Grupo_1188432" data-name="Grupo 1188432" transform="translate(-185.738 -9253.601)">
    <g id="Grupo_1188415" data-name="Grupo 1188415" transform="translate(185.738 9253.602)">
      <circle id="Elipse_13890" data-name="Elipse 13890" cx="75" cy="75" r="75" transform="translate(150 150) rotate(180)" fill="#4dd0e1"/>
      <path id="Intersección_3" data-name="Intersección 3" d="M0,70.769,123.344,0a74.749,74.749,0,0,1-73.06,90.233A74.419,74.419,0,0,1,0,70.769Z" transform="translate(24.681 59.414)" fill="#1e535a"/>
      <circle id="Elipse_13891" data-name="Elipse 13891" cx="62.637" cy="62.637" r="62.637" transform="translate(137.638 137.608) rotate(180)" fill="#d5f4f8"/>
      <path id="Intersección_2" data-name="Intersección 2" d="M0,62.677a62.641,62.641,0,0,1,124.648-8.925L24.091,112.08A62.59,62.59,0,0,1,0,62.677Z" transform="translate(12.364 12.333)" fill="#fff"/>
      <g id="Grupo_1212787" data-name="Grupo 1212787" transform="translate(37.501 38.656)">
        <g id="Grupo_1212653" data-name="Grupo 1212653" clip-path="url(#clip-path)">
          <path id="Trazado_1285661" data-name="Trazado 1285661" d="M55.505,72.681l-51.851.006a3.494,3.494,0,0,1-3.646-3.46L0,30.813a3.478,3.478,0,0,1,3.584-3.475,30.312,30.312,0,0,0,3.6-.073l.06-10.28a3.235,3.235,0,0,1,3.018-3.269l5.632-.113.036-10.182A3.527,3.527,0,0,1,19.624,0L71.351.005a3.49,3.49,0,0,1,3.643,3.459L75,41.882A3.546,3.546,0,0,1,71.407,45.4l-5.063.008-.055,10.3a3.307,3.307,0,0,1-3.179,3.31l-3.989.04-.02,9.975a3.549,3.549,0,0,1-3.6,3.649m17.062-63.7.018-5.516a1.14,1.14,0,0,0-1.247-1.044H19.4A1.055,1.055,0,0,0,18.36,3.43l.019,5.555ZM66.322,42.941l5.072.043a1.166,1.166,0,0,0,1.2-1.11V11.4l-54.17.009a7.1,7.1,0,0,0,0,2.229l44.438.028a3.42,3.42,0,0,1,3.43,3.33ZM63.867,22.553l.037-5.331A1.187,1.187,0,0,0,62.83,16.06H10.717a1.141,1.141,0,0,0-1.075,1.17l.02,5.331ZM59.1,56.615l3.562.027a1.166,1.166,0,0,0,1.23-1.209l0-30.457-54.176,0a6.164,6.164,0,0,0,0,2.366l46.153.024a3.435,3.435,0,0,1,3.24,3.656ZM56.621,36.2l.05-5.424a1.124,1.124,0,0,0-1.3-1.008l-51.714,0c-.724,0-1.226.317-1.226,1.031l0,5.417Zm-.949,34.063c.684-.135.973-.52.973-1.032v-30.6l-54.233,0V69.2A1.125,1.125,0,0,0,3.663,70.26Z" transform="translate(-0.001 0.001)" fill="#12263f"/>
          <path id="Trazado_1285662" data-name="Trazado 1285662" d="M90.106,200.3a17.812,17.812,0,0,1-28.541-.166,1.515,1.515,0,0,1-.133-1.9,17.81,17.81,0,0,1,28.606-.474,1.829,1.829,0,0,1,.068,2.544m-2.13-1.208a15.366,15.366,0,0,0-24.165-.014,15.372,15.372,0,0,0,24.165.014" transform="translate(-46.353 -144.621)" fill="#12263f"/>
          <path id="Trazado_1285663" data-name="Trazado 1285663" d="M119.567,168.072a1.207,1.207,0,1,1-2.405-.146l.057-3.053c.013-.688.7-.878,1.22-.846a1.15,1.15,0,0,1,1.141,1.243Z" transform="translate(-88.808 -124.329)" fill="#12263f"/>
          <path id="Trazado_1285664" data-name="Trazado 1285664" d="M119.6,268.258a1.208,1.208,0,1,1-2.411.113v-2.9a1.2,1.2,0,0,1,2.394,0Z" transform="translate(-88.826 -200.326)" fill="#12263f"/>
          <path id="Trazado_1285665" data-name="Trazado 1285665" d="M91.163,171.92a1.262,1.262,0,0,1-.285,1.716,1.229,1.229,0,0,1-1.821-.473l-1.4-2.491a1.148,1.148,0,0,1,.449-1.521,1.211,1.211,0,0,1,1.663.4Z" transform="translate(-66.338 -128.085)" fill="#12263f"/>
          <path id="Trazado_1285666" data-name="Trazado 1285666" d="M142.987,173.1a1.252,1.252,0,0,1-1.584.653,1.1,1.1,0,0,1-.644-1.553l1.374-2.477a1.253,1.253,0,0,1,1.723-.625,1.267,1.267,0,0,1,.422,1.783Z" transform="translate(-106.593 -128.068)" fill="#12263f"/>
          <path id="Trazado_1285667" data-name="Trazado 1285667" d="M89.928,265.085a1.323,1.323,0,0,1-1.613.669A1.2,1.2,0,0,1,87.735,264l1.328-2.313a1.231,1.231,0,0,1,1.859-.486,1.316,1.316,0,0,1,.2,1.822Z" transform="translate(-66.369 -197.795)" fill="#12263f"/>
          <path id="Trazado_1285668" data-name="Trazado 1285668" d="M144.351,263.973a1.234,1.234,0,0,1-.327,1.652,1.194,1.194,0,0,1-1.7-.357l-1.492-2.641a1.151,1.151,0,0,1,.417-1.5,1.212,1.212,0,0,1,1.675.377Z" transform="translate(-106.65 -197.797)" fill="#12263f"/>
          <path id="Trazado_1285669" data-name="Trazado 1285669" d="M118.7,18a1.333,1.333,0,0,1,1.781.616,1.441,1.441,0,0,1-.645,1.855A1.36,1.36,0,1,1,118.7,18" transform="translate(-89.357 -13.553)" fill="#12263f"/>
          <path id="Trazado_1285670" data-name="Trazado 1285670" d="M140.234,18.136a1.4,1.4,0,0,1,1.943.379,1.387,1.387,0,0,1-.38,1.877,1.372,1.372,0,0,1-1.563-2.256" transform="translate(-105.86 -13.569)" fill="#12263f"/>
          <path id="Trazado_1285671" data-name="Trazado 1285671" d="M96.808,18.116a1.341,1.341,0,0,1,1.882.519,1.408,1.408,0,0,1-.661,1.888,1.369,1.369,0,0,1-1.692-.483,1.3,1.3,0,0,1,.471-1.924" transform="translate(-72.837 -13.59)" fill="#12263f"/>
          <path id="Trazado_1285672" data-name="Trazado 1285672" d="M61.154,74.332a1.34,1.34,0,0,1,1.8.9,1.4,1.4,0,0,1-.765,1.626,1.352,1.352,0,0,1-1.806-.748,1.333,1.333,0,0,1,.773-1.776" transform="translate(-45.691 -56.274)" fill="#12263f"/>
          <path id="Trazado_1285673" data-name="Trazado 1285673" d="M82.792,74.349a1.335,1.335,0,0,1,1.808.565,1.355,1.355,0,0,1-.554,1.881,1.389,1.389,0,0,1-1.767-.519,1.35,1.35,0,0,1,.513-1.928" transform="translate(-62.208 -56.239)" fill="#12263f"/>
          <path id="Trazado_1285674" data-name="Trazado 1285674" d="M104.6,74.327a1.322,1.322,0,0,1,1.775.605,1.348,1.348,0,0,1-.579,1.832,1.358,1.358,0,1,1-1.2-2.437" transform="translate(-78.691 -56.23)" fill="#12263f"/>
          <path id="Trazado_1285675" data-name="Trazado 1285675" d="M53.43,130.644a1.425,1.425,0,0,1,1.482,1.1,1.393,1.393,0,0,1-1.076,1.578,1.288,1.288,0,0,1-1.6-1.056,1.322,1.322,0,0,1,1.2-1.622" transform="translate(-39.573 -99.023)" fill="#12263f"/>
          <path id="Trazado_1285676" data-name="Trazado 1285676" d="M75.187,130.65a1.348,1.348,0,0,1,1.47,1.222,1.376,1.376,0,0,1-1.2,1.489,1.362,1.362,0,1,1-.265-2.711" transform="translate(-56.038 -99.029)" fill="#12263f"/>
          <path id="Trazado_1285677" data-name="Trazado 1285677" d="M31.567,130.68a1.373,1.373,0,0,1,1.6,1.067,1.333,1.333,0,0,1-.905,1.563,1.4,1.4,0,0,1-1.67-.8,1.341,1.341,0,0,1,.972-1.832" transform="translate(-23.117 -99.029)" fill="#12263f"/>
          <path id="Trazado_1285678" data-name="Trazado 1285678" d="M105.942,206.009a4.669,4.669,0,1,1-2.9,6.036,4.643,4.643,0,0,1,2.9-6.036m.486,2.416a2.22,2.22,0,0,0-.945,3.114,2.243,2.243,0,0,0,3.975-2.076,2.231,2.231,0,0,0-3.029-1.038" transform="translate(-77.881 -155.971)" fill="#12263f"/>
        </g>
      </g>
    </g>
  </g>
</svg>
