<svg xmlns="http://www.w3.org/2000/svg" xmlns:xlink="http://www.w3.org/1999/xlink" width="130" height="130" viewBox="0 0 130 130">
  <defs>
    <clipPath id="clip-path">
      <rect id="Rectángulo_465553" data-name="Rectángulo 465553" width="66.393" height="66.399" fill="#12263f"/>
    </clipPath>
  </defs>
  <g id="Grupo_1188417" data-name="Grupo 1188417" transform="translate(-186 -9253.863)">
    <g id="Grupo_1188415" data-name="Grupo 1188415" transform="translate(186 9253.862)">
      <circle id="Elipse_13890" data-name="Elipse 13890" cx="65" cy="65" r="65" transform="translate(130 130) rotate(180)" fill="#7dbfff"/>
      <path id="Intersección_3" data-name="Intersección 3" d="M0,61.621,107.4,0A65.086,65.086,0,0,1,43.784,78.57,64.8,64.8,0,0,1,0,61.621Z" transform="translate(21.185 51.43)" fill="#19538d"/>
      <ellipse id="Elipse_13891" data-name="Elipse 13891" cx="54.541" cy="54.541" rx="54.541" ry="54.541" transform="translate(119.541 119.518) rotate(180)" fill="#d5f4f8"/>
      <path id="Intersección_2" data-name="Intersección 2" d="M0,54.575A54.544,54.544,0,0,1,108.536,46.8L20.977,97.592A54.5,54.5,0,0,1,0,54.575Z" transform="translate(10.46 10.435)" fill="#fff"/>
      <g id="Grupo_1212784" data-name="Grupo 1212784" transform="translate(31.804 31.801)">
        <g id="Grupo_1212647" data-name="Grupo 1212647" clip-path="url(#clip-path)">
          <path id="Trazado_1285650" data-name="Trazado 1285650" d="M66.367,46.8a18.556,18.556,0,0,0-9.612-15.215c.2-2.195.213-4.308.2-6.265L56.9,14.355c-.008-1.49-1.7-2.3-2.212-2.512a18.194,18.194,0,0,1-9.944-9.79A3.116,3.116,0,0,0,41.862,0h0L15.01.006A2.977,2.977,0,0,0,12.338,1.85,18.482,18.482,0,0,1,2.072,11.933,3.076,3.076,0,0,0,.011,14.78L0,27.194A40.655,40.655,0,0,0,7.428,50.732,43.488,43.488,0,0,0,26.887,66.007a3.486,3.486,0,0,0,2.5.239,40.611,40.611,0,0,0,7.3-3.526A18.63,18.63,0,0,0,66.367,46.8M43.738,45.669a3.875,3.875,0,0,1,4.036-3.614h.011a4.068,4.068,0,0,1,4.07,3.767V48.78a3.963,3.963,0,0,1-4.077,3.789h-.006a4.314,4.314,0,0,1-2.993-1.231,3.439,3.439,0,0,1-1.047-2.479Zm1.026,8.3a6.266,6.266,0,0,0,6-.01,9.637,9.637,0,0,1,6.392,7.356,16.525,16.525,0,0,1-18.738.008,9.508,9.508,0,0,1,6.345-7.354m9.272-6.215c.012-.2.024-.4.037-.605a7.076,7.076,0,0,0-1.8-5.319A6.078,6.078,0,0,0,47.787,39.9h-.01a6.084,6.084,0,0,0-4.535,1.975,7.064,7.064,0,0,0-1.735,5.39c.025.29.043.578.06.864.094,1.537.182,2.992,1.38,4.278a11.547,11.547,0,0,0-6.414,7.415,16.459,16.459,0,1,1,22.5,0,11.527,11.527,0,0,0-6.4-7.409c1.211-1.407,1.3-2.917,1.4-4.66M33.509,28.515l-10,.009.007-4.652a4.206,4.206,0,0,1,1.332-3.091,5.373,5.373,0,0,1,3.671-1.428q.108,0,.216,0A4.948,4.948,0,0,1,33.5,24.292Zm21.311-1.139-.193,3.195a18.94,18.94,0,0,0-15.613.916A3.325,3.325,0,0,0,35.665,28.5h-.037l-.07-5.054a7.047,7.047,0,0,0-7.605-6.232A7.181,7.181,0,0,0,21.3,24.489L21.3,28.5a3.358,3.358,0,0,0-2.377.925,3.17,3.17,0,0,0-.929,2.309l.041,8.082a3.053,3.053,0,0,0,3.139,2.826h.008l5.6-.014a.946.946,0,0,0,.686-.3,1.106,1.106,0,0,0,.317-.764,1.091,1.091,0,0,0-1.194-1.069h0l-5.385.014h0a1.078,1.078,0,0,1-.769-.308,1.149,1.149,0,0,1-.326-.825V31.752a1.057,1.057,0,0,1,.295-.769,1.168,1.168,0,0,1,.845-.313l15.066.053a2.074,2.074,0,0,1,.616,1.431.885.885,0,0,1-.228.768,18.978,18.978,0,0,0-7.037,10.669A18.423,18.423,0,0,0,31.18,56.218a17.462,17.462,0,0,1-2.757,1.352C16.1,51.848,8.637,40.619,8.452,27.525l.007-9.363A26.91,26.91,0,0,0,18.5,8.333L38.46,8.324a26.385,26.385,0,0,0,10.034,9.8l.028,7.612a1.174,1.174,0,0,0,.3.917,1.044,1.044,0,0,0,.812.291,1.1,1.1,0,0,0,1.052-1.206l-.028-7.867a1.915,1.915,0,0,0-.928-1.493,24.241,24.241,0,0,1-9.391-9.109,2.092,2.092,0,0,0-1.984-1.081h0l-20.036.016a1.733,1.733,0,0,0-1.566.868A24.721,24.721,0,0,1,7.43,16.257a1.987,1.987,0,0,0-1.12,1.824l.022,9.949a34.1,34.1,0,0,0,9.205,22.815,38.144,38.144,0,0,0,11.869,8.638c1.246.595,2.424-.062,3.671-.757.387-.216.786-.438,1.2-.636a17.557,17.557,0,0,0,2.659,3.152A34.28,34.28,0,0,1,28.435,64.3C12.729,58.45,2.166,43.713,2.146,27.614l-.016-12.8a.946.946,0,0,1,.63-.837A20.38,20.38,0,0,0,14.239,2.815a1.121,1.121,0,0,1,1.016-.692l26.535,0a.981.981,0,0,1,.91.629A20.3,20.3,0,0,0,54.122,13.942a1.037,1.037,0,0,1,.709,1.041Z" transform="translate(0)" fill="#12263f"/>
        </g>
      </g>
    </g>
  </g>
</svg>
