<svg xmlns="http://www.w3.org/2000/svg" xmlns:xlink="http://www.w3.org/1999/xlink" width="150" height="150" viewBox="0 0 150 150">
  <defs>
    <clipPath id="clip-path">
      <rect id="Rectángulo_465555" data-name="Rectángulo 465555" width="78.905" height="84.951" fill="#12263f"/>
    </clipPath>
  </defs>
  <g id="Grupo_1188433" data-name="Grupo 1188433" transform="translate(-185.738 -9253.601)">
    <g id="Grupo_1188415" data-name="Grupo 1188415" transform="translate(185.738 9253.602)">
      <circle id="Elipse_13890" data-name="Elipse 13890" cx="75" cy="75" r="75" transform="translate(150 150) rotate(180)" fill="#fbb03f"/>
      <path id="Intersección_3" data-name="Intersección 3" d="M0,70.769,123.344,0a74.749,74.749,0,0,1-73.06,90.233A74.419,74.419,0,0,1,0,70.769Z" transform="translate(24.681 59.414)" fill="#7a4f1e"/>
      <circle id="Elipse_13891" data-name="Elipse 13891" cx="62.637" cy="62.637" r="62.637" transform="translate(137.638 137.608) rotate(180)" fill="#ffebbe"/>
      <path id="Intersección_2" data-name="Intersección 2" d="M0,62.677a62.641,62.641,0,0,1,124.648-8.925L24.091,112.08A62.59,62.59,0,0,1,0,62.677Z" transform="translate(12.364 12.333)" fill="#fff"/>
      <g id="Grupo_1212786" data-name="Grupo 1212786" transform="translate(38.463 32.817)">
        <g id="Grupo_1212651" data-name="Grupo 1212651" clip-path="url(#clip-path)">
          <path id="Trazado_1285657" data-name="Trazado 1285657" d="M33.292,60.354a1.439,1.439,0,0,1,1.409,1.5l0,21.48a1.568,1.568,0,0,1-1.629,1.616H22.17a1.478,1.478,0,0,1-1.539-1.4l-.018-21.67a1.493,1.493,0,0,1,1.575-1.542l4.066-.019-.035-5.032A27.66,27.66,0,1,1,48.526,9.535l28.851,0A1.453,1.453,0,0,1,78.9,10.958l-.009,33.3a1.661,1.661,0,0,1-1.807,1.608H48.534a27.882,27.882,0,0,1-19.4,9.431L29.12,60.3Zm4.136-49.49a1.374,1.374,0,0,1,1.447-1.34L44.5,9.5a24.763,24.763,0,1,0-.136,36.432l-5.211-.062c-.705-.008-1.717-.505-1.717-1.4ZM75.974,42.957l.013-30.507h-35.7l.038,30.508ZM31.778,81.99l-.009-18.772-8.242-.007V82.033Z" transform="translate(0 0)" fill="#12263f"/>
          <path id="Trazado_1285658" data-name="Trazado 1285658" d="M45.258,26.943a18.386,18.386,0,0,0,.089,36.772,1.37,1.37,0,0,1,1.425,1.332,1.409,1.409,0,0,1-1.589,1.536,21.266,21.266,0,0,1,.279-42.53,1.449,1.449,0,0,1-.2,2.89" transform="translate(-17.682 -17.668)" fill="#12263f"/>
          <path id="Trazado_1285659" data-name="Trazado 1285659" d="M184.661,84.7c-8.831,4.935-21.6,2.273-25.309-7.271,3.8-9.628,16.7-12.048,25.309-7.224,2.7,1.511,5.651,4.1,6.126,7.256-.425,3.018-3.388,5.708-6.127,7.238m-11.18-13.527a6.522,6.522,0,1,0,8.026,4.651,6.514,6.514,0,0,0-8.026-4.651m-6.639,10.715a10.029,10.029,0,0,1,.054-9,12.12,12.12,0,0,0-4.4,4.535,9.63,9.63,0,0,0,4.345,4.47m21.066-4.557a11.774,11.774,0,0,0-4.38-4.392,10.122,10.122,0,0,1,.129,8.874,8.93,8.93,0,0,0,4.252-4.482" transform="translate(-117.053 -49.797)" fill="#12263f"/>
          <path id="Trazado_1285660" data-name="Trazado 1285660" d="M208.51,89.41c0,1.853-2.683.932-2.873,2.683-.227,2.087,2.724,1.132,2.855,2.924a1.413,1.413,0,0,1-1.207,1.553,4.351,4.351,0,0,1-4.563-4.012,4.293,4.293,0,0,1,4.441-4.6,1.459,1.459,0,0,1,1.346,1.456" transform="translate(-148.906 -64.605)" fill="#12263f"/>
        </g>
      </g>
    </g>
  </g>
</svg>
