<svg xmlns="http://www.w3.org/2000/svg" xmlns:xlink="http://www.w3.org/1999/xlink" width="150" height="150" viewBox="0 0 150 150">
  <defs>
    <clipPath id="clip-path">
      <rect id="Rectángulo_465547" data-name="Rectángulo 465547" width="88.28" height="65.077" fill="#12263f"/>
    </clipPath>
  </defs>
  <g id="Grupo_1188431" data-name="Grupo 1188431" transform="translate(-185.738 -9253.601)">
    <g id="Grupo_1188415" data-name="Grupo 1188415" transform="translate(185.738 9253.602)">
      <circle id="Elipse_13890" data-name="Elipse 13890" cx="75" cy="75" r="75" transform="translate(150 150) rotate(180)" fill="#7dbfff"/>
      <path id="Intersección_3" data-name="Intersección 3" d="M0,70.769,123.344,0a74.749,74.749,0,0,1-73.06,90.233A74.419,74.419,0,0,1,0,70.769Z" transform="translate(24.681 59.414)" fill="#19538d"/>
      <circle id="Elipse_13891" data-name="Elipse 13891" cx="62.637" cy="62.637" r="62.637" transform="translate(137.638 137.609) rotate(180)" fill="#dfefff"/>
      <path id="Intersección_2" data-name="Intersección 2" d="M0,62.677a62.641,62.641,0,0,1,124.648-8.925L24.091,112.08A62.59,62.59,0,0,1,0,62.677Z" transform="translate(12.364 12.333)" fill="#fff"/>
      <g id="Grupo_1212776" data-name="Grupo 1212776" transform="translate(30.548 42.462)">
        <g id="Grupo_1212635" data-name="Grupo 1212635" clip-path="url(#clip-path)">
          <path id="Trazado_1285614" data-name="Trazado 1285614" d="M16.568,48.749a5.268,5.268,0,0,1-4.505.817l-4.37,5.679a4.4,4.4,0,0,1-.311,5.785A4.315,4.315,0,1,1,5.951,54l4.331-5.787a4.439,4.439,0,0,1,.14-5.61,4.345,4.345,0,0,1,7.29,4.437l4.69,3.153c1.018-.5,2.341-1.314,3.779-.756l2.141-4.086A24.145,24.145,0,1,1,66.217,28.414L70,29.458a4.536,4.536,0,0,1,4.231-2.137L81.374,7.9C79.912,6.356,78.963,4.209,80.2,2.152A4.4,4.4,0,0,1,85.614.3a4.385,4.385,0,0,1,2.6,4.869c-.393,2.212-2.475,3.263-4.715,3.6L76.308,28.029c1.5,1.508,2.281,3.393,1.365,5.415a4.3,4.3,0,0,1-4.807,2.426,4.393,4.393,0,0,1-3.444-4.285l-3.557-1.007a24.557,24.557,0,0,1-3.157,7.8L78.69,51.91A7.119,7.119,0,0,1,80.712,60.8a7.6,7.6,0,0,1-4.6,3.96c-2.446.632-5.147.42-6.778-1.477L54.7,46.262a24.054,24.054,0,0,1-24.452.315l-2.1,3.812a4.33,4.33,0,1,1-7.005,1.669Zm66.623-46.5a2.135,2.135,0,0,0-1.2,2.925,2.158,2.158,0,1,0,1.2-2.925M40.4,3.7A21.994,21.994,0,1,0,64.141,23.825,21.974,21.974,0,0,0,40.4,3.7m33,25.823a2.091,2.091,0,0,0-1.691,2.78,2.052,2.052,0,0,0,2.64,1.4,2.171,2.171,0,0,0,1.491-2.575,2.228,2.228,0,0,0-2.44-1.608M58.866,47.563l5.178-5.205L61.5,40.179a26.872,26.872,0,0,1-4.908,4.84,10.992,10.992,0,0,0,2.276,2.544M12.626,43.6a2.082,2.082,0,0,0-.778,3.007,2.142,2.142,0,0,0,3.734-2.1,2.1,2.1,0,0,0-2.955-.91M71.134,61.914c1.806,2.066,5.092.983,6.71-.7,1.522-1.584,2.4-4.9.438-6.6l-12.5-10.884-5.624,5.64Zm-46.7-10.348a2.128,2.128,0,0,0-1.278,2.679,2.144,2.144,0,1,0,4.028-1.464,2.1,2.1,0,0,0-2.749-1.215M3.681,55.928A2.1,2.1,0,0,0,2.4,58.892a2.137,2.137,0,0,0,2.7,1.082,2.11,2.11,0,0,0,1.26-2.7,2.2,2.2,0,0,0-2.678-1.344" transform="translate(0 0)" fill="#12263f"/>
          <path id="Trazado_1285615" data-name="Trazado 1285615" d="M98.859,21.8A19.354,19.354,0,1,1,79.653,41.587,19.375,19.375,0,0,1,98.859,21.8m-2.233,2.323a17.2,17.2,0,1,0,19.417,14.68,17.177,17.177,0,0,0-19.417-14.68" transform="translate(-56.787 -15.545)" fill="#12263f"/>
          <path id="Trazado_1285616" data-name="Trazado 1285616" d="M126.374,61.454H103.152a1.156,1.156,0,0,1-.887-.375,1.2,1.2,0,0,1-.21-1.155l11.757-20.331a1.083,1.083,0,0,1,1.786.006l11.638,20.19a1.1,1.1,0,0,1-.862,1.665m-1.943-2.231-9.751-16.8-9.739,16.848Z" transform="translate(-72.719 -27.894)" fill="#12263f"/>
          <path id="Trazado_1285617" data-name="Trazado 1285617" d="M144.714,72.316a1.088,1.088,0,0,1-1.051,1.169,1.049,1.049,0,0,1-1.05-1.032l0-5.75a1.01,1.01,0,0,1,1.01-1.04A1.04,1.04,0,0,1,144.7,66.7Z" transform="translate(-101.677 -46.816)" fill="#12263f"/>
          <path id="Trazado_1285618" data-name="Trazado 1285618" d="M143.482,96.753a1.018,1.018,0,0,1,1.2.877,1.058,1.058,0,0,1-.81,1.2,1.057,1.057,0,1,1-.392-2.076" transform="translate(-101.669 -68.967)" fill="#12263f"/>
        </g>
      </g>
    </g>
  </g>
</svg>
