<svg xmlns="http://www.w3.org/2000/svg" xmlns:xlink="http://www.w3.org/1999/xlink" width="150" height="150" viewBox="0 0 150 150">
  <defs>
    <clipPath id="clip-path">
      <rect id="Rectángulo_465549" data-name="Rectángulo 465549" width="77.834" height="77.832" fill="#12263f"/>
    </clipPath>
  </defs>
  <g id="Grupo_1188432" data-name="Grupo 1188432" transform="translate(-185.738 -9253.601)">
    <g id="Grupo_1188415" data-name="Grupo 1188415" transform="translate(185.738 9253.602)">
      <circle id="Elipse_13890" data-name="Elipse 13890" cx="75" cy="75" r="75" transform="translate(150 150) rotate(180)" fill="#4dd0e1"/>
      <path id="Intersección_3" data-name="Intersección 3" d="M0,70.769,123.344,0a74.749,74.749,0,0,1-73.06,90.233A74.419,74.419,0,0,1,0,70.769Z" transform="translate(24.681 59.414)" fill="#1e535a"/>
      <circle id="Elipse_13891" data-name="Elipse 13891" cx="62.637" cy="62.637" r="62.637" transform="translate(137.638 137.608) rotate(180)" fill="#d5f4f8"/>
      <path id="Intersección_2" data-name="Intersección 2" d="M0,62.677a62.641,62.641,0,0,1,124.648-8.925L24.091,112.08A62.59,62.59,0,0,1,0,62.677Z" transform="translate(12.364 12.333)" fill="#fff"/>
      <g id="Grupo_1212778" data-name="Grupo 1212778" transform="translate(36.084 36.084)">
        <g id="Grupo_1212639" data-name="Grupo 1212639" clip-path="url(#clip-path)">
          <path id="Trazado_1285625" data-name="Trazado 1285625" d="M71.656,77.814l-65.348.018A6.213,6.213,0,0,1,0,71.533L0,33.906a7.446,7.446,0,0,1,4.984-7.1l.108-7.354,9.951-8.185.026-10.014A1.212,1.212,0,0,1,16.359,0L61.465,0a1.21,1.21,0,0,1,1.289,1.255l.014,11.3,8.8,0a6.208,6.208,0,0,1,6.27,6.288l-.014,52.68a6.159,6.159,0,0,1-6.163,6.289M50.226,22.593l0,2.522,6.243-.018v2.51l-6.246.007,0,2.522,6.245-.016,0,2.51-6.246.007.009,2.525,10.022-.008V2.509l-42.68,0,.035,6.6,2.075-1.564L48.924,7.53A1.213,1.213,0,0,1,50.2,8.781l.018,6.285,6.258-.011v2.509l-6.246.007,0,2.522,6.245-.016v2.509Zm-8.188,7.031,1.157,3.986a2.022,2.022,0,0,0,1.994,1.521L47.7,35.12l0-25.079-26.366,0,0,10.019a1.31,1.31,0,0,1-1.269,1.28l-12.536,0,.008,5.029H38.1a4.515,4.515,0,0,1,3.933,3.255m-23.2-10.8-.042-7.364-8.9,7.315Zm56.5,52.317-.02-52.286a3.683,3.683,0,0,0-3.757-3.785l-8.8-.007.011,20.208a6.2,6.2,0,0,1,5.006,6.164l.012,29.847A3.728,3.728,0,0,0,71.657,75.3c2.18-.075,3.68-1.667,3.679-4.162M65.255,41.3a3.56,3.56,0,0,0-3.5-3.6l-16.561-.047a4.655,4.655,0,0,1-4.49-3.537l-1.067-3.734a1.938,1.938,0,0,0-1.771-1.5l-30.574.028A4.875,4.875,0,0,0,2.511,33.9l0,37.627a3.7,3.7,0,0,0,3.8,3.8l60.213,0a6.278,6.278,0,0,1-1.242-3.8Z" transform="translate(0 0)" fill="#12263f"/>
          <path id="Trazado_1285626" data-name="Trazado 1285626" d="M49.965,194.6a1.469,1.469,0,0,1-2.279-.048L40.072,186.9l-7.755,7.764a1.408,1.408,0,0,1-1.944.133l-5.014-5.028a1.342,1.342,0,0,1,.01-1.8l7.877-7.889-7.761-7.75a1.4,1.4,0,0,1,0-2.071l4.764-4.764a1.4,1.4,0,0,1,2.072,0l7.752,7.758,7.749-7.762a1.406,1.406,0,0,1,2.075,0l4.878,4.886a1.4,1.4,0,0,1-.12,1.947l-7.759,7.75,7.756,7.75a1.4,1.4,0,0,1,0,2.073Zm-1.091-2.525,3.2-3.215-7.757-7.742a1.392,1.392,0,0,1,0-2.071l7.757-7.745-3.223-3.224-7.746,7.757a1.4,1.4,0,0,1-1.945.13l-7.871-7.887L28.067,171.3l7.873,7.869a1.4,1.4,0,0,1-.12,1.949l-7.755,7.743,3.223,3.224,7.871-7.88a1.392,1.392,0,0,1,1.943.129Z" transform="translate(-18.734 -123.595)" fill="#12263f"/>
          <path id="Trazado_1285627" data-name="Trazado 1285627" d="M115.1,87.5,95.08,87.5l0-2.519h20.029Z" transform="translate(-71.203 -63.645)" fill="#12263f"/>
          <path id="Trazado_1285628" data-name="Trazado 1285628" d="M130.071,67.488l-15.008.01,0-2.521h15.015Z" transform="translate(-86.168 -48.66)" fill="#12263f"/>
        </g>
      </g>
    </g>
  </g>
</svg>
