<svg xmlns="http://www.w3.org/2000/svg" xmlns:xlink="http://www.w3.org/1999/xlink" width="96" height="96" viewBox="0 0 96 96">
  <defs>
    <clipPath id="clip-path">
      <rect id="Rectángulo_465531" data-name="Rectángulo 465531" width="50.215" height="50.204" fill="#19538d"/>
    </clipPath>
  </defs>
  <g id="Grupo_1212718" data-name="Grupo 1212718" transform="translate(-383.67 -8399.924)">
    <circle id="Elipse_13890" data-name="Elipse 13890" cx="48" cy="48" r="48" transform="translate(383.67 8399.924)" fill="#5a9ad7"/>
    <path id="Intersección_1" data-name="Intersección 1" d="M0,47.89A47.893,47.893,0,0,1,79.511,11.92L1.1,58.131A48,48,0,0,1,0,47.89Z" transform="translate(383.779 8400.031)" fill="#19538d"/>
    <path id="Trazado_1032916" data-name="Trazado 1032916" d="M40,0A40,40,0,1,1,0,40,40,40,0,0,1,40,0Z" transform="translate(391.67 8407.924)" fill="#e6f3ff"/>
    <g id="Grupo_1212719" data-name="Grupo 1212719" transform="translate(406.563 8422.822)">
      <g id="Grupo_1212604" data-name="Grupo 1212604" clip-path="url(#clip-path)">
        <path id="Trazado_1285471" data-name="Trazado 1285471" d="M40.1,49.638a.9.9,0,0,1-.9.566l-3.455-.094c-.519-.48-.514-1.376-.919-1.881-.7-.413-1.65-.692-2.383-1.041a8.677,8.677,0,0,1-2,.741L27.812,45.38a.726.726,0,0,1-.168-.756l.682-1.656a12.779,12.779,0,0,1-.876-1.947c-4.03.254-10.7-.138-13.727-2.44a2.53,2.53,0,0,1-1.18-1.863L12.515,24.9c-.747-.023-1.643.23-2.17-.259-.475-.441-.488-1.234-.816-1.779a12.786,12.786,0,0,1-2.294-.985l-1.313.558a.96.96,0,0,1-1.1-.047L2.246,19.76a7.663,7.663,0,0,1,.814-2.027l-1.1-2.352c-.466-.432-1.4-.4-1.867-.932L0,11a.958.958,0,0,1,.671-.952L2.06,9.5a9.592,9.592,0,0,1,.981-2.277l-.7-1.635a.749.749,0,0,1,.182-.815L5.181,2.221l2,.81A11.1,11.1,0,0,1,9.52,2.054l.6-1.514A.817.817,0,0,1,10.859,0l3.611.065c.519.495.519,1.382.92,1.89l2.367,1.087a8.109,8.109,0,0,1,2.015-.813l2.555,2.487a.845.845,0,0,1,.213.964L21.9,7.217a13.538,13.538,0,0,1,.87,1.944c4.053-.208,10.515.112,13.638,2.378a2.558,2.558,0,0,1,1.252,1.792L37.7,25.246l1.493.024a.991.991,0,0,1,.952.651l.557,1.422a14.589,14.589,0,0,1,2.357.974l1.471-.654a.788.788,0,0,1,.866.135l2.575,2.625a7.5,7.5,0,0,1-.815,2.021L48.247,34.8c.5.409,1.4.414,1.882.926l.087,3.457a.893.893,0,0,1-.56.9l-1.5.6a9.4,9.4,0,0,1-.978,2.279l.7,1.633a.745.745,0,0,1-.183.813l-2.266,2.267a.824.824,0,0,1-.932.141l-1.526-.649a9.713,9.713,0,0,1-2.267.972ZM13.475,23.17c.35-.557.41-1.22.769-1.678a15.678,15.678,0,0,0,3.394-1.41l1.785.707,1.385-1.382L20.1,17.613a17.6,17.6,0,0,0,1.461-3.464L23.3,13.43,23.236,11.4c-.511-.269-1.4-.337-1.715-.844a17.883,17.883,0,0,0-1.439-3.279L20.8,5.493,19.332,4.065c-.545.2-1.225.775-1.821.633A15.257,15.257,0,0,0,14.27,3.424a9.444,9.444,0,0,1-.8-1.8l-2.07.017a8.052,8.052,0,0,1-.731,1.774A16.865,16.865,0,0,0,7.438,4.666c-.583.235-1.3-.362-1.818-.6L4.081,5.6c.237.526.833,1.23.6,1.8A17.673,17.673,0,0,0,3.43,10.648a7.8,7.8,0,0,1-1.772.735L1.677,13.5a6.835,6.835,0,0,1,1.765.75A15.391,15.391,0,0,0,4.709,17.5c.15.623-.476,1.312-.619,1.857l1.42,1.423L7.3,20.064A17.844,17.844,0,0,0,10.583,21.5c.529.268.449,1.3.9,1.654a2.772,2.772,0,0,0,1.989.011M35.681,14.3a.849.849,0,0,0,.371-.759,1.244,1.244,0,0,0-.445-.593c-2.545-1.9-7.256-2.143-10.667-2.267L24.877,14.2c-.017.947-2.331.445-2.35,2.3,3.68.288,10.351.033,13.154-2.2M15.85,22.739a20.068,20.068,0,0,0,5.631,1.294c4.122.386,9.419.263,13.13-1.428.472-.215,1.276-.632,1.394-1.163l.048-5.377a14.668,14.668,0,0,1-3.827,1.419,34.554,34.554,0,0,1-10.2.631c.215.537.9,1.316.482,1.75l-2.382,2.5c-.564.593-1.381-.18-2.347-.437ZM27.73,30.248,30.091,27.8a.822.822,0,0,1,.865-.156l1.562.655a13.467,13.467,0,0,1,2.289-.957l.726-1.716.509-.416a5.046,5.046,0,0,0-.024-1.505,16.32,16.32,0,0,1-5.139,1.663c-4.947.813-11.308.7-15.929-1.268a1.891,1.891,0,0,1-.85.869l.17,4.178c.478.891,1.772,1.33,2.733,1.62a29.347,29.347,0,0,0,11.023.927c-.238-.463-.671-1.061-.3-1.451M38.776,48.416c.39-.357.358-1.317.786-1.588a30.727,30.727,0,0,0,3.355-1.37c.606-.055,1.229.477,1.73.663l1.485-1.543c-.224-.514-.838-1.239-.6-1.816a16.24,16.24,0,0,0,1.253-3.231,8.314,8.314,0,0,1,1.778-.739,7.589,7.589,0,0,0-.055-2.129c-.492-.232-1.491-.3-1.694-.847a24.223,24.223,0,0,0-1.323-3.132c-.1-.585.435-1.274.645-1.818L44.706,29.4l-1.781.708a15.755,15.755,0,0,0-3.4-1.431L38.721,26.9l-2.012.04a8.267,8.267,0,0,1-.735,1.756,15.357,15.357,0,0,0-3.39,1.4l-1.791-.691L29.41,30.775l.707,1.791A15.859,15.859,0,0,0,28.7,35.954l-1.74.834a7.622,7.622,0,0,0,0,1.98l1.736.745a15.048,15.048,0,0,0,1.421,3.373l-.7,1.8,1.466,1.427c.552-.213,1.228-.74,1.825-.662a21.993,21.993,0,0,0,3.122,1.338c.566.216.6,1.183.869,1.7a3.261,3.261,0,0,0,2.077-.073M23.886,37.262a.759.759,0,0,1-.756-.9.827.827,0,0,1,.861-.719l1.275-.017,2.086-.819.509-1.468A32.959,32.959,0,0,1,17.857,32.7a16.118,16.118,0,0,1-3.689-1.381l0,5.466a5.73,5.73,0,0,0,2.709,1.57,28.3,28.3,0,0,0,8.4,1.133l0-2.213Z" transform="translate(0 0)" fill="#19538d"/>
        <path id="Trazado_1285472" data-name="Trazado 1285472" d="M37.051,181.4c.632,0,.955.3.993.769a.823.823,0,0,1-.909.863l-17.3-.012a.816.816,0,0,1-.828-.806l0-14.9c-.286.1-.344.422-.512.612a.858.858,0,0,1-1.1.133.82.82,0,0,1-.2-1.1l2.029-3a.829.829,0,0,1,1.087-.056l2.065,2.956a.863.863,0,0,1-.05,1.122.874.874,0,0,1-1.266-.132c-.108-.217-.2-.439-.433-.532l-.006,14.081Z" transform="translate(-14.306 -137.218)" fill="#19538d"/>
        <path id="Trazado_1285473" data-name="Trazado 1285473" d="M181.777,45.883a.846.846,0,0,1-1.492-.037l-1.773-2.593a.933.933,0,0,1-.147-.941.753.753,0,0,1,.9-.426c.369.071.565.409.927.885l.041-14.091-16.578,0a.808.808,0,0,1-.855-.768.782.782,0,0,1,.869-.87l17.281,0a.8.8,0,0,1,.9.8l0,14.878c.24-.135.364-.415.574-.637a.824.824,0,0,1,1.088-.03.8.8,0,0,1,.13,1.07Z" transform="translate(-136.43 -22.664)" fill="#19538d"/>
        <path id="Trazado_1285474" data-name="Trazado 1285474" d="M197.2,191.248a6.778,6.778,0,1,1-5.889,7.653,6.752,6.752,0,0,1,5.889-7.653m.164,1.612a5.158,5.158,0,1,0,5.777,4.414,5.167,5.167,0,0,0-5.777-4.414" transform="translate(-160.278 -160.23)" fill="#19538d"/>
        <path id="Trazado_1285475" data-name="Trazado 1285475" d="M40.713,35.068a6.749,6.749,0,0,1,7.817,5.609,6.784,6.784,0,0,1-13.366,2.329,6.752,6.752,0,0,1,5.548-7.938m.321,1.592a5.157,5.157,0,1,0,1.6,10.19,5.157,5.157,0,1,0-1.6-10.19" transform="translate(-29.374 -29.309)" fill="#19538d"/>
        <path id="Trazado_1285476" data-name="Trazado 1285476" d="M145.972,174.778l-2.356.011a.8.8,0,0,1-.13-1.592h2.535a.776.776,0,0,1,.71.7.744.744,0,0,1-.759.885" transform="translate(-119.646 -145.147)" fill="#19538d"/>
        <path id="Trazado_1285477" data-name="Trazado 1285477" d="M146.129,127.561l-2.659.02a.742.742,0,0,1-.69-.875.8.8,0,0,1,.856-.726l2.253,0a.826.826,0,0,1,.831.578c.1.376-.046,1-.59,1" transform="translate(-119.654 -105.577)" fill="#19538d"/>
      </g>
    </g>
  </g>
</svg>
