<svg xmlns="http://www.w3.org/2000/svg" xmlns:xlink="http://www.w3.org/1999/xlink" width="150" height="150" viewBox="0 0 150 150">
  <defs>
    <clipPath id="clip-path">
      <rect id="Rectángulo_465532" data-name="Rectángulo 465532" width="83.152" height="83.176" fill="#12263f"/>
    </clipPath>
  </defs>
  <g id="Grupo_1188431" data-name="Grupo 1188431" transform="translate(-185.738 -9253.601)">
    <g id="Grupo_1188415" data-name="Grupo 1188415" transform="translate(185.738 9253.602)">
      <circle id="Elipse_13890" data-name="Elipse 13890" cx="75" cy="75" r="75" transform="translate(150 150) rotate(180)" fill="#7dbfff"/>
      <path id="Intersección_3" data-name="Intersección 3" d="M0,70.769,123.344,0a74.749,74.749,0,0,1-73.06,90.233A74.419,74.419,0,0,1,0,70.769Z" transform="translate(24.681 59.414)" fill="#19538d"/>
      <circle id="Elipse_13891" data-name="Elipse 13891" cx="62.637" cy="62.637" r="62.637" transform="translate(137.638 137.609) rotate(180)" fill="#dfefff"/>
      <path id="Intersección_2" data-name="Intersección 2" d="M0,62.677a62.641,62.641,0,0,1,124.648-8.925L24.091,112.08A62.59,62.59,0,0,1,0,62.677Z" transform="translate(12.364 12.333)" fill="#fff"/>
      <g id="Grupo_1212720" data-name="Grupo 1212720" transform="translate(35.424 29.619)">
        <g id="Grupo_1212606" data-name="Grupo 1212606" clip-path="url(#clip-path)">
          <path id="Trazado_1285478" data-name="Trazado 1285478" d="M58.613,183a5.779,5.779,0,0,1,7.93.1A5.6,5.6,0,0,1,66.775,191L50.055,207.76l-9.644,2.606-24.2-.077a5.858,5.858,0,0,1,.218-11.713l10.269.008a3.886,3.886,0,0,0,4.1-3.515c.215-1.825-1.148-4.075-3.317-4.09l-22.093-.152c-3.2-.022-5.482-3.11-5.386-5.959a5.866,5.866,0,0,1,5.934-5.731l10.486-.014a3.761,3.761,0,0,0,3.7-2.832c-.927.111-1.476-.119-1.681-.759a1.031,1.031,0,0,1,1.06-1.232l3.771.033a.968.968,0,0,1,.852,1.208c-.247.727-.944.966-1.882.67a6.031,6.031,0,0,1-6.082,4.97l-10.027-.036A3.939,3.939,0,0,0,2.071,184.6c-.231,1.862,1.075,4.145,3.281,4.157l21.842.113a5.8,5.8,0,0,1,5.673,5.458c.193,2.959-1.954,6.148-5.168,6.185l-11.558.129a3.8,3.8,0,0,0,0,7.589l23.543.031,2.293-8.612Zm7.171,5.994a3.715,3.715,0,0,0-.835-4.585,3.582,3.582,0,0,0-4.2-.395ZM49.677,205.355l14.769-14.78-5.215-5.317L44.314,200.229ZM47.6,206.3l-4.142-4.138L42,207.773Z" transform="translate(0 -127.191)" fill="#12263f"/>
          <path id="Trazado_1285479" data-name="Trazado 1285479" d="M179.8,180.837l-.058,5.074a1.06,1.06,0,0,1-1.07,1.167l-5.7-.009a1,1,0,0,1-.954-.978l.061-6.409,8.74-8.872a6.552,6.552,0,0,0-9.231-9.253l-8.974,8.835-6.084.051a1.208,1.208,0,0,1-1.245-1.167l.017-5.637a.937.937,0,0,1,.918-.964l5.252-.074a17.919,17.919,0,0,1,1.484-3.559l-3.708-3.73a.9.9,0,0,1,0-1.232l4.047-4.065a1.041,1.041,0,0,1,1.514.005l3.579,3.586a19.03,19.03,0,0,1,3.581-1.471l.029-5.1a.991.991,0,0,1,1.018-1.048l5.631-.021A1,1,0,0,1,179.731,147l.019,5.143a16.324,16.324,0,0,1,3.52,1.46l3.425-3.438a1.219,1.219,0,0,1,1.85-.068l3.778,3.773a1.15,1.15,0,0,1,.015,1.66l-3.515,3.6a16.9,16.9,0,0,1,1.382,3.462l5.209.084a1.03,1.03,0,0,1,1.048,1.081l.006,5.385a1.252,1.252,0,0,1-1.365,1.3l-4.916.04a15.027,15.027,0,0,1-1.4,3.516l3.465,3.446a1.167,1.167,0,0,1,0,1.794l-3.946,3.887a.932.932,0,0,1-1.355-.092l-3.646-3.627a12.327,12.327,0,0,1-3.507,1.426m3.755-3.874,4.142,3.906,2.535-2.534-3.368-3.36c-.2-.2-.546-.857-.333-1.187a19.317,19.317,0,0,0,2.194-5.341l5.658-.175-.042-3.6-5.654-.122a16.349,16.349,0,0,0-2.021-5.019,1.215,1.215,0,0,1,.284-1.535l3.323-3.31-2.553-2.556-3.312,3.319a1.17,1.17,0,0,1-1.522.292c-3.138-2.075-5.232-1.279-5.233-3.079l0-4.643-3.592.02-.115,5.611a17.719,17.719,0,0,0-4.988,2.033,1.185,1.185,0,0,1-1.534-.146l-3.378-3.367a15.512,15.512,0,0,0-2.55,2.587l3.586,3.688c.447.46-.08,1.231-.339,1.633a18.74,18.74,0,0,0-1.746,4.5l-5.655.161-.012,3.6,4.5-.031,8.153-8.078a8.5,8.5,0,0,1,12.2.4,8.636,8.636,0,0,1-.275,12.046l-7.844,7.841,0,4.585,3.576-.025.062-5.019a1.008,1.008,0,0,1,.708-.9,16.5,16.5,0,0,0,5.154-2.188" transform="translate(-113.315 -106.514)" fill="#12263f"/>
          <path id="Trazado_1285480" data-name="Trazado 1285480" d="M46.51,66.179l-10.144.061A3.646,3.646,0,0,1,33.567,65c-1.915-2.3,1.042-7.1-3.249-14.156a19.11,19.11,0,0,1-2.839-7.369,13.918,13.918,0,1,1,27.506,0,19.19,19.19,0,0,1-2.838,7.374,17.286,17.286,0,0,0-2.46,10.989c.207,2.068-.784,4.325-3.176,4.34M41.283,46.793l2.761-2.7a1.028,1.028,0,0,1,1.348.192,1.138,1.138,0,0,1-.1,1.347l-2.99,3.048-.023,8.246,5.469-.019c.908-6.537,6.078-9.85,5.268-16.9a11.858,11.858,0,0,0-23.547-.232c-.965,7.172,4.3,10.515,5.236,17.1H40.2l-.045-8.2L37.171,45.63a1.139,1.139,0,0,1-.1-1.347,1.011,1.011,0,0,1,1.353-.191ZM46.43,64.168a1.311,1.311,0,0,0,1.217-1.29L47.66,58.9l-12.854,0,.012,3.979a1.3,1.3,0,0,0,1.328,1.289Z" transform="translate(-19.945 -20.007)" fill="#12263f"/>
          <path id="Trazado_1285481" data-name="Trazado 1285481" d="M77.013,4.645a1.073,1.073,0,0,1-.908,1.05,1.018,1.018,0,0,1-1.135-.937l-.016-3.706a1.029,1.029,0,1,1,2.057,0Z" transform="translate(-54.694 0)" fill="#12263f"/>
          <path id="Trazado_1285482" data-name="Trazado 1285482" d="M4.86,76.971l-3.805.046a1.029,1.029,0,1,1,0-2.058l3.707.01a1.049,1.049,0,0,1,.939.894c.058.392-.21,1.1-.838,1.107" transform="translate(0 -54.699)" fill="#12263f"/>
          <path id="Trazado_1285483" data-name="Trazado 1285483" d="M141.177,76.98,137.36,77a1.04,1.04,0,0,1-.939-.9,1.019,1.019,0,0,1,.936-1.134l3.71-.019a1.045,1.045,0,0,1,1.046.932,1,1,0,0,1-.935,1.1" transform="translate(-99.542 -54.691)" fill="#12263f"/>
          <path id="Trazado_1285484" data-name="Trazado 1285484" d="M26.41,24.963a1.068,1.068,0,0,1,.028,1.32,1.032,1.032,0,0,1-1.384.167l-2.719-2.691a1.038,1.038,0,0,1-.056-1.353,1.022,1.022,0,0,1,1.493-.084Z" transform="translate(-16.094 -16.081)" fill="#12263f"/>
          <path id="Trazado_1285485" data-name="Trazado 1285485" d="M120.068,26.358a1.064,1.064,0,0,1-1.328.041,1.035,1.035,0,0,1-.164-1.4l2.692-2.721a1.019,1.019,0,1,1,1.441,1.441Z" transform="translate(-86.375 -16.044)" fill="#12263f"/>
        </g>
      </g>
    </g>
  </g>
</svg>
