<svg xmlns="http://www.w3.org/2000/svg" xmlns:xlink="http://www.w3.org/1999/xlink" width="150" height="150" viewBox="0 0 150 150">
  <defs>
    <clipPath id="clip-path">
      <rect id="Rectángulo_465554" data-name="Rectángulo 465554" width="71.838" height="84.067" fill="#12263f"/>
    </clipPath>
  </defs>
  <g id="Grupo_1188431" data-name="Grupo 1188431" transform="translate(-185.738 -9253.601)">
    <g id="Grupo_1188415" data-name="Grupo 1188415" transform="translate(185.738 9253.602)">
      <circle id="Elipse_13890" data-name="Elipse 13890" cx="75" cy="75" r="75" transform="translate(150 150) rotate(180)" fill="#7dbfff"/>
      <path id="Intersección_3" data-name="Intersección 3" d="M0,70.769,123.344,0a74.749,74.749,0,0,1-73.06,90.233A74.419,74.419,0,0,1,0,70.769Z" transform="translate(24.681 59.414)" fill="#19538d"/>
      <circle id="Elipse_13891" data-name="Elipse 13891" cx="62.637" cy="62.637" r="62.637" transform="translate(137.638 137.609) rotate(180)" fill="#dfefff"/>
      <path id="Intersección_2" data-name="Intersección 2" d="M0,62.677a62.641,62.641,0,0,1,124.648-8.925L24.091,112.08A62.59,62.59,0,0,1,0,62.677Z" transform="translate(12.364 12.333)" fill="#fff"/>
      <g id="Grupo_1212785" data-name="Grupo 1212785" transform="translate(35.082 22.967)">
        <g id="Grupo_1212649" data-name="Grupo 1212649" transform="translate(4 10)" clip-path="url(#clip-path)">
          <path id="Trazado_1285651" data-name="Trazado 1285651" d="M53.953,84.063l-36.074,0a1.781,1.781,0,0,1-1.368-.508c-.384-.393-.267-.9-.324-1.456a8.717,8.717,0,0,1,8.2-9.848l.063-6.011L5.766,66.2A5.8,5.8,0,0,1,.051,60.683L0,17.15a5.963,5.963,0,0,1,5.746-5.892l3.211-.013c2.919-5.346,9.59-8.5,15.581-9.907a49.783,49.783,0,0,1,24.814.482C54.54,3.267,60.53,6.4,63.021,11.149a7.589,7.589,0,0,0,2.235.089c3.176-.2,6.534,2.143,6.538,5.623L71.839,60.2a5.983,5.983,0,0,1-6.085,6.035l-18.3.006-.032,5.983a8.745,8.745,0,0,1,8.264,9.89c-.05.534.036,1.066-.34,1.471a1.81,1.81,0,0,1-1.39.478M35.209,2.955a10.2,10.2,0,1,0,11,9.271,10.165,10.165,0,0,0-11-9.271M16.137,18.4a31.012,31.012,0,0,0,10.768,4.032,13.175,13.175,0,0,1-.12-18.556,28.049,28.049,0,0,0-10.961,4.16,12.282,12.282,0,0,0-4.634,5.076A13.514,13.514,0,0,0,16.137,18.4M60.91,13.065C58.111,7.7,51.183,4.911,45.2,3.828a13.154,13.154,0,0,1-.016,18.622c6-1.188,13.16-4,15.728-9.385M64.2,18a1.431,1.431,0,0,1,1.471,1.407l0,36.824a1.456,1.456,0,0,1-1.643,1.471H7.808c-.83,0-1.585-.422-1.585-1.308L6.21,19.47c0-2.065,2.394-1.251,4.95-1.584a12.152,12.152,0,0,1-2.6-3.8,13.2,13.2,0,0,0-3.03.024,3.256,3.256,0,0,0-2.741,3.078l.017,43.23a3.169,3.169,0,0,0,3.309,3.014l59.594.005a3.158,3.158,0,0,0,3.328-3.257l-.018-43.283c0-2.13-2.75-3.423-5.589-2.75a11.052,11.052,0,0,1-2.48,3.745ZM57.35,20.852C45.6,28.091,26.227,28,14.682,20.825L9,20.85,9.024,54.9l53.851.005-.006-34.053ZM44.636,72.22l-.014-5.987-17.349.008.042,6.028Zm8.27,9.027a5.832,5.832,0,0,0-6.22-6.186L24.3,75.067a5.836,5.836,0,0,0-5.327,6.191Z" transform="translate(-0.001 0)" fill="#12263f"/>
          <path id="Trazado_1285652" data-name="Trazado 1285652" d="M71.126,147.883l-21.913-.011a1.5,1.5,0,0,1-1.392-1.291,1.414,1.414,0,0,1,1.387-1.5l21.808-.008a1.381,1.381,0,0,1,1.41,1.263,1.443,1.443,0,0,1-1.3,1.544" transform="translate(-34.421 -104.438)" fill="#12263f"/>
          <path id="Trazado_1285653" data-name="Trazado 1285653" d="M112.972,169.881l-20.662-.006a1.438,1.438,0,0,1-1.365-1.279c-.062-.532.3-1.485,1.1-1.485l21.462.005c.782,0,1.02,1.024.972,1.493a1.394,1.394,0,0,1-1.51,1.272" transform="translate(-65.464 -120.299)" fill="#12263f"/>
          <path id="Trazado_1285654" data-name="Trazado 1285654" d="M65.7,123.545l-16.452-.03a1.477,1.477,0,0,1-1.381-.987c-.164-.451.071-1.69.806-1.694l16.765-.106c.981-.006,1.763.347,1.842,1.368a1.46,1.46,0,0,1-1.581,1.449" transform="translate(-34.423 -86.909)" fill="#12263f"/>
          <path id="Trazado_1285655" data-name="Trazado 1285655" d="M55.407,169.729l-6.213.042a1.449,1.449,0,0,1-1.393-1.488c.066-.861.726-1.3,1.65-1.294l5.889.019a1.368,1.368,0,0,1,1.3,1.292,1.333,1.333,0,0,1-1.228,1.43" transform="translate(-34.408 -120.211)" fill="#12263f"/>
          <path id="Trazado_1285656" data-name="Trazado 1285656" d="M107.3,17.619a8.188,8.188,0,1,1-7.847,8.645,8.124,8.124,0,0,1,7.847-8.645m.363,2.912a5.009,5.009,0,0,0-5.295,4.129,5.308,5.308,0,0,0,2.933,5.954,5.148,5.148,0,0,0,6.373-1.4,5.121,5.121,0,0,1-5.377-2.748,5.075,5.075,0,0,1,1.366-5.934m2.283,2.027a1.986,1.986,0,1,0,1.556,3.654,2.07,2.07,0,0,0,1.025-2.626,1.978,1.978,0,0,0-2.581-1.028" transform="translate(-71.583 -12.678)" fill="#12263f"/>
        </g>
      </g>
    </g>
  </g>
</svg>
