<svg xmlns="http://www.w3.org/2000/svg" xmlns:xlink="http://www.w3.org/1999/xlink" width="128" height="128" viewBox="0 0 128 128">
  <defs>
    <clipPath id="clip-path">
      <rect id="Rectángulo_465540" data-name="Rectángulo 465540" width="61.317" height="61.332" fill="#19538d"/>
    </clipPath>
  </defs>
  <g id="Grupo_1212757" data-name="Grupo 1212757" transform="translate(-383.746 -8400)">
    <circle id="Elipse_13890" data-name="Elipse 13890" cx="64" cy="64" r="64" transform="translate(383.746 8400)" fill="#5a9ad7"/>
    <path id="Intersección_1" data-name="Intersección 1" d="M23204.689,11774.869a64,64,0,0,1,106.254-48.067l-104.787,61.753A64.213,64.213,0,0,1,23204.689,11774.869Z" transform="translate(-22820.941 -3310.872)" fill="#19538d"/>
    <circle id="Elipse_13891" data-name="Elipse 13891" cx="54" cy="54" r="54" transform="translate(393.746 8410)" fill="#fff"/>
    <g id="Grupo_1212758" data-name="Grupo 1212758" transform="translate(417.088 8433.334)">
      <g id="Grupo_1212622" data-name="Grupo 1212622" clip-path="url(#clip-path)">
        <path id="Trazado_1285547" data-name="Trazado 1285547" d="M32.7,24.428a1.1,1.1,0,0,1-1.222,1.144l-3.442.006-5.151,5.06c-1.57.083-2.959.027-4.5.027a13.294,13.294,0,0,0,.688,4.091l7.482.013.014-4.1A.993.993,0,0,1,27.6,29.655h7.146l.011-6.141A1,1,0,0,1,35.773,22.5h7.145l.012-5.12a1,1,0,0,1,1.019-1.012H51.1l.009-7.161a1,1,0,0,1,1.022-1.015l8.165,0A1,1,0,0,1,61.317,9.24V43.912a1.012,1.012,0,0,1-1.023,1.056l-5.145.027,1.52,1.567a1.057,1.057,0,0,1-.029,1.522l-8.563,8.563a1.034,1.034,0,0,1-1.412.116l-6.132-6.1-2.713,1.107L37.806,60.3a1.029,1.029,0,0,1-1.029,1.034l-12.237,0a1,1,0,0,1-1.006-.858l-.041-8.7-2.706-1.11-6.021,6a1.054,1.054,0,0,1-1.526-.016L4.677,48.083a1.052,1.052,0,0,1-.022-1.527l6-6.018-1.109-2.71-8.519-.009A1.026,1.026,0,0,1,0,36.784V24.542a.969.969,0,0,1,.847-1l8.7-.037,1.113-2.719-6-6.019a1.053,1.053,0,0,1,.022-1.527l8.561-8.561a1.054,1.054,0,0,1,1.528-.023l6.019,6L23.5,9.551l.016-8.518A1,1,0,0,1,24.538.016l12.242,0A1,1,0,0,1,37.8,1.033l.013,7.127-2.05.013,0-6.117H25.55l-.007,8.158a1.045,1.045,0,0,1-.665.973l-3.9,1.607a1.148,1.148,0,0,1-1.321-.362l-5.6-5.613L6.816,14.063l5.9,5.917a1.109,1.109,0,0,1,.087.989l-1.626,3.914a1.065,1.065,0,0,1-.966.673l-8.169.007V35.788H9.8a23.747,23.747,0,0,1-.6-5.118h2.059a19.4,19.4,0,0,0,32.5,14.316l-12.885.007a14.444,14.444,0,0,1-13.819-9.91,14.267,14.267,0,0,1,5.894-16.465l1.078,1.712a12.375,12.375,0,0,0-5.451,8.277l3.468,0,4.512-4.514.026-3.647a.94.94,0,0,1,.839-.981l3.813-.057,3.5-3.5.026-3.638a.992.992,0,0,1,1.018-1.013l3.635-.03,3.5-3.5L42.931,4.1c.005-.7.549-1.029,1.212-1.032l3.435-.015,3.051-3L61.3,0l0,2.053-9.762.005c-.7.889-1.9,1.513-2.337,2.545-.648,1.527.781,4.614-1.375,4.615H44.39l-3.493,3.5-.027,3.634A1.078,1.078,0,0,1,39.659,17.4H36.213l-3.491,3.5ZM47.016,7.157,47,5.119l-2.03,0v2.04ZM59.278,42.9l0-32.667H53.142v32.7ZM38.84,15.334,38.827,13.3l-2.03,0,0,2.04ZM51.1,42.905l0-24.5H44.965V42.941ZM30.664,23.51l-.013-2.039-2.03,0v2.04Zm12.262,19.4,0-18.368H36.789v18.4Zm-8.174,0,0-11.218-6.143,0,.044,11.1a47.528,47.528,0,0,0,6.1.117m-8.2-6.111-6.52.013a12.5,12.5,0,0,0,6.527,5.4ZM14.085,54.5l5.463-5.479a21.551,21.551,0,0,1-7.25-7.235L6.809,47.264Zm40.4-7.241-2.242-2.268-5.6,0a22.255,22.255,0,0,1-4.863,4.049l5.477,5.478ZM35.773,59.279l0-7.754a22.237,22.237,0,0,1-10.233,0l.006,7.772Z" transform="translate(-0.001)" fill="#19538d"/>
      </g>
    </g>
  </g>
</svg>
