<svg xmlns="http://www.w3.org/2000/svg" xmlns:xlink="http://www.w3.org/1999/xlink" width="160" height="160" viewBox="0 0 160 160">
  <defs>
    <clipPath id="clip-path">
      <rect id="Rectángulo_465542" data-name="Rectángulo 465542" width="92.216" height="92.23" fill="#12263f"/>
    </clipPath>
  </defs>
  <g id="Grupo_1188419" data-name="Grupo 1188419" transform="translate(-186 -9253.863)">
    <g id="Grupo_1188415" data-name="Grupo 1188415" transform="translate(186 9253.862)">
      <circle id="Elipse_13890" data-name="Elipse 13890" cx="80" cy="80" r="80" transform="translate(160 160.001) rotate(180)" fill="#4dd0e1"/>
      <path id="Intersección_3" data-name="Intersección 3" d="M0,75.841,132.185,0a80.107,80.107,0,0,1-78.3,96.7A79.753,79.753,0,0,1,0,75.841Z" transform="translate(26.074 63.298)" fill="#1e535a"/>
      <ellipse id="Elipse_13891" data-name="Elipse 13891" cx="67.127" cy="67.127" rx="67.127" ry="67.127" transform="translate(147.128 147.099) rotate(180)" fill="#d5f4f8"/>
      <path id="Intersección_2" data-name="Intersección 2" d="M0,67.169A67.131,67.131,0,0,1,133.583,57.6L25.818,120.113A67.077,67.077,0,0,1,0,67.169Z" transform="translate(12.874 12.842)" fill="#fff"/>
      <g id="Grupo_1212775" data-name="Grupo 1212775" transform="translate(33.558 36.578)">
        <g id="Grupo_1212626" data-name="Grupo 1212626" clip-path="url(#clip-path)">
          <path id="Trazado_1285553" data-name="Trazado 1285553" d="M1.967,70.19A1.846,1.846,0,0,1,.043,68.576l0-7.2a1.8,1.8,0,0,1,1.791-1.6,1.82,1.82,0,0,1,1.8,1.944l.061,4.843,14.341-.009.02-26.3-14.393.022-.034,4.844a1.747,1.747,0,0,1-1.746,1.94,1.792,1.792,0,0,1-1.87-1.816L0,38.594a1.8,1.8,0,0,1,1.8-1.9l18.067-.013a1.66,1.66,0,0,1,1.767,1.655l.041,3.69,8.6.021c2.537-5.535,8.66-8.794,14.7-8.832l14.562-.091A19.276,19.276,0,1,1,70.6,38.408a6.979,6.979,0,0,1-1.557,6,6.662,6.662,0,0,1,1.211,9.375C73.915,56,74.274,60.5,72.069,63.787c1.979,1.869,3.464,4.529,2.535,7.451a6.566,6.566,0,0,1-6.017,4.8l-10.941.029c-2.593.007-.576,4.6-1.957,10.4a7.062,7.062,0,0,1-7.278,5.771,7.6,7.6,0,0,1-7.732-8.1L40.6,76.9c-.012-1.124-.417-3.1-1.414-3.63-5.413-.418-8.329-3.074-9.277-8.444L21.671,64.8l-.013,3.529A1.842,1.842,0,0,1,20,70.153ZM70.011,3.907A15.648,15.648,0,1,0,88.342,16.394,15.621,15.621,0,0,0,70.011,3.907M50.9,87.9a5.589,5.589,0,0,0,1.607-4.06l.084-5.763c.042-2.915,1.809-5.584,4.84-5.608l11.168-.087a2.927,2.927,0,0,0,2.606-3.6,3.261,3.261,0,0,0-3.474-2.521c-1.219.112-2.258-.47-2.355-1.559a1.845,1.845,0,0,1,1.839-2.1,3.092,3.092,0,0,0,2.545-3.915c-1.031-3.838-5.864-.876-6.238-3.847a1.847,1.847,0,0,1,1.67-2.038,3.122,3.122,0,1,0-.573-6.217,1.877,1.877,0,0,1-1.98-1.553,1.8,1.8,0,0,1,1.412-1.98,3.132,3.132,0,1,0-.354-6.247l-18.436.046c-5.367.014-10.335,2.683-12.138,7.813a1.792,1.792,0,0,1-1.693.96l-9.766,0V61.17l9.941.058a1.748,1.748,0,0,1,1.712,1.683c.22,3.471,1.735,6.6,5.027,6.521,3.977-.094,5.841,3.911,5.946,7.829l.229,8.521c.04,1.489,1.406,2.242,2.757,2.7A4.356,4.356,0,0,0,50.9,87.9" transform="translate(0 0)" fill="#12263f"/>
          <path id="Trazado_1285554" data-name="Trazado 1285554" d="M1.5,179.357A1.746,1.746,0,0,1,3.619,180.8a1.766,1.766,0,0,1-1.466,2.058,1.8,1.8,0,0,1-2.033-1.27,1.761,1.761,0,0,1,1.375-2.23" transform="translate(-0.041 -127.641)" fill="#12263f"/>
          <path id="Trazado_1285555" data-name="Trazado 1285555" d="M241.545,79.717c-1.909-1.744-4.427-1.931-6.277-.122a1.863,1.863,0,0,1-2.431-.054,1.833,1.833,0,0,1-.077-2.5,7.788,7.788,0,0,1,10.917-.19A1.844,1.844,0,0,1,244,79.26a1.744,1.744,0,0,1-2.455.457" transform="translate(-165.364 -53.185)" fill="#12263f"/>
          <path id="Trazado_1285556" data-name="Trazado 1285556" d="M265.8,43.126a1.75,1.75,0,0,1-1.71,1.727,1.653,1.653,0,0,1-1.8-1.5v-4.81a1.606,1.606,0,0,1,1.8-1.455,1.764,1.764,0,0,1,1.726,1.8Z" transform="translate(-186.714 -26.403)" fill="#12263f"/>
          <path id="Trazado_1285557" data-name="Trazado 1285557" d="M235.28,43.284a1.663,1.663,0,0,1-1.858,1.593,1.731,1.731,0,0,1-1.652-1.742l-.024-4.051a1.772,1.772,0,0,1,1.449-1.937c.822-.157,2.065.272,2.068,1.37Z" transform="translate(-164.967 -26.422)" fill="#12263f"/>
        </g>
      </g>
    </g>
  </g>
</svg>
